<?xml version="1.0" encoding="utf-8"?>
<!-- Generator: Adobe Illustrator 18.1.1, SVG Export Plug-In . SVG Version: 6.00 Build 0)  -->
<svg version="1.1" id="Layer_1" xmlns="http://www.w3.org/2000/svg" xmlns:xlink="http://www.w3.org/1999/xlink" x="0px" y="0px"
	 viewBox="0 0 80 133" enable-background="new 0 0 80 133" xml:space="preserve">
<rect x="11.5" y="2.5" fill="#FFFFFF" stroke="#000000" stroke-linejoin="round" stroke-miterlimit="10" width="56" height="127"/>
<path fill="#FFFFFF" stroke="#3F3F3F" stroke-linejoin="round" stroke-miterlimit="10" d="M65.5,84.5c-9,2.2-14,6.7-26.3,6.7
	c-12.3,0-16.7-4.5-25.7-6.7v-80h52V84.5z"/>
<circle fill="#FFFFFF" stroke="#3F3F3F" stroke-width="0.5" stroke-linejoin="round" stroke-miterlimit="10" cx="40.1" cy="103" r="5.7"/>
<rect x="13.5" y="32.8" fill="#FFFFFF" stroke="#000000" stroke-width="0.5" stroke-linejoin="round" stroke-miterlimit="10" width="52" height="14.2"/>
<rect x="13.5" y="18.7" fill="#FFFFFF" stroke="#000000" stroke-width="0.5" stroke-linejoin="round" stroke-miterlimit="10" width="52" height="14.2"/>
<rect x="13.5" y="47" fill="#FFFFFF" stroke="#000000" stroke-width="0.5" stroke-linejoin="round" stroke-miterlimit="10" width="34.1" height="27.5"/>
<rect x="47.6" y="47" fill="#FFFFFF" stroke="#000000" stroke-width="0.5" stroke-linejoin="round" stroke-miterlimit="10" width="17.9" height="27.5"/>
<rect x="13.5" y="4.5" fill="#FFFFFF" stroke="#000000" stroke-width="0.5" stroke-linejoin="round" stroke-miterlimit="10" width="52" height="14.2"/>
<path fill="none" stroke="#000000" stroke-width="0.5" stroke-linecap="round" stroke-linejoin="round" stroke-miterlimit="10" d="
	M42,100.8c0.6,0.5,1,1.3,1,2.2c0,1.6-1.3,2.9-2.9,2.9s-2.9-1.3-2.9-2.9c0-0.9,0.4-1.6,1-2.2"/>
<line fill="none" stroke="#000000" stroke-width="0.5" stroke-linecap="round" stroke-linejoin="round" stroke-miterlimit="10" x1="40.1" y1="100.2" x2="40.1" y2="103.3"/>
</svg>
