<?xml version="1.0" encoding="utf-8"?>
<!-- Generator: Adobe Illustrator 18.1.1, SVG Export Plug-In . SVG Version: 6.00 Build 0)  -->
<svg version="1.1" id="Layer_1" xmlns="http://www.w3.org/2000/svg" xmlns:xlink="http://www.w3.org/1999/xlink" x="0px" y="0px"
	 viewBox="0 0 80 66" enable-background="new 0 0 80 66" xml:space="preserve">
<rect fill="none" width="80" height="66"/>
<g>
	<path fill="none" stroke="#000000" stroke-width="0.5" stroke-miterlimit="10" d="M75.4,42.8c0-2.8,0-5.6-0.1-8.5c0,0,0,0,0,0
		c-0.8,0-1.4-0.7-1.5-1.5c0-0.8,0.7-1.5,1.5-1.5c0,0,0,0,0,0c0-2.5,0-5.1,0-7.6c-21.9-0.1-43.9-0.1-65.8-0.2
		c-0.1,0.1-0.1,0.2-0.2,0.4c0,0.1,0,0.1,0,0.2c-0.1,0.2-0.3,0.3-0.6,0.3H5.8c0,0.9,0,1.7,0,2.6h2.9c0.5,0,0.5,0.8,0,0.8H5.8
		c0,4.6,0,9.3,0,13.9c0.9,0,1.8,0,2.7,0c0.1,0,0.3,0.1,0.5,0.3c0.2,0.3,0.1,0.6,0.1,0.7C31.2,42.9,53.3,42.9,75.4,42.8z M73.8,40.5
		c0.9,0,0.9,1.4,0,1.4C72.9,42,72.9,40.5,73.8,40.5z M10.3,24.2c0.9,0,0.9,1.4,0,1.4C9.3,25.6,9.3,24.2,10.3,24.2z"/>
	<g>
		<rect x="5.8" y="24.7" fill="none" stroke="#000000" stroke-width="0.5" stroke-miterlimit="10" width="2.7" height="0.8"/>
		<rect x="5.8" y="25.5" fill="none" stroke="#000000" stroke-width="0.5" stroke-miterlimit="10" width="2.7" height="0.8"/>
		<rect x="5.8" y="26.3" fill="none" stroke="#000000" stroke-width="0.5" stroke-miterlimit="10" width="2.7" height="0.8"/>
	</g>
	<rect x="5.8" y="36.1" fill="none" stroke="#000000" stroke-width="0.5" stroke-miterlimit="10" width="2.7" height="0.8"/>
	<rect x="5.8" y="32.9" fill="none" stroke="#000000" stroke-width="0.5" stroke-miterlimit="10" width="2.7" height="0.8"/>
	<rect x="5.8" y="41" fill="none" stroke="#000000" stroke-width="0.5" stroke-miterlimit="10" width="2.7" height="0.8"/>
	<rect x="5.8" y="35.3" fill="none" stroke="#000000" stroke-width="0.5" stroke-miterlimit="10" width="2.7" height="0.8"/>
	<rect x="5.8" y="40.1" fill="none" stroke="#000000" stroke-width="0.5" stroke-miterlimit="10" width="2.7" height="0.8"/>
	<rect x="5.8" y="39.3" fill="none" stroke="#000000" stroke-width="0.5" stroke-miterlimit="10" width="2.7" height="0.8"/>
	<rect x="5.8" y="38.5" fill="none" stroke="#000000" stroke-width="0.5" stroke-miterlimit="10" width="2.7" height="0.8"/>
	<rect x="5.8" y="37.7" fill="none" stroke="#000000" stroke-width="0.5" stroke-miterlimit="10" width="2.7" height="0.8"/>
	<rect x="5.8" y="36.9" fill="none" stroke="#000000" stroke-width="0.5" stroke-miterlimit="10" width="2.7" height="0.8"/>
	<rect x="5.8" y="33.7" fill="none" stroke="#000000" stroke-width="0.5" stroke-miterlimit="10" width="2.7" height="0.8"/>
	<rect x="5.8" y="34.5" fill="none" stroke="#000000" stroke-width="0.5" stroke-miterlimit="10" width="2.7" height="0.8"/>
	<rect x="5.8" y="30.4" fill="none" stroke="#000000" stroke-width="0.5" stroke-miterlimit="10" width="2.7" height="0.8"/>
	<rect x="5.8" y="31.2" fill="none" stroke="#000000" stroke-width="0.5" stroke-miterlimit="10" width="2.7" height="0.8"/>
	<rect x="5.8" y="32.1" fill="none" stroke="#000000" stroke-width="0.5" stroke-miterlimit="10" width="2.7" height="0.8"/>
	<rect x="5.8" y="28.8" fill="none" stroke="#000000" stroke-width="0.5" stroke-miterlimit="10" width="2.7" height="0.8"/>
	<rect x="5.8" y="29.6" fill="none" stroke="#000000" stroke-width="0.5" stroke-miterlimit="10" width="2.7" height="0.8"/>
	<rect x="56.8" y="25.9" fill="none" stroke="#000000" stroke-width="0.5" stroke-miterlimit="10" width="12.1" height="14.7"/>
	<rect x="43" y="25.9" fill="none" stroke="#000000" stroke-width="0.5" stroke-miterlimit="10" width="12.1" height="14.7"/>
	<rect x="14.1" y="25.9" fill="none" stroke="#000000" stroke-width="0.5" stroke-miterlimit="10" width="12.1" height="14.7"/>
	<rect x="29.4" y="25.9" fill="none" stroke="#000000" stroke-width="0.5" stroke-miterlimit="10" width="8.8" height="10.2"/>
</g>
</svg>
