<?xml version="1.0" encoding="utf-8"?>
<!-- Generator: Adobe Illustrator 18.1.1, SVG Export Plug-In . SVG Version: 6.00 Build 0)  -->
<svg version="1.1" id="Layer_1" xmlns="http://www.w3.org/2000/svg" xmlns:xlink="http://www.w3.org/1999/xlink" x="0px" y="0px"
	 viewBox="0 0 80 66" enable-background="new 0 0 80 66" xml:space="preserve">
<pattern  width="72" height="72" patternUnits="userSpaceOnUse" id="USGS_7_Vineyard" viewBox="71.5 -72 72 72" overflow="visible">
	<g>
		<polygon fill="none" points="71.5,-72 143.5,-72 143.5,0 71.5,0 		"/>
		<g>
			<line fill="none" stroke="#1D1D1B" stroke-width="2" stroke-dasharray="2,1" x1="72" y1="-1.5" x2="144" y2="-1.5"/>
			<line fill="none" stroke="#1D1D1B" stroke-width="2" stroke-dasharray="2,1" x1="72" y1="-4.5" x2="144" y2="-4.5"/>
			<line fill="none" stroke="#1D1D1B" stroke-width="2" stroke-dasharray="2,1" x1="72" y1="-7.5" x2="144" y2="-7.5"/>
			<line fill="none" stroke="#1D1D1B" stroke-width="2" stroke-dasharray="2,1" x1="72" y1="-10.5" x2="144" y2="-10.5"/>
			<line fill="none" stroke="#1D1D1B" stroke-width="2" stroke-dasharray="2,1" x1="72" y1="-13.5" x2="144" y2="-13.5"/>
			<line fill="none" stroke="#1D1D1B" stroke-width="2" stroke-dasharray="2,1" x1="72" y1="-16.5" x2="144" y2="-16.5"/>
			<line fill="none" stroke="#1D1D1B" stroke-width="2" stroke-dasharray="2,1" x1="72" y1="-19.5" x2="144" y2="-19.5"/>
			<line fill="none" stroke="#1D1D1B" stroke-width="2" stroke-dasharray="2,1" x1="72" y1="-22.5" x2="144" y2="-22.5"/>
			<line fill="none" stroke="#1D1D1B" stroke-width="2" stroke-dasharray="2,1" x1="72" y1="-25.5" x2="144" y2="-25.5"/>
			<line fill="none" stroke="#1D1D1B" stroke-width="2" stroke-dasharray="2,1" x1="72" y1="-28.5" x2="144" y2="-28.5"/>
			<line fill="none" stroke="#1D1D1B" stroke-width="2" stroke-dasharray="2,1" x1="72" y1="-31.5" x2="144" y2="-31.5"/>
			<line fill="none" stroke="#1D1D1B" stroke-width="2" stroke-dasharray="2,1" x1="72" y1="-34.5" x2="144" y2="-34.5"/>
			<line fill="none" stroke="#1D1D1B" stroke-width="2" stroke-dasharray="2,1" x1="72" y1="-37.5" x2="144" y2="-37.5"/>
			<line fill="none" stroke="#1D1D1B" stroke-width="2" stroke-dasharray="2,1" x1="72" y1="-40.5" x2="144" y2="-40.5"/>
			<line fill="none" stroke="#1D1D1B" stroke-width="2" stroke-dasharray="2,1" x1="72" y1="-43.5" x2="144" y2="-43.5"/>
			<line fill="none" stroke="#1D1D1B" stroke-width="2" stroke-dasharray="2,1" x1="72" y1="-46.5" x2="144" y2="-46.5"/>
			<line fill="none" stroke="#1D1D1B" stroke-width="2" stroke-dasharray="2,1" x1="72" y1="-49.5" x2="144" y2="-49.5"/>
			<line fill="none" stroke="#1D1D1B" stroke-width="2" stroke-dasharray="2,1" x1="72" y1="-52.5" x2="144" y2="-52.5"/>
			<line fill="none" stroke="#1D1D1B" stroke-width="2" stroke-dasharray="2,1" x1="72" y1="-55.5" x2="144" y2="-55.5"/>
			<line fill="none" stroke="#1D1D1B" stroke-width="2" stroke-dasharray="2,1" x1="72" y1="-58.5" x2="144" y2="-58.5"/>
			<line fill="none" stroke="#1D1D1B" stroke-width="2" stroke-dasharray="2,1" x1="72" y1="-61.5" x2="144" y2="-61.5"/>
			<line fill="none" stroke="#1D1D1B" stroke-width="2" stroke-dasharray="2,1" x1="72" y1="-64.5" x2="144" y2="-64.5"/>
			<line fill="none" stroke="#1D1D1B" stroke-width="2" stroke-dasharray="2,1" x1="72" y1="-67.5" x2="144" y2="-67.5"/>
			<line fill="none" stroke="#1D1D1B" stroke-width="2" stroke-dasharray="2,1" x1="72" y1="-70.5" x2="144" y2="-70.5"/>
		</g>
		<g>
			<line fill="none" stroke="#1D1D1B" stroke-width="2" stroke-dasharray="2,1" x1="0" y1="-1.5" x2="72" y2="-1.5"/>
			<line fill="none" stroke="#1D1D1B" stroke-width="2" stroke-dasharray="2,1" x1="0" y1="-4.5" x2="72" y2="-4.5"/>
			<line fill="none" stroke="#1D1D1B" stroke-width="2" stroke-dasharray="2,1" x1="0" y1="-7.5" x2="72" y2="-7.5"/>
			<line fill="none" stroke="#1D1D1B" stroke-width="2" stroke-dasharray="2,1" x1="0" y1="-10.5" x2="72" y2="-10.5"/>
			<line fill="none" stroke="#1D1D1B" stroke-width="2" stroke-dasharray="2,1" x1="0" y1="-13.5" x2="72" y2="-13.5"/>
			<line fill="none" stroke="#1D1D1B" stroke-width="2" stroke-dasharray="2,1" x1="0" y1="-16.5" x2="72" y2="-16.5"/>
			<line fill="none" stroke="#1D1D1B" stroke-width="2" stroke-dasharray="2,1" x1="0" y1="-19.5" x2="72" y2="-19.5"/>
			<line fill="none" stroke="#1D1D1B" stroke-width="2" stroke-dasharray="2,1" x1="0" y1="-22.5" x2="72" y2="-22.5"/>
			<line fill="none" stroke="#1D1D1B" stroke-width="2" stroke-dasharray="2,1" x1="0" y1="-25.5" x2="72" y2="-25.5"/>
			<line fill="none" stroke="#1D1D1B" stroke-width="2" stroke-dasharray="2,1" x1="0" y1="-28.5" x2="72" y2="-28.5"/>
			<line fill="none" stroke="#1D1D1B" stroke-width="2" stroke-dasharray="2,1" x1="0" y1="-31.5" x2="72" y2="-31.5"/>
			<line fill="none" stroke="#1D1D1B" stroke-width="2" stroke-dasharray="2,1" x1="0" y1="-34.5" x2="72" y2="-34.5"/>
			<line fill="none" stroke="#1D1D1B" stroke-width="2" stroke-dasharray="2,1" x1="0" y1="-37.5" x2="72" y2="-37.5"/>
			<line fill="none" stroke="#1D1D1B" stroke-width="2" stroke-dasharray="2,1" x1="0" y1="-40.5" x2="72" y2="-40.5"/>
			<line fill="none" stroke="#1D1D1B" stroke-width="2" stroke-dasharray="2,1" x1="0" y1="-43.5" x2="72" y2="-43.5"/>
			<line fill="none" stroke="#1D1D1B" stroke-width="2" stroke-dasharray="2,1" x1="0" y1="-46.5" x2="72" y2="-46.5"/>
			<line fill="none" stroke="#1D1D1B" stroke-width="2" stroke-dasharray="2,1" x1="0" y1="-49.5" x2="72" y2="-49.5"/>
			<line fill="none" stroke="#1D1D1B" stroke-width="2" stroke-dasharray="2,1" x1="0" y1="-52.5" x2="72" y2="-52.5"/>
			<line fill="none" stroke="#1D1D1B" stroke-width="2" stroke-dasharray="2,1" x1="0" y1="-55.5" x2="72" y2="-55.5"/>
			<line fill="none" stroke="#1D1D1B" stroke-width="2" stroke-dasharray="2,1" x1="0" y1="-58.5" x2="72" y2="-58.5"/>
			<line fill="none" stroke="#1D1D1B" stroke-width="2" stroke-dasharray="2,1" x1="0" y1="-61.5" x2="72" y2="-61.5"/>
			<line fill="none" stroke="#1D1D1B" stroke-width="2" stroke-dasharray="2,1" x1="0" y1="-64.5" x2="72" y2="-64.5"/>
			<line fill="none" stroke="#1D1D1B" stroke-width="2" stroke-dasharray="2,1" x1="0" y1="-67.5" x2="72" y2="-67.5"/>
			<line fill="none" stroke="#1D1D1B" stroke-width="2" stroke-dasharray="2,1" x1="0" y1="-70.5" x2="72" y2="-70.5"/>
		</g>
	</g>
</pattern>
<rect fill="none" width="80" height="66"/>
<g>
	<g>
		
			<path fill="#FFFFFF" stroke="#000000" stroke-width="0.5" stroke-linecap="round" stroke-linejoin="round" stroke-miterlimit="10" d="
			M16.4,8.1v49.8h49V8.1H16.4z M18.1,57.2c-1.3,0-1.3-2,0-2C19.4,55.2,19.3,57.2,18.1,57.2z M18.1,10.8c-1.3,0-1.3-2,0-2
			C19.4,8.8,19.3,10.8,18.1,10.8z M63.4,8.8c1.3,0,1.3,2,0,2C62.1,10.8,62.1,8.8,63.4,8.8z M63.7,57.2c-1.3,0-1.3-2,0-2
			C65,55.2,65,57.2,63.7,57.2z"/>
		
			<rect x="16.4" y="29.2" fill="#FFFFFF" stroke="#000000" stroke-width="0.5" stroke-linecap="round" stroke-linejoin="round" stroke-miterlimit="10" width="3.7" height="4.3"/>
		
			<rect x="16.4" y="25.2" fill="#FFFFFF" stroke="#000000" stroke-width="0.5" stroke-linecap="round" stroke-linejoin="round" stroke-miterlimit="10" width="3.5" height="3.1"/>
		
			<rect x="16.4" y="22.3" fill="#FFFFFF" stroke="#000000" stroke-width="0.5" stroke-linecap="round" stroke-linejoin="round" stroke-miterlimit="10" width="2.6" height="1.9"/>
		
			<rect x="16.4" y="18.2" fill="#FFFFFF" stroke="#000000" stroke-width="0.5" stroke-linecap="round" stroke-linejoin="round" stroke-miterlimit="10" width="2.8" height="3"/>
		
			<rect x="16.4" y="11.8" fill="#FFFFFF" stroke="#000000" stroke-width="0.5" stroke-linecap="round" stroke-linejoin="round" stroke-miterlimit="10" width="2.8" height="5.3"/>
		
			<rect x="15.6" y="11.9" fill="#FFFFFF" stroke="#000000" stroke-width="0.5" stroke-linecap="round" stroke-linejoin="round" stroke-miterlimit="10" width="0.7" height="4.9"/>
		
			<rect x="14.5" y="13" fill="#FFFFFF" stroke="#000000" stroke-width="0.5" stroke-linecap="round" stroke-linejoin="round" stroke-miterlimit="10" width="1.1" height="2.8"/>
		
			<rect x="14.5" y="16" fill="#FFFFFF" stroke="#000000" stroke-width="0.5" stroke-linecap="round" stroke-linejoin="round" stroke-miterlimit="10" width="1" height="0.6"/>
		
			<rect x="14.5" y="12.2" fill="#FFFFFF" stroke="#000000" stroke-width="0.5" stroke-linecap="round" stroke-linejoin="round" stroke-miterlimit="10" width="1" height="0.6"/>
		
			<rect x="21.8" y="9.9" fill="#FFFFFF" stroke="#000000" stroke-width="0.5" stroke-linecap="round" stroke-linejoin="round" stroke-miterlimit="10" width="7.2" height="17.7"/>
		<g>
			
				<rect x="23.7" y="45.7" fill="#FFFFFF" stroke="#000000" stroke-width="0.5" stroke-linecap="round" stroke-linejoin="round" stroke-miterlimit="10" width="15.7" height="1.4"/>
			
				<line fill="#FFFFFF" stroke="#000000" stroke-width="0.5" stroke-linecap="round" stroke-linejoin="round" stroke-miterlimit="10" x1="35.7" y1="46.4" x2="24.4" y2="46.4"/>
			
				<line fill="#FFFFFF" stroke="#000000" stroke-width="0.5" stroke-linecap="round" stroke-linejoin="round" stroke-miterlimit="10" x1="36.2" y1="46.4" x2="38.7" y2="46.4"/>
		</g>
		<g>
			
				<rect x="23.7" y="38.9" fill="#FFFFFF" stroke="#000000" stroke-width="0.5" stroke-linecap="round" stroke-linejoin="round" stroke-miterlimit="10" width="4.9" height="1.3"/>
			
				<line fill="#FFFFFF" stroke="#000000" stroke-width="0.5" stroke-linecap="round" stroke-linejoin="round" stroke-miterlimit="10" x1="26.1" y1="39.5" x2="23.9" y2="39.5"/>
			
				<line fill="#FFFFFF" stroke="#000000" stroke-width="0.5" stroke-linecap="round" stroke-linejoin="round" stroke-miterlimit="10" x1="27.8" y1="39.5" x2="26.7" y2="39.5"/>
		</g>
		<g>
			
				<rect x="23.7" y="32.2" fill="#FFFFFF" stroke="#000000" stroke-width="0.5" stroke-linecap="round" stroke-linejoin="round" stroke-miterlimit="10" width="4.9" height="1.3"/>
			
				<line fill="#FFFFFF" stroke="#000000" stroke-width="0.5" stroke-linecap="round" stroke-linejoin="round" stroke-miterlimit="10" x1="26.4" y1="32.9" x2="24.2" y2="32.9"/>
			
				<line fill="#FFFFFF" stroke="#000000" stroke-width="0.5" stroke-linecap="round" stroke-linejoin="round" stroke-miterlimit="10" x1="28.1" y1="32.9" x2="26.9" y2="32.9"/>
		</g>
		
			<rect x="49.1" y="36.8" fill="#FFFFFF" stroke="#000000" stroke-width="0.5" stroke-linecap="round" stroke-linejoin="round" stroke-miterlimit="10" width="10.6" height="15.3"/>
		<g>
			
				<polygon fill="#FFFFFF" stroke="#000000" stroke-width="0.5" stroke-linecap="round" stroke-linejoin="round" stroke-miterlimit="10" points="
				47,54 49.4,54 49.7,54.3 49.7,55 46.7,55 46.7,54.3 47,54.3 			"/>
			<g>
				
					<line fill="#FFFFFF" stroke="#000000" stroke-width="0.5" stroke-linecap="round" stroke-linejoin="round" stroke-miterlimit="10" x1="47.1" y1="54.7" x2="47.1" y2="54.4"/>
				
					<line fill="#FFFFFF" stroke="#000000" stroke-width="0.5" stroke-linecap="round" stroke-linejoin="round" stroke-miterlimit="10" x1="49.2" y1="54.4" x2="47.1" y2="54.4"/>
			</g>
			
				<polygon fill="#FFFFFF" stroke="#000000" stroke-width="0.5" stroke-linecap="round" stroke-linejoin="round" stroke-miterlimit="10" points="
				54.2,54 56.6,54 56.9,54.3 56.9,55 54,55 54,54.3 54.2,54.3 			"/>
			<g>
				
					<line fill="#FFFFFF" stroke="#000000" stroke-width="0.5" stroke-linecap="round" stroke-linejoin="round" stroke-miterlimit="10" x1="54.4" y1="54.7" x2="54.4" y2="54.4"/>
				
					<line fill="#FFFFFF" stroke="#000000" stroke-width="0.5" stroke-linecap="round" stroke-linejoin="round" stroke-miterlimit="10" x1="56.5" y1="54.4" x2="54.4" y2="54.4"/>
			</g>
			
				<polygon fill="#FFFFFF" stroke="#000000" stroke-width="0.5" stroke-linecap="round" stroke-linejoin="round" stroke-miterlimit="10" points="
				57.6,54 60,54 60.2,54.3 60.2,55 57.3,55 57.3,54.3 57.6,54.3 			"/>
			<g>
				
					<line fill="#FFFFFF" stroke="#000000" stroke-width="0.5" stroke-linecap="round" stroke-linejoin="round" stroke-miterlimit="10" x1="57.7" y1="54.7" x2="57.7" y2="54.4"/>
				
					<line fill="#FFFFFF" stroke="#000000" stroke-width="0.5" stroke-linecap="round" stroke-linejoin="round" stroke-miterlimit="10" x1="59.8" y1="54.4" x2="57.7" y2="54.4"/>
			</g>
		</g>
		
			<rect x="32.5" y="16.1" fill="#FFFFFF" stroke="#000000" stroke-width="0.5" stroke-linecap="round" stroke-linejoin="round" stroke-miterlimit="10" width="9.8" height="10.3"/>
		
			<rect x="33" y="16.8" fill="#FFFFFF" stroke="#000000" stroke-width="0.5" stroke-linecap="round" stroke-linejoin="round" stroke-miterlimit="10" width="8" height="8.7"/>
		
			<line fill="#FFFFFF" stroke="#000000" stroke-width="0.5" stroke-linecap="round" stroke-linejoin="round" stroke-miterlimit="10" x1="41.8" y1="17" x2="41.8" y2="27.9"/>
		
			<rect x="17.6" y="39.8" fill="#FFFFFF" stroke="#1A1A1A" stroke-width="0.5" stroke-linecap="round" stroke-linejoin="round" stroke-miterlimit="10" width="3.9" height="4.8"/>
		
			<rect x="17.8" y="48.7" fill="#FFFFFF" stroke="#000000" stroke-width="0.5" stroke-linecap="round" stroke-linejoin="round" stroke-miterlimit="10" width="3.2" height="4.6"/>
		<g>
			
				<rect x="23.7" y="52.9" fill="#FFFFFF" stroke="#000000" stroke-width="0.5" stroke-linecap="round" stroke-linejoin="round" stroke-miterlimit="10" width="15.7" height="1.4"/>
			
				<line fill="#FFFFFF" stroke="#000000" stroke-width="0.5" stroke-linecap="round" stroke-linejoin="round" stroke-miterlimit="10" x1="35.7" y1="53.6" x2="24.4" y2="53.6"/>
			
				<line fill="#FFFFFF" stroke="#000000" stroke-width="0.5" stroke-linecap="round" stroke-linejoin="round" stroke-miterlimit="10" x1="36.2" y1="53.6" x2="38.7" y2="53.6"/>
		</g>
		<g>
			<g>
				
					<rect x="23.7" y="49.1" fill="#FFFFFF" stroke="#000000" stroke-width="0.5" stroke-linecap="round" stroke-linejoin="round" stroke-miterlimit="10" width="16.3" height="1.5"/>
				
					<rect x="40.9" y="49.3" fill="#FFFFFF" stroke="#000000" stroke-width="0.5" stroke-linecap="round" stroke-linejoin="round" stroke-miterlimit="10" width="2.6" height="1"/>
			</g>
			
				<line fill="#FFFFFF" stroke="#000000" stroke-width="0.5" stroke-linecap="round" stroke-linejoin="round" stroke-miterlimit="10" x1="24.4" y1="49.8" x2="26.4" y2="49.8"/>
			
				<line fill="#FFFFFF" stroke="#000000" stroke-width="0.5" stroke-linecap="round" stroke-linejoin="round" stroke-miterlimit="10" x1="39.4" y1="49.8" x2="27.3" y2="49.8"/>
		</g>
		<g>
			<g>
				
					<rect x="23.7" y="42.1" fill="#FFFFFF" stroke="#000000" stroke-width="0.5" stroke-linecap="round" stroke-linejoin="round" stroke-miterlimit="10" width="16.3" height="1.5"/>
				
					<rect x="40.9" y="42.3" fill="#FFFFFF" stroke="#000000" stroke-width="0.5" stroke-linecap="round" stroke-linejoin="round" stroke-miterlimit="10" width="2.6" height="1"/>
			</g>
			
				<line fill="#FFFFFF" stroke="#000000" stroke-width="0.5" stroke-linecap="round" stroke-linejoin="round" stroke-miterlimit="10" x1="24.4" y1="42.8" x2="26.4" y2="42.8"/>
			
				<line fill="#FFFFFF" stroke="#000000" stroke-width="0.5" stroke-linecap="round" stroke-linejoin="round" stroke-miterlimit="10" x1="39.4" y1="42.8" x2="27.3" y2="42.8"/>
		</g>
		<g>
			<g>
				
					<rect x="23.7" y="35.4" fill="#FFFFFF" stroke="#000000" stroke-width="0.5" stroke-linecap="round" stroke-linejoin="round" stroke-miterlimit="10" width="16.3" height="1.5"/>
				
					<rect x="40.9" y="35.7" fill="#FFFFFF" stroke="#000000" stroke-width="0.5" stroke-linecap="round" stroke-linejoin="round" stroke-miterlimit="10" width="2.6" height="1"/>
			</g>
			
				<line fill="#FFFFFF" stroke="#000000" stroke-width="0.5" stroke-linecap="round" stroke-linejoin="round" stroke-miterlimit="10" x1="24.4" y1="36.2" x2="26.4" y2="36.2"/>
			
				<line fill="#FFFFFF" stroke="#000000" stroke-width="0.5" stroke-linecap="round" stroke-linejoin="round" stroke-miterlimit="10" x1="39.4" y1="36.2" x2="27.3" y2="36.2"/>
		</g>
		<g>
			
				<polygon fill="#FFFFFF" stroke="#000000" stroke-width="0.5" stroke-linecap="round" stroke-linejoin="round" stroke-miterlimit="10" points="
				59.9,56.3 57.5,56.3 57.2,56 57.2,55.4 60.2,55.4 60.2,56 59.9,56 			"/>
			<g>
				
					<line fill="#FFFFFF" stroke="#000000" stroke-width="0.5" stroke-linecap="round" stroke-linejoin="round" stroke-miterlimit="10" x1="59.8" y1="55.6" x2="59.8" y2="55.9"/>
				
					<line fill="#FFFFFF" stroke="#000000" stroke-width="0.5" stroke-linecap="round" stroke-linejoin="round" stroke-miterlimit="10" x1="57.7" y1="55.9" x2="59.8" y2="55.9"/>
			</g>
			<g>
				
					<polygon fill="#FFFFFF" stroke="#000000" stroke-width="0.5" stroke-linecap="round" stroke-linejoin="round" stroke-miterlimit="10" points="
					56.6,56.3 54.2,56.3 53.9,56 53.9,55.4 56.9,55.4 56.9,56 56.6,56 				"/>
				<g>
					
						<line fill="#FFFFFF" stroke="#000000" stroke-width="0.5" stroke-linecap="round" stroke-linejoin="round" stroke-miterlimit="10" x1="56.5" y1="55.6" x2="56.5" y2="55.9"/>
					
						<line fill="#FFFFFF" stroke="#000000" stroke-width="0.5" stroke-linecap="round" stroke-linejoin="round" stroke-miterlimit="10" x1="54.4" y1="55.9" x2="56.5" y2="55.9"/>
				</g>
			</g>
			
				<polygon fill="#FFFFFF" stroke="#000000" stroke-width="0.5" stroke-linecap="round" stroke-linejoin="round" stroke-miterlimit="10" points="
				49.4,56.3 47,56.3 46.7,56 46.7,55.4 49.7,55.4 49.7,56 49.4,56 			"/>
			<g>
				
					<line fill="#FFFFFF" stroke="#000000" stroke-width="0.5" stroke-linecap="round" stroke-linejoin="round" stroke-miterlimit="10" x1="49.3" y1="55.6" x2="49.3" y2="55.9"/>
				
					<line fill="#FFFFFF" stroke="#000000" stroke-width="0.5" stroke-linecap="round" stroke-linejoin="round" stroke-miterlimit="10" x1="47.2" y1="55.9" x2="49.3" y2="55.9"/>
			</g>
		</g>
		
			<line fill="#FFFFFF" stroke="#000000" stroke-width="0.5" stroke-linecap="round" stroke-linejoin="round" stroke-miterlimit="10" x1="14.5" y1="16.3" x2="15.6" y2="16.3"/>
		
			<line fill="#FFFFFF" stroke="#000000" stroke-width="0.5" stroke-linecap="round" stroke-linejoin="round" stroke-miterlimit="10" x1="14.5" y1="12.5" x2="15.6" y2="12.5"/>
		
			<rect x="16" y="31.9" fill="#FFFFFF" stroke="#000000" stroke-width="0.5" stroke-linecap="round" stroke-linejoin="round" stroke-miterlimit="10" width="0.4" height="1"/>
		
			<rect x="16" y="29.6" fill="#FFFFFF" stroke="#000000" stroke-width="0.5" stroke-linecap="round" stroke-linejoin="round" stroke-miterlimit="10" width="0.4" height="1"/>
		
			<path fill="url(#USGS_7_Vineyard)" stroke="#000000" stroke-width="0.5" stroke-linecap="round" stroke-linejoin="round" stroke-miterlimit="10" d="
			M33.8,24.3c-0.4-1.7-0.3-2.4-0.1-2.7c0,0,0.2-0.2,0.3-0.4c0-0.1,0.2-0.5,0-0.8c-0.1-0.2-0.2-0.1-0.4-0.3c0,0-0.2-0.2-0.2-0.4
			c0-0.1-0.1-0.4,0-0.7c0.1-0.3,0.4-0.5,0.5-0.6c1.1-0.7,4.6-0.9,6.1,0.1c0.2,0.1,0.5,0.3,0.6,0.7c0.1,0.4-0.2,0.7-0.2,0.8
			c-0.2,0.3-0.4,0.3-0.5,0.6c-0.1,0.3,0,0.6,0,0.7c0.1,0.2,0.2,0.3,0.3,0.4c0.5,0.7,0.4,1.8,0.1,2.5c-0.1,0.2-0.2,0.3-0.2,0.4
			c-2,0-4,0-6,0C34,24.5,33.9,24.4,33.8,24.3z"/>
		<g>
			
				<rect x="61.5" y="21.8" fill="#FFFFFF" stroke="#000000" stroke-width="0.5" stroke-linecap="round" stroke-linejoin="round" stroke-miterlimit="10" width="1.9" height="8.8"/>
			<g>
				
					<rect x="61.8" y="29.6" fill="#FFFFFF" stroke="#000000" stroke-width="0.5" stroke-linecap="round" stroke-linejoin="round" stroke-miterlimit="10" width="0.5" height="0.5"/>
				
					<rect x="62.6" y="29.6" fill="#FFFFFF" stroke="#000000" stroke-width="0.5" stroke-linecap="round" stroke-linejoin="round" stroke-miterlimit="10" width="0.5" height="0.5"/>
			</g>
			<g>
				
					<rect x="61.8" y="28.9" fill="#FFFFFF" stroke="#000000" stroke-width="0.5" stroke-linecap="round" stroke-linejoin="round" stroke-miterlimit="10" width="0.5" height="0.5"/>
				
					<rect x="62.6" y="28.9" fill="#FFFFFF" stroke="#000000" stroke-width="0.5" stroke-linecap="round" stroke-linejoin="round" stroke-miterlimit="10" width="0.5" height="0.5"/>
			</g>
			<g>
				
					<rect x="61.8" y="28.3" fill="#FFFFFF" stroke="#000000" stroke-width="0.5" stroke-linecap="round" stroke-linejoin="round" stroke-miterlimit="10" width="0.5" height="0.5"/>
				
					<rect x="62.6" y="28.3" fill="#FFFFFF" stroke="#000000" stroke-width="0.5" stroke-linecap="round" stroke-linejoin="round" stroke-miterlimit="10" width="0.5" height="0.5"/>
			</g>
			<g>
				
					<rect x="61.8" y="27.6" fill="#FFFFFF" stroke="#000000" stroke-width="0.5" stroke-linecap="round" stroke-linejoin="round" stroke-miterlimit="10" width="0.5" height="0.5"/>
				
					<rect x="62.6" y="27.6" fill="#FFFFFF" stroke="#000000" stroke-width="0.5" stroke-linecap="round" stroke-linejoin="round" stroke-miterlimit="10" width="0.5" height="0.5"/>
			</g>
			<g>
				
					<rect x="61.8" y="26.9" fill="#FFFFFF" stroke="#000000" stroke-width="0.5" stroke-linecap="round" stroke-linejoin="round" stroke-miterlimit="10" width="0.5" height="0.5"/>
				
					<rect x="62.6" y="26.9" fill="#FFFFFF" stroke="#000000" stroke-width="0.5" stroke-linecap="round" stroke-linejoin="round" stroke-miterlimit="10" width="0.5" height="0.5"/>
			</g>
			<g>
				
					<rect x="61.8" y="26.3" fill="#FFFFFF" stroke="#000000" stroke-width="0.5" stroke-linecap="round" stroke-linejoin="round" stroke-miterlimit="10" width="0.5" height="0.5"/>
				
					<rect x="62.6" y="26.3" fill="#FFFFFF" stroke="#000000" stroke-width="0.5" stroke-linecap="round" stroke-linejoin="round" stroke-miterlimit="10" width="0.5" height="0.5"/>
			</g>
			<g>
				
					<rect x="61.8" y="25.6" fill="#FFFFFF" stroke="#000000" stroke-width="0.5" stroke-linecap="round" stroke-linejoin="round" stroke-miterlimit="10" width="0.5" height="0.5"/>
				
					<rect x="62.6" y="25.6" fill="#FFFFFF" stroke="#000000" stroke-width="0.5" stroke-linecap="round" stroke-linejoin="round" stroke-miterlimit="10" width="0.5" height="0.5"/>
			</g>
			<g>
				
					<rect x="61.8" y="24.9" fill="#FFFFFF" stroke="#000000" stroke-width="0.5" stroke-linecap="round" stroke-linejoin="round" stroke-miterlimit="10" width="0.5" height="0.5"/>
				
					<rect x="62.6" y="24.9" fill="#FFFFFF" stroke="#000000" stroke-width="0.5" stroke-linecap="round" stroke-linejoin="round" stroke-miterlimit="10" width="0.5" height="0.5"/>
			</g>
			<g>
				
					<rect x="61.8" y="24.3" fill="#FFFFFF" stroke="#000000" stroke-width="0.5" stroke-linecap="round" stroke-linejoin="round" stroke-miterlimit="10" width="0.5" height="0.5"/>
				
					<rect x="62.6" y="24.3" fill="#FFFFFF" stroke="#000000" stroke-width="0.5" stroke-linecap="round" stroke-linejoin="round" stroke-miterlimit="10" width="0.5" height="0.5"/>
			</g>
			<g>
				
					<rect x="61.8" y="23.6" fill="#FFFFFF" stroke="#000000" stroke-width="0.5" stroke-linecap="round" stroke-linejoin="round" stroke-miterlimit="10" width="0.5" height="0.5"/>
				
					<rect x="62.6" y="23.6" fill="#FFFFFF" stroke="#000000" stroke-width="0.5" stroke-linecap="round" stroke-linejoin="round" stroke-miterlimit="10" width="0.5" height="0.5"/>
			</g>
			<g>
				
					<rect x="61.8" y="22.9" fill="#FFFFFF" stroke="#000000" stroke-width="0.5" stroke-linecap="round" stroke-linejoin="round" stroke-miterlimit="10" width="0.5" height="0.5"/>
				
					<rect x="62.6" y="22.9" fill="#FFFFFF" stroke="#000000" stroke-width="0.5" stroke-linecap="round" stroke-linejoin="round" stroke-miterlimit="10" width="0.5" height="0.5"/>
			</g>
			<g>
				
					<rect x="61.8" y="22.3" fill="#FFFFFF" stroke="#000000" stroke-width="0.5" stroke-linecap="round" stroke-linejoin="round" stroke-miterlimit="10" width="0.5" height="0.5"/>
				
					<rect x="62.6" y="22.3" fill="#FFFFFF" stroke="#000000" stroke-width="0.5" stroke-linecap="round" stroke-linejoin="round" stroke-miterlimit="10" width="0.5" height="0.5"/>
			</g>
		</g>
		<g>
			<g>
				
					<rect x="47.8" y="10.9" fill="#FFFFFF" stroke="#000000" stroke-width="0.5" stroke-linecap="round" stroke-linejoin="round" stroke-miterlimit="10" width="1.4" height="21.3"/>
				
					<line fill="#FFFFFF" stroke="#000000" stroke-width="0.5" stroke-linecap="round" stroke-linejoin="round" stroke-miterlimit="10" x1="48.5" y1="31.9" x2="48.5" y2="20.1"/>
				
					<line fill="#FFFFFF" stroke="#000000" stroke-width="0.5" stroke-linecap="round" stroke-linejoin="round" stroke-miterlimit="10" x1="48.5" y1="19.2" x2="48.5" y2="11.5"/>
				
					<rect x="47.9" y="32.4" fill="#FFFFFF" stroke="#000000" stroke-width="0.5" stroke-linecap="round" stroke-linejoin="round" stroke-miterlimit="10" width="1.3" height="1.4"/>
				
					<rect x="47.9" y="9.2" fill="#FFFFFF" stroke="#000000" stroke-width="0.5" stroke-linecap="round" stroke-linejoin="round" stroke-miterlimit="10" width="1.3" height="1.4"/>
			</g>
			<g>
				
					<rect x="49.7" y="10.9" fill="#FFFFFF" stroke="#000000" stroke-width="0.5" stroke-linecap="round" stroke-linejoin="round" stroke-miterlimit="10" width="1.4" height="21.3"/>
				
					<line fill="#FFFFFF" stroke="#000000" stroke-width="0.5" stroke-linecap="round" stroke-linejoin="round" stroke-miterlimit="10" x1="50.4" y1="31.9" x2="50.4" y2="20.1"/>
				
					<line fill="#FFFFFF" stroke="#000000" stroke-width="0.5" stroke-linecap="round" stroke-linejoin="round" stroke-miterlimit="10" x1="50.4" y1="19.2" x2="50.4" y2="11.5"/>
				
					<rect x="49.8" y="32.4" fill="#FFFFFF" stroke="#000000" stroke-width="0.5" stroke-linecap="round" stroke-linejoin="round" stroke-miterlimit="10" width="1.3" height="1.4"/>
				
					<rect x="49.8" y="9.2" fill="#FFFFFF" stroke="#000000" stroke-width="0.5" stroke-linecap="round" stroke-linejoin="round" stroke-miterlimit="10" width="1.3" height="1.4"/>
			</g>
			<g>
				
					<rect x="51.6" y="10.9" fill="#FFFFFF" stroke="#000000" stroke-width="0.5" stroke-linecap="round" stroke-linejoin="round" stroke-miterlimit="10" width="1.4" height="21.3"/>
				
					<line fill="#FFFFFF" stroke="#000000" stroke-width="0.5" stroke-linecap="round" stroke-linejoin="round" stroke-miterlimit="10" x1="52.3" y1="31.9" x2="52.3" y2="20.1"/>
				
					<line fill="#FFFFFF" stroke="#000000" stroke-width="0.5" stroke-linecap="round" stroke-linejoin="round" stroke-miterlimit="10" x1="52.3" y1="19.2" x2="52.3" y2="11.5"/>
				
					<rect x="51.7" y="32.4" fill="#FFFFFF" stroke="#000000" stroke-width="0.5" stroke-linecap="round" stroke-linejoin="round" stroke-miterlimit="10" width="1.3" height="1.4"/>
				
					<rect x="51.7" y="9.2" fill="#FFFFFF" stroke="#000000" stroke-width="0.5" stroke-linecap="round" stroke-linejoin="round" stroke-miterlimit="10" width="1.3" height="1.4"/>
			</g>
			<g>
				
					<rect x="53.5" y="10.9" fill="#FFFFFF" stroke="#000000" stroke-width="0.5" stroke-linecap="round" stroke-linejoin="round" stroke-miterlimit="10" width="1.4" height="21.3"/>
				
					<line fill="#FFFFFF" stroke="#000000" stroke-width="0.5" stroke-linecap="round" stroke-linejoin="round" stroke-miterlimit="10" x1="54.2" y1="31.9" x2="54.2" y2="20.1"/>
				
					<line fill="#FFFFFF" stroke="#000000" stroke-width="0.5" stroke-linecap="round" stroke-linejoin="round" stroke-miterlimit="10" x1="54.2" y1="19.2" x2="54.2" y2="11.5"/>
				
					<rect x="53.6" y="32.4" fill="#FFFFFF" stroke="#000000" stroke-width="0.5" stroke-linecap="round" stroke-linejoin="round" stroke-miterlimit="10" width="1.3" height="1.4"/>
				
					<rect x="53.6" y="9.2" fill="#FFFFFF" stroke="#000000" stroke-width="0.5" stroke-linecap="round" stroke-linejoin="round" stroke-miterlimit="10" width="1.3" height="1.4"/>
			</g>
			<g>
				
					<rect x="55.4" y="10.9" fill="#FFFFFF" stroke="#000000" stroke-width="0.5" stroke-linecap="round" stroke-linejoin="round" stroke-miterlimit="10" width="1.4" height="21.3"/>
				
					<line fill="#FFFFFF" stroke="#000000" stroke-width="0.5" stroke-linecap="round" stroke-linejoin="round" stroke-miterlimit="10" x1="56.1" y1="31.9" x2="56.1" y2="20.1"/>
				
					<line fill="#FFFFFF" stroke="#000000" stroke-width="0.5" stroke-linecap="round" stroke-linejoin="round" stroke-miterlimit="10" x1="56.1" y1="19.2" x2="56.1" y2="11.5"/>
				
					<rect x="55.5" y="32.4" fill="#FFFFFF" stroke="#000000" stroke-width="0.5" stroke-linecap="round" stroke-linejoin="round" stroke-miterlimit="10" width="1.3" height="1.4"/>
				
					<rect x="55.5" y="9.2" fill="#FFFFFF" stroke="#000000" stroke-width="0.5" stroke-linecap="round" stroke-linejoin="round" stroke-miterlimit="10" width="1.3" height="1.4"/>
			</g>
			<g>
				
					<rect x="57.4" y="10.9" fill="#FFFFFF" stroke="#000000" stroke-width="0.5" stroke-linecap="round" stroke-linejoin="round" stroke-miterlimit="10" width="1.4" height="21.3"/>
				
					<line fill="#FFFFFF" stroke="#000000" stroke-width="0.5" stroke-linecap="round" stroke-linejoin="round" stroke-miterlimit="10" x1="58" y1="31.9" x2="58" y2="20.1"/>
				
					<line fill="#FFFFFF" stroke="#000000" stroke-width="0.5" stroke-linecap="round" stroke-linejoin="round" stroke-miterlimit="10" x1="58" y1="19.2" x2="58" y2="11.5"/>
				
					<rect x="57.4" y="32.4" fill="#FFFFFF" stroke="#000000" stroke-width="0.5" stroke-linecap="round" stroke-linejoin="round" stroke-miterlimit="10" width="1.3" height="1.4"/>
				
					<rect x="57.4" y="9.2" fill="#FFFFFF" stroke="#000000" stroke-width="0.5" stroke-linecap="round" stroke-linejoin="round" stroke-miterlimit="10" width="1.3" height="1.4"/>
			</g>
		</g>
		<g>
			<path fill="none" stroke="#B3B3B3" stroke-miterlimit="10" d="M49,39.5h-1.2c-1.2,0-2.3-1.3-2.3-2.7v-4.6c0-1.1-0.8-1.7-2-1.7
				h-16c-1.4,0-2.5-1.2-2.5-2.7"/>
		</g>
	</g>
	<rect x="31.5" y="9.9" fill="#FFFFFF" stroke="#000000" stroke-width="0.5" stroke-miterlimit="10" width="12" height="3"/>
</g>
</svg>
