<?xml version="1.0" encoding="utf-8"?>
<!-- Generator: Adobe Illustrator 18.1.1, SVG Export Plug-In . SVG Version: 6.00 Build 0)  -->
<svg version="1.1" id="Layer_1" xmlns="http://www.w3.org/2000/svg" xmlns:xlink="http://www.w3.org/1999/xlink" x="0px" y="0px"
	 viewBox="0 0 80 66" enable-background="new 0 0 80 66" xml:space="preserve">
<rect fill="none" width="80" height="66"/>
<g>
	
		<rect x="17.1" y="20.8" fill="none" stroke="#000000" stroke-width="0.5" stroke-linejoin="round" stroke-miterlimit="10" width="49.6" height="19.9"/>
	
		<rect x="15.2" y="34.1" fill="none" stroke="#000000" stroke-width="0.5" stroke-linejoin="round" stroke-miterlimit="10" width="1.8" height="4.8"/>
	
		<rect x="15.4" y="32.6" fill="none" stroke="#000000" stroke-width="0.5" stroke-linejoin="round" stroke-miterlimit="10" width="1.6" height="1.2"/>
	
		<rect x="15.4" y="39.4" fill="none" stroke="#000000" stroke-width="0.5" stroke-linejoin="round" stroke-miterlimit="10" width="1.6" height="1.1"/>
	
		<line fill="none" stroke="#000000" stroke-width="0.5" stroke-linejoin="round" stroke-miterlimit="10" x1="14" y1="21.4" x2="16.7" y2="21.4"/>
	
		<line fill="none" stroke="#000000" stroke-width="0.5" stroke-linejoin="round" stroke-miterlimit="10" x1="16.7" y1="21.4" x2="16.7" y2="46.7"/>
	
		<rect x="17.1" y="40.7" fill="none" stroke="#000000" stroke-width="0.5" stroke-linejoin="round" stroke-miterlimit="10" width="3.6" height="1.7"/>
	<path fill="none" stroke="#000000" stroke-linejoin="round" stroke-miterlimit="10" d="M24.5,40.7c0,0,0.2,1.3,0.2,1.7
		c0.5,0,1.8,0,1.8,0c0-0.5,0-1,0-1.5l0,0c0,0,0-0.2,0.2-0.2c0.1,0,0.2,0.1,0.3,0.2c0,0.8-0.2,2.5-0.2,2.5h1.8c0,0,0-1.1,0-1.7
		c0-0.1,0.4-0.2,0.5-0.2c0.2,0,0.4,0.1,0.4,0.2c0,0.5,0.1,1.1,0.1,1.6c4.8,0,9.7,0,14.5,0c0-0.5,0-1.1,0-1.7c0-0.1,0.2-0.2,0.3-0.2
		c0.1,0,0.3,0.1,0.3,0.2c0,0.4,0,0.7,0,1.1c0.8,0,1.7,0,2.5,0c0.1-0.2-0.6-0.3,0.4-0.5c0-0.2,0-0.3,0-0.5c-1,0-0.9,0-1.1,0
		c-0.1,0-0.2-0.1-0.2-0.1c0,0-0.1,0-0.1-0.1c0-0.2,0-0.4,0-0.6c0.1-0.1,0.3-0.3,0.3-0.3"/>
	
		<line fill="none" stroke="#000000" stroke-width="0.5" stroke-linejoin="round" stroke-miterlimit="10" x1="24.5" y1="41.4" x2="26.1" y2="41.4"/>
	
		<line fill="none" stroke="#000000" stroke-width="0.5" stroke-linejoin="round" stroke-miterlimit="10" x1="44.7" y1="41.8" x2="46.3" y2="41.8"/>
	
		<rect x="26.9" y="41.8" fill="none" stroke="#000000" stroke-width="0.5" stroke-linejoin="round" stroke-miterlimit="10" width="0.4" height="1.6"/>
	
		<rect x="27.2" y="41.8" fill="none" stroke="#000000" stroke-width="0.5" stroke-linejoin="round" stroke-miterlimit="10" width="0.4" height="1.6"/>
	
		<rect x="27.6" y="41.8" fill="none" stroke="#000000" stroke-width="0.5" stroke-linejoin="round" stroke-miterlimit="10" width="0.4" height="1.6"/>
	
		<rect x="28" y="41.8" fill="none" stroke="#000000" stroke-width="0.5" stroke-linejoin="round" stroke-miterlimit="10" width="0.4" height="1.6"/>
	
		<rect x="28.4" y="41.8" fill="none" stroke="#000000" stroke-width="0.5" stroke-linejoin="round" stroke-miterlimit="10" width="0.4" height="1.6"/>
	
		<rect x="28.8" y="41.8" fill="none" stroke="#000000" stroke-width="0.5" stroke-linejoin="round" stroke-miterlimit="10" width="0.4" height="1.6"/>
	
		<rect x="29.6" y="41.8" fill="none" stroke="#000000" stroke-width="0.5" stroke-linejoin="round" stroke-miterlimit="10" width="0.4" height="1.6"/>
	
		<rect x="30" y="41.8" fill="none" stroke="#000000" stroke-width="0.5" stroke-linejoin="round" stroke-miterlimit="10" width="0.4" height="1.6"/>
	
		<rect x="30.4" y="41.8" fill="none" stroke="#000000" stroke-width="0.5" stroke-linejoin="round" stroke-miterlimit="10" width="0.4" height="1.6"/>
	
		<rect x="30.8" y="41.8" fill="none" stroke="#000000" stroke-width="0.5" stroke-linejoin="round" stroke-miterlimit="10" width="0.4" height="1.6"/>
	
		<rect x="31.1" y="41.8" fill="none" stroke="#000000" stroke-width="0.5" stroke-linejoin="round" stroke-miterlimit="10" width="0.4" height="1.6"/>
	
		<rect x="31.5" y="41.8" fill="none" stroke="#000000" stroke-width="0.5" stroke-linejoin="round" stroke-miterlimit="10" width="0.4" height="1.6"/>
	
		<rect x="31.9" y="41.8" fill="none" stroke="#000000" stroke-width="0.5" stroke-linejoin="round" stroke-miterlimit="10" width="0.4" height="1.6"/>
	
		<rect x="32.3" y="41.8" fill="none" stroke="#000000" stroke-width="0.5" stroke-linejoin="round" stroke-miterlimit="10" width="0.4" height="1.6"/>
	
		<rect x="32.7" y="41.8" fill="none" stroke="#000000" stroke-width="0.5" stroke-linejoin="round" stroke-miterlimit="10" width="0.4" height="1.6"/>
	
		<rect x="33.1" y="41.8" fill="none" stroke="#000000" stroke-width="0.5" stroke-linejoin="round" stroke-miterlimit="10" width="0.4" height="1.6"/>
	
		<rect x="33.4" y="41.8" fill="none" stroke="#000000" stroke-width="0.5" stroke-linejoin="round" stroke-miterlimit="10" width="0.4" height="1.6"/>
	
		<rect x="33.8" y="41.8" fill="none" stroke="#000000" stroke-width="0.5" stroke-linejoin="round" stroke-miterlimit="10" width="0.4" height="1.6"/>
	
		<rect x="34.2" y="41.8" fill="none" stroke="#000000" stroke-width="0.5" stroke-linejoin="round" stroke-miterlimit="10" width="0.4" height="1.6"/>
	
		<rect x="34.6" y="41.8" fill="none" stroke="#000000" stroke-width="0.5" stroke-linejoin="round" stroke-miterlimit="10" width="0.4" height="1.6"/>
	
		<rect x="35" y="41.8" fill="none" stroke="#000000" stroke-width="0.5" stroke-linejoin="round" stroke-miterlimit="10" width="0.4" height="1.6"/>
	
		<rect x="35.4" y="41.8" fill="none" stroke="#000000" stroke-width="0.5" stroke-linejoin="round" stroke-miterlimit="10" width="0.4" height="1.6"/>
	
		<rect x="35.7" y="41.8" fill="none" stroke="#000000" stroke-width="0.5" stroke-linejoin="round" stroke-miterlimit="10" width="0.4" height="1.6"/>
	
		<rect x="36.1" y="41.8" fill="none" stroke="#000000" stroke-width="0.5" stroke-linejoin="round" stroke-miterlimit="10" width="0.4" height="1.6"/>
	
		<rect x="36.5" y="41.8" fill="none" stroke="#000000" stroke-width="0.5" stroke-linejoin="round" stroke-miterlimit="10" width="0.4" height="1.6"/>
	
		<rect x="36.9" y="41.8" fill="none" stroke="#000000" stroke-width="0.5" stroke-linejoin="round" stroke-miterlimit="10" width="0.4" height="1.6"/>
	
		<rect x="37.3" y="41.8" fill="none" stroke="#000000" stroke-width="0.5" stroke-linejoin="round" stroke-miterlimit="10" width="0.4" height="1.6"/>
	
		<rect x="37.6" y="41.8" fill="none" stroke="#000000" stroke-width="0.5" stroke-linejoin="round" stroke-miterlimit="10" width="0.4" height="1.6"/>
	
		<rect x="38" y="41.8" fill="none" stroke="#000000" stroke-width="0.5" stroke-linejoin="round" stroke-miterlimit="10" width="0.4" height="1.6"/>
	
		<rect x="38.4" y="41.8" fill="none" stroke="#000000" stroke-width="0.5" stroke-linejoin="round" stroke-miterlimit="10" width="0.4" height="1.6"/>
	
		<rect x="38.8" y="41.8" fill="none" stroke="#000000" stroke-width="0.5" stroke-linejoin="round" stroke-miterlimit="10" width="0.4" height="1.6"/>
	
		<rect x="39.2" y="41.8" fill="none" stroke="#000000" stroke-width="0.5" stroke-linejoin="round" stroke-miterlimit="10" width="0.4" height="1.6"/>
	
		<rect x="39.6" y="41.8" fill="none" stroke="#000000" stroke-width="0.5" stroke-linejoin="round" stroke-miterlimit="10" width="0.4" height="1.6"/>
	
		<rect x="39.9" y="41.8" fill="none" stroke="#000000" stroke-width="0.5" stroke-linejoin="round" stroke-miterlimit="10" width="0.4" height="1.6"/>
	
		<rect x="40.3" y="41.8" fill="none" stroke="#000000" stroke-width="0.5" stroke-linejoin="round" stroke-miterlimit="10" width="0.4" height="1.6"/>
	
		<rect x="40.7" y="41.8" fill="none" stroke="#000000" stroke-width="0.5" stroke-linejoin="round" stroke-miterlimit="10" width="0.4" height="1.6"/>
	
		<rect x="41.1" y="41.8" fill="none" stroke="#000000" stroke-width="0.5" stroke-linejoin="round" stroke-miterlimit="10" width="0.4" height="1.6"/>
	
		<rect x="41.5" y="41.8" fill="none" stroke="#000000" stroke-width="0.5" stroke-linejoin="round" stroke-miterlimit="10" width="0.4" height="1.6"/>
	
		<rect x="41.9" y="41.8" fill="none" stroke="#000000" stroke-width="0.5" stroke-linejoin="round" stroke-miterlimit="10" width="0.4" height="1.6"/>
	
		<rect x="42.2" y="41.8" fill="none" stroke="#000000" stroke-width="0.5" stroke-linejoin="round" stroke-miterlimit="10" width="0.4" height="1.6"/>
	
		<rect x="42.6" y="41.8" fill="none" stroke="#000000" stroke-width="0.5" stroke-linejoin="round" stroke-miterlimit="10" width="0.4" height="1.6"/>
	
		<rect x="43" y="41.8" fill="none" stroke="#000000" stroke-width="0.5" stroke-linejoin="round" stroke-miterlimit="10" width="0.4" height="1.6"/>
	
		<rect x="43.4" y="41.8" fill="none" stroke="#000000" stroke-width="0.5" stroke-linejoin="round" stroke-miterlimit="10" width="0.4" height="1.6"/>
	
		<rect x="43.8" y="41.8" fill="none" stroke="#000000" stroke-width="0.5" stroke-linejoin="round" stroke-miterlimit="10" width="0.3" height="1.6"/>
	
		<circle fill="none" stroke="#000000" stroke-width="0.5" stroke-linejoin="round" stroke-miterlimit="10" cx="31.4" cy="30.7" r="8.8"/>
	<path fill="none" stroke="#000000" stroke-width="0.5" stroke-linejoin="round" stroke-miterlimit="10" d="M31.6,27.7
		c-0.3-0.6-0.8-1.5-1.5-2.3c-0.8-0.9-1.5-1.5-2.1-1.9c0-0.1-0.1-0.2,0-0.4c0.1-0.2,0.2-0.2,0.7-0.3c0.9-0.2,1.1-0.2,1.2-0.1
		c0.2,0.1,0.4,0.2,0.5,0.3c1.2,1.3,1.8,2.5,1.8,2.5c0.3,0.6,0.8,1.6,1,2.8c-0.2-0.1-0.5-0.3-0.8-0.5C32.1,27.7,31.8,27.7,31.6,27.7z
		"/>
	
		<circle fill="none" stroke="#000000" stroke-width="0.5" stroke-linejoin="round" stroke-miterlimit="10" cx="31.4" cy="30.7" r="3"/>
	<path fill="none" stroke="#000000" stroke-width="0.5" stroke-linejoin="round" stroke-miterlimit="10" d="M29.6,28.2
		c-0.7-0.3-1.6-0.6-2.7-0.8c-1.1-0.2-2.1-0.2-2.8-0.1c-0.1-0.1-0.2-0.1-0.2-0.3c0-0.2,0.1-0.3,0.3-0.6c0.6-0.8,0.7-0.8,0.8-0.9
		c0.2-0.1,0.5-0.1,0.6-0.1c1.8,0.2,3,0.8,3,0.8c0.6,0.3,1.7,0.7,2.6,1.5c-0.2,0-0.6,0.1-0.9,0.2C30,28,29.8,28.1,29.6,28.2z"/>
	<path fill="none" stroke="#000000" stroke-width="0.5" stroke-linejoin="round" stroke-miterlimit="10" d="M28.5,29.9
		c-0.7,0.2-1.6,0.5-2.6,1.1c-1,0.6-1.7,1.2-2.2,1.8c-0.1,0-0.3,0-0.4-0.1c-0.1-0.1-0.2-0.3-0.2-0.7c0-0.9,0-1.1,0.1-1.2
		c0.1-0.2,0.3-0.4,0.4-0.4c1.5-1,2.8-1.3,2.8-1.3c0.7-0.2,1.7-0.5,3-0.5c-0.1,0.1-0.4,0.4-0.6,0.7C28.6,29.5,28.5,29.7,28.5,29.9z"
		/>
	<path fill="none" stroke="#000000" stroke-width="0.5" stroke-linejoin="round" stroke-miterlimit="10" d="M28.7,32
		c-0.4,0.6-0.9,1.4-1.2,2.5c-0.4,1.1-0.5,2.1-0.6,2.8c-0.1,0.1-0.2,0.2-0.3,0.2c-0.2,0-0.3-0.1-0.6-0.4c-0.6-0.7-0.7-0.8-0.7-1
		c-0.1-0.3,0-0.5,0-0.6c0.5-1.7,1.3-2.8,1.3-2.8c0.4-0.6,1-1.5,1.9-2.3c0,0.2,0,0.6,0,0.9C28.5,31.6,28.6,31.8,28.7,32z"/>
	<path fill="none" stroke="#000000" stroke-width="0.5" stroke-linejoin="round" stroke-miterlimit="10" d="M30.1,33.5
		c0.1,0.7,0.3,1.7,0.7,2.7c0.4,1.1,0.9,1.9,1.3,2.5c0,0.1,0,0.3-0.1,0.4c-0.1,0.1-0.3,0.1-0.7,0c-0.9-0.1-1.1-0.2-1.2-0.3
		c-0.2-0.2-0.3-0.4-0.4-0.5c-0.7-1.6-0.8-3-0.8-3c-0.1-0.7-0.2-1.8,0-3c0.1,0.2,0.4,0.5,0.6,0.7C29.7,33.2,29.9,33.4,30.1,33.5z"/>
	<path fill="none" stroke="#000000" stroke-width="0.5" stroke-linejoin="round" stroke-miterlimit="10" d="M32.2,33.6
		c0.5,0.5,1.3,1.1,2.2,1.7c1,0.6,1.9,0.9,2.6,1c0.1,0.1,0.1,0.2,0.1,0.4c0,0.2-0.2,0.3-0.5,0.5c-0.8,0.5-0.9,0.5-1.1,0.5
		c-0.3,0-0.5-0.1-0.6-0.2c-1.6-0.8-2.5-1.7-2.5-1.7c-0.5-0.5-1.3-1.3-1.9-2.3c0.2,0.1,0.6,0.1,0.9,0.2C31.7,33.7,32,33.7,32.2,33.6z
		"/>
	<path fill="none" stroke="#000000" stroke-width="0.5" stroke-linejoin="round" stroke-miterlimit="10" d="M33.9,32.4
		c0.7,0,1.7,0,2.8-0.2c1.1-0.2,2-0.6,2.7-0.9c0.1,0,0.2,0.1,0.3,0.2c0.1,0.1,0.1,0.3-0.1,0.7c-0.3,0.9-0.4,1-0.5,1.1
		c-0.2,0.2-0.4,0.2-0.6,0.3c-1.7,0.4-3.1,0.3-3.1,0.3c-0.7-0.1-1.8-0.1-3-0.5c0.2-0.1,0.5-0.3,0.8-0.4
		C33.6,32.8,33.8,32.6,33.9,32.4z"/>
	<path fill="none" stroke="#000000" stroke-width="0.5" stroke-linejoin="round" stroke-miterlimit="10" d="M34.4,30.4
		c0.6-0.4,1.3-1.1,2-1.9c0.7-0.9,1.2-1.8,1.5-2.4c0.1,0,0.2-0.1,0.4-0.1c0.2,0,0.2,0.2,0.4,0.6c0.4,0.9,0.4,1,0.3,1.1
		c0,0.3-0.2,0.4-0.3,0.6c-1.1,1.4-2.1,2.2-2.1,2.2c-0.6,0.4-1.5,1.1-2.6,1.5c0.1-0.2,0.2-0.5,0.3-0.8C34.4,30.9,34.4,30.6,34.4,30.4
		z"/>
	<path fill="none" stroke="#000000" stroke-width="0.5" stroke-linejoin="round" stroke-miterlimit="10" d="M33.5,28.6
		c0.2-0.7,0.3-1.7,0.3-2.8c0-1.2-0.2-2.1-0.4-2.8c0-0.1,0.1-0.2,0.2-0.3c0.2-0.1,0.3,0,0.7,0.2c0.8,0.4,0.9,0.5,1,0.6
		c0.1,0.2,0.2,0.4,0.2,0.6c0.1,1.8-0.2,3.1-0.2,3.1c-0.2,0.7-0.4,1.8-1,2.8c0-0.2-0.2-0.6-0.3-0.8C33.8,28.9,33.7,28.7,33.5,28.6z"
		/>
	<g>
		
			<circle fill="none" stroke="#000000" stroke-width="0.5" stroke-linejoin="round" stroke-miterlimit="10" cx="52.8" cy="30.7" r="8.8"/>
		<path fill="none" stroke="#000000" stroke-width="0.5" stroke-linejoin="round" stroke-miterlimit="10" d="M53,27.7
			c-0.3-0.6-0.8-1.5-1.5-2.3c-0.8-0.9-1.5-1.5-2.1-1.9c0-0.1-0.1-0.2,0-0.4c0.1-0.2,0.2-0.2,0.7-0.3c0.9-0.2,1.1-0.2,1.2-0.1
			c0.2,0.1,0.4,0.2,0.5,0.3c1.2,1.3,1.8,2.5,1.8,2.5c0.3,0.6,0.8,1.6,1,2.8c-0.2-0.1-0.5-0.3-0.8-0.5C53.5,27.7,53.2,27.7,53,27.7z"
			/>
		
			<circle fill="none" stroke="#000000" stroke-width="0.5" stroke-linejoin="round" stroke-miterlimit="10" cx="52.8" cy="30.7" r="3"/>
		<path fill="none" stroke="#000000" stroke-width="0.5" stroke-linejoin="round" stroke-miterlimit="10" d="M51,28.2
			c-0.7-0.3-1.6-0.6-2.7-0.8c-1.1-0.2-2.1-0.2-2.8-0.1c-0.1-0.1-0.2-0.1-0.2-0.3c0-0.2,0.1-0.3,0.3-0.6c0.6-0.8,0.7-0.8,0.8-0.9
			c0.2-0.1,0.5-0.1,0.6-0.1c1.8,0.2,3,0.8,3,0.8c0.6,0.3,1.7,0.7,2.6,1.5c-0.2,0-0.6,0.1-0.9,0.2C51.4,28,51.2,28.1,51,28.2z"/>
		<path fill="none" stroke="#000000" stroke-width="0.5" stroke-linejoin="round" stroke-miterlimit="10" d="M49.9,29.9
			c-0.7,0.2-1.6,0.5-2.6,1.1c-1,0.6-1.7,1.2-2.2,1.8c-0.1,0-0.3,0-0.4-0.1c-0.1-0.1-0.2-0.3-0.2-0.7c0-0.9,0-1.1,0.1-1.2
			c0.1-0.2,0.3-0.4,0.4-0.4c1.5-1,2.8-1.3,2.8-1.3c0.7-0.2,1.7-0.5,3-0.5c-0.1,0.1-0.4,0.4-0.6,0.7C50,29.5,49.9,29.7,49.9,29.9z"/>
		<path fill="none" stroke="#000000" stroke-width="0.5" stroke-linejoin="round" stroke-miterlimit="10" d="M50.1,32
			c-0.4,0.6-0.9,1.4-1.2,2.5c-0.4,1.1-0.5,2.1-0.6,2.8c-0.1,0.1-0.2,0.2-0.3,0.2c-0.2,0-0.3-0.1-0.6-0.4c-0.6-0.7-0.7-0.8-0.7-1
			c-0.1-0.3,0-0.5,0-0.6c0.5-1.7,1.3-2.8,1.3-2.8c0.4-0.6,1-1.5,1.9-2.3c0,0.2,0,0.6,0,0.9C49.9,31.6,50,31.8,50.1,32z"/>
		<path fill="none" stroke="#000000" stroke-width="0.5" stroke-linejoin="round" stroke-miterlimit="10" d="M51.5,33.5
			c0.1,0.7,0.3,1.7,0.7,2.7c0.4,1.1,0.9,1.9,1.3,2.5c0,0.1,0,0.3-0.1,0.4c-0.1,0.1-0.3,0.1-0.7,0c-0.9-0.1-1.1-0.2-1.2-0.3
			c-0.2-0.2-0.3-0.4-0.4-0.5c-0.7-1.6-0.8-3-0.8-3c-0.1-0.7-0.2-1.8,0-3c0.1,0.2,0.4,0.5,0.6,0.7C51.1,33.2,51.4,33.4,51.5,33.5z"/>
		<path fill="none" stroke="#000000" stroke-width="0.5" stroke-linejoin="round" stroke-miterlimit="10" d="M53.6,33.6
			c0.5,0.5,1.3,1.1,2.2,1.7c1,0.6,1.9,0.9,2.6,1c0.1,0.1,0.1,0.2,0.1,0.4c0,0.2-0.2,0.3-0.5,0.5c-0.8,0.5-0.9,0.5-1.1,0.5
			c-0.3,0-0.5-0.1-0.6-0.2c-1.6-0.8-2.5-1.7-2.5-1.7c-0.5-0.5-1.3-1.3-1.9-2.3c0.2,0.1,0.6,0.1,0.9,0.2
			C53.2,33.7,53.4,33.7,53.6,33.6z"/>
		<path fill="none" stroke="#000000" stroke-width="0.5" stroke-linejoin="round" stroke-miterlimit="10" d="M55.3,32.4
			c0.7,0,1.7,0,2.8-0.2c1.1-0.2,2-0.6,2.7-0.9c0.1,0,0.2,0.1,0.3,0.2c0.1,0.1,0.1,0.3-0.1,0.7c-0.3,0.9-0.4,1-0.5,1.1
			c-0.2,0.2-0.4,0.2-0.6,0.3c-1.7,0.4-3.1,0.3-3.1,0.3c-0.7-0.1-1.8-0.1-3-0.5c0.2-0.1,0.5-0.3,0.8-0.4C55,32.8,55.2,32.6,55.3,32.4
			z"/>
		<path fill="none" stroke="#000000" stroke-width="0.5" stroke-linejoin="round" stroke-miterlimit="10" d="M55.8,30.4
			c0.6-0.4,1.3-1.1,2-1.9c0.7-0.9,1.2-1.8,1.5-2.4c0.1,0,0.2-0.1,0.4-0.1c0.2,0,0.2,0.2,0.4,0.6c0.4,0.9,0.4,1,0.3,1.1
			c0,0.3-0.2,0.4-0.3,0.6c-1.1,1.4-2.1,2.2-2.1,2.2c-0.6,0.4-1.5,1.1-2.6,1.5c0.1-0.2,0.2-0.5,0.3-0.8
			C55.8,30.9,55.8,30.6,55.8,30.4z"/>
		<path fill="none" stroke="#000000" stroke-width="0.5" stroke-linejoin="round" stroke-miterlimit="10" d="M54.9,28.6
			c0.2-0.7,0.3-1.7,0.3-2.8c0-1.2-0.2-2.1-0.4-2.8c0-0.1,0.1-0.2,0.2-0.3c0.2-0.1,0.3,0,0.7,0.2c0.8,0.4,0.9,0.5,1,0.6
			c0.1,0.2,0.2,0.4,0.2,0.6c0.1,1.8-0.2,3.1-0.2,3.1c-0.2,0.7-0.4,1.8-1,2.8c0-0.2-0.2-0.6-0.3-0.8C55.3,28.9,55.1,28.7,54.9,28.6z"
			/>
	</g>
</g>
</svg>
