<?xml version="1.0" encoding="utf-8"?>
<!-- Generator: Adobe Illustrator 18.1.1, SVG Export Plug-In . SVG Version: 6.00 Build 0)  -->
<svg version="1.1" id="Layer_1" xmlns="http://www.w3.org/2000/svg" xmlns:xlink="http://www.w3.org/1999/xlink" x="0px" y="0px"
	 viewBox="0 0 80 66" enable-background="new 0 0 80 66" xml:space="preserve">
<symbol  id="Music" viewBox="-31 -30.3 61.9 60.6">
	<path d="M30.9-16L30.9-16l0.1,46.1l0,0.2l0,0v0l0,0l-44.9-6l0,0v-36.5c-1.8,0.6-3.8,0.8-5.9,0.6c-6.6-0.6-11.5-5.3-11-10.5
		c0.5-5.2,6.3-8.8,12.8-8.2c6.6,0.6,11.5,5.3,11,10.5c0,0.1,0,0.2,0,0.3H-7v31.6l30.9,4.5V-8.7c-1.8,0.6-3.8,0.8-5.9,0.6
		C11.5-8.7,6.5-13.4,7-18.6c0.5-5.2,6.3-8.8,12.8-8.2c6.6,0.6,11.5,5.3,11,10.5C30.9-16.2,30.9-16.1,30.9-16z"/>
</symbol>
<rect fill="none" width="80" height="66"/>
<g>
	<g>
		<g id="XMLID_3_">
			<polygon fill="#FFFFFF" stroke="#000000" stroke-miterlimit="10" points="18.1,23.5 17.5,23.5 17.5,26.5 18.1,26.5 22.5,26.5 
				22.5,23.5 			"/>
			<polygon fill="#FFFFFF" stroke="#000000" stroke-miterlimit="10" points="18.1,29.5 17.5,29.5 17.5,33.5 18.1,33.5 22.5,33.5 
				22.5,29.5 			"/>
			<polygon fill="#FFFFFF" stroke="#000000" stroke-miterlimit="10" points="18.1,35.5 17.5,35.5 17.5,39.5 18.1,39.5 22.5,39.5 
				22.5,35.5 			"/>
			<polygon fill="#FFFFFF" stroke="#000000" stroke-miterlimit="10" points="18.1,42.5 17.5,42.5 17.5,46.5 18.1,46.5 22.5,46.5 
				22.5,42.5 			"/>
			<path fill="#FFFFFF" stroke="#000000" stroke-miterlimit="10" d="M31.6,48.5C31.6,48.5,31.6,48.5,31.6,48.5
				C31.3,48.5,31.5,48.5,31.6,48.5c-0.1,0.7-0.1,1.5-0.1,2.1c-1,0-1.9,0.2-2.7,0.1c0-0.5-0.2-2.3-0.2-2.3H18.5v-2h4v-4h-4v-3h4v-4
				h-4v-2h4v-4h-4v-3h4v-3h-4v-3h44v28h-24v4l0,0v-3h-0.9H37h-0.5h-1v2.1c0-0.6,0.2-1.2,0.2-1.8c0-0.2,0.1-0.3-0.1-0.3
				c-0.2,0-0.1,0.2-0.1,0.3c0,0.8,0,1.7,0,2.7h-1v-3h-0.3h-0.5h-0.5h-0.5h-0.5c0,0,0-0.6,0-0.9C32,48.4,31.8,48.5,31.6,48.5z"/>
			<path fill="none" stroke="#000000" stroke-width="0.5" stroke-miterlimit="10" d="M32,51.7V52c0,0,0,0,0,0S32,51.9,32,51.7z"/>
			<path fill="none" stroke="#000000" stroke-width="0.5" stroke-miterlimit="10" d="M32,49.7L32,49.7c0,0.7,0,1.5,0,1.9V49.7z"/>
			<path fill="none" stroke="#000000" stroke-miterlimit="10" d="M32.5,49.5v3l0,0v-0.8c0-0.5-0.5-1.2-0.4-2.2H32.5z"/>
			<path fill="none" stroke="#000000" stroke-miterlimit="10" d="M33.5,49.5v3c-1,0-1,0-1,0v-3H33.5z"/>
			<rect x="33.5" y="49.5" fill="none" stroke="#000000" stroke-miterlimit="10" width="0" height="3"/>
			<rect x="33.5" y="49.5" fill="none" stroke="#000000" stroke-miterlimit="10" width="1" height="3"/>
			<rect x="34.5" y="49.5" fill="none" stroke="#000000" stroke-miterlimit="10" width="0" height="3"/>
			<path fill="none" stroke="#000000" stroke-width="0.5" stroke-miterlimit="10" d="M35.9,51.6V52h0C35.9,51.9,35.9,51.7,35.9,51.6
				z"/>
			<path fill="none" stroke="#000000" stroke-miterlimit="10" d="M36.5,49.5v3c0,0,0,0-1,0v-0.9v-2.1H36.5z"/>
			<path fill="none" stroke="#000000" stroke-miterlimit="10" d="M37.5,49.5v3c-1,0-1,0-1,0v-3H37.5z"/>
			<rect x="37.5" y="49.5" fill="none" stroke="#000000" stroke-miterlimit="10" width="0" height="3"/>
			<path fill="none" stroke="#000000" stroke-miterlimit="10" d="M38.5,49.5v3c-1,0-1,0-1,0v-3H38.5z"/>
			<line fill="none" stroke="#000000" stroke-miterlimit="10" x1="38.5" y1="48" x2="38.5" y2="48"/>
			<line fill="none" stroke="#000000" stroke-miterlimit="10" x1="28.5" y1="48" x2="28.5" y2="48"/>
		</g>
		<rect x="17.3" y="43.3" fill="#FFFFFF" stroke="#000000" stroke-width="0.5" stroke-miterlimit="10" width="0.4" height="1.9"/>
		<line fill="#FFFFFF" stroke="#000000" stroke-width="0.5" stroke-miterlimit="10" x1="13.8" y1="20.8" x2="17.6" y2="20.8"/>
		<line fill="#FFFFFF" stroke="#000000" stroke-width="0.5" stroke-miterlimit="10" x1="17.6" y1="20.8" x2="17.6" y2="56.8"/>
		<rect x="34.7" y="49.7" fill="#FFFFFF" stroke="#000000" stroke-width="0.5" stroke-miterlimit="10" width="0.5" height="2.3"/>
		<g>
			<rect x="17.3" y="24.1" fill="#FFFFFF" stroke="#000000" stroke-width="0.5" stroke-miterlimit="10" width="0.4" height="1.9"/>
		</g>
		<g>
			<rect x="17.3" y="30.5" fill="#FFFFFF" stroke="#000000" stroke-width="0.5" stroke-miterlimit="10" width="0.4" height="1.9"/>
		</g>
		<g>
			<rect x="17.3" y="36.9" fill="#FFFFFF" stroke="#000000" stroke-width="0.5" stroke-miterlimit="10" width="0.4" height="1.9"/>
		</g>
		<circle fill="#FFFFFF" stroke="#000000" stroke-width="0.5" stroke-miterlimit="10" cx="25.9" cy="27.6" r="1.2"/>
		<circle fill="#FFFFFF" stroke="#000000" stroke-width="0.5" stroke-miterlimit="10" cx="33.2" cy="25.9" r="1.2"/>
		<circle fill="#FFFFFF" stroke="#000000" stroke-width="0.5" stroke-miterlimit="10" cx="44.9" cy="25.9" r="1.2"/>
		<circle fill="#FFFFFF" stroke="#000000" stroke-width="0.5" stroke-miterlimit="10" cx="57.7" cy="37.4" r="1.2"/>
		<circle fill="#FFFFFF" stroke="#000000" stroke-width="0.5" stroke-miterlimit="10" cx="29" cy="42.9" r="0.8"/>
		<circle fill="#FFFFFF" stroke="#000000" stroke-width="0.5" stroke-miterlimit="10" cx="41.7" cy="44.5" r="0.8"/>
		<circle fill="#FFFFFF" stroke="#000000" stroke-width="0.5" stroke-miterlimit="10" cx="29" cy="40.5" r="0.8"/>
		<circle fill="#FFFFFF" stroke="#000000" stroke-width="0.5" stroke-miterlimit="10" cx="48.1" cy="44.5" r="0.8"/>
		<circle fill="#FFFFFF" stroke="#000000" stroke-width="0.5" stroke-miterlimit="10" cx="25.9" cy="32.4" r="1.3"/>
		<circle fill="#FFFFFF" stroke="#000000" stroke-width="0.5" stroke-miterlimit="10" cx="57.6" cy="33.9" r="1.3"/>
		<circle fill="#FFFFFF" stroke="#000000" stroke-width="0.5" stroke-miterlimit="10" cx="52.8" cy="33.2" r="0.8"/>
		<g>
			<rect x="34.9" y="30" fill="#FFFFFF" stroke="#000000" stroke-width="0.5" stroke-miterlimit="10" width="11.1" height="10.3"/>
			<g>
				<line fill="#FFFFFF" stroke="#000000" stroke-width="0.5" stroke-miterlimit="10" x1="36" y1="30" x2="36" y2="29.2"/>
				<line fill="#FFFFFF" stroke="#000000" stroke-width="0.5" stroke-miterlimit="10" x1="36.9" y1="30" x2="36.9" y2="29.2"/>
				<line fill="#FFFFFF" stroke="#000000" stroke-width="0.5" stroke-miterlimit="10" x1="37.8" y1="30" x2="37.8" y2="29.2"/>
				<line fill="#FFFFFF" stroke="#000000" stroke-width="0.5" stroke-miterlimit="10" x1="38.8" y1="30" x2="38.8" y2="29.2"/>
				<line fill="#FFFFFF" stroke="#000000" stroke-width="0.5" stroke-miterlimit="10" x1="39.7" y1="30" x2="39.7" y2="29.2"/>
				<line fill="#FFFFFF" stroke="#000000" stroke-width="0.5" stroke-miterlimit="10" x1="40.6" y1="30" x2="40.6" y2="29.2"/>
				<line fill="#FFFFFF" stroke="#000000" stroke-width="0.5" stroke-miterlimit="10" x1="41.5" y1="30" x2="41.5" y2="29.2"/>
				<line fill="#FFFFFF" stroke="#000000" stroke-width="0.5" stroke-miterlimit="10" x1="42.4" y1="30" x2="42.4" y2="29.2"/>
				<line fill="#FFFFFF" stroke="#000000" stroke-width="0.5" stroke-miterlimit="10" x1="43.3" y1="30" x2="43.3" y2="29.2"/>
				<line fill="#FFFFFF" stroke="#000000" stroke-width="0.5" stroke-miterlimit="10" x1="44.2" y1="30" x2="44.2" y2="29.2"/>
				<line fill="#FFFFFF" stroke="#000000" stroke-width="0.5" stroke-miterlimit="10" x1="45.1" y1="30" x2="45.1" y2="29.2"/>
			</g>
			<g>
				<line fill="#FFFFFF" stroke="#000000" stroke-width="0.5" stroke-miterlimit="10" x1="36" y1="41.1" x2="36" y2="40.3"/>
				<line fill="#FFFFFF" stroke="#000000" stroke-width="0.5" stroke-miterlimit="10" x1="36.9" y1="41.1" x2="36.9" y2="40.3"/>
				<line fill="#FFFFFF" stroke="#000000" stroke-width="0.5" stroke-miterlimit="10" x1="37.8" y1="41.1" x2="37.8" y2="40.3"/>
				<line fill="#FFFFFF" stroke="#000000" stroke-width="0.5" stroke-miterlimit="10" x1="38.8" y1="41.1" x2="38.8" y2="40.3"/>
				<line fill="#FFFFFF" stroke="#000000" stroke-width="0.5" stroke-miterlimit="10" x1="39.7" y1="41.1" x2="39.7" y2="40.3"/>
				<line fill="#FFFFFF" stroke="#000000" stroke-width="0.5" stroke-miterlimit="10" x1="40.6" y1="41.1" x2="40.6" y2="40.3"/>
				<line fill="#FFFFFF" stroke="#000000" stroke-width="0.5" stroke-miterlimit="10" x1="41.5" y1="41.1" x2="41.5" y2="40.3"/>
				<line fill="#FFFFFF" stroke="#000000" stroke-width="0.5" stroke-miterlimit="10" x1="42.4" y1="41.1" x2="42.4" y2="40.3"/>
				<line fill="#FFFFFF" stroke="#000000" stroke-width="0.5" stroke-miterlimit="10" x1="43.3" y1="41.1" x2="43.3" y2="40.3"/>
				<line fill="#FFFFFF" stroke="#000000" stroke-width="0.5" stroke-miterlimit="10" x1="44.2" y1="41.1" x2="44.2" y2="40.3"/>
				<line fill="#FFFFFF" stroke="#000000" stroke-width="0.5" stroke-miterlimit="10" x1="45.1" y1="41.1" x2="45.1" y2="40.3"/>
			</g>
			<g>
				<line fill="#FFFFFF" stroke="#000000" stroke-width="0.5" stroke-miterlimit="10" x1="46.1" y1="30.6" x2="46.9" y2="30.6"/>
				<line fill="#FFFFFF" stroke="#000000" stroke-width="0.5" stroke-miterlimit="10" x1="46.1" y1="31.5" x2="46.9" y2="31.5"/>
				<line fill="#FFFFFF" stroke="#000000" stroke-width="0.5" stroke-miterlimit="10" x1="46.1" y1="32.4" x2="46.9" y2="32.4"/>
				<line fill="#FFFFFF" stroke="#000000" stroke-width="0.5" stroke-miterlimit="10" x1="46.1" y1="33.3" x2="46.9" y2="33.3"/>
				<line fill="#FFFFFF" stroke="#000000" stroke-width="0.5" stroke-miterlimit="10" x1="46.1" y1="34.2" x2="46.9" y2="34.2"/>
				<line fill="#FFFFFF" stroke="#000000" stroke-width="0.5" stroke-miterlimit="10" x1="46.1" y1="35.1" x2="46.9" y2="35.1"/>
				<line fill="#FFFFFF" stroke="#000000" stroke-width="0.5" stroke-miterlimit="10" x1="46.1" y1="36" x2="46.9" y2="36"/>
				<line fill="#FFFFFF" stroke="#000000" stroke-width="0.5" stroke-miterlimit="10" x1="46.1" y1="36.9" x2="46.9" y2="36.9"/>
				<line fill="#FFFFFF" stroke="#000000" stroke-width="0.5" stroke-miterlimit="10" x1="46.1" y1="37.8" x2="46.9" y2="37.8"/>
				<line fill="#FFFFFF" stroke="#000000" stroke-width="0.5" stroke-miterlimit="10" x1="46.1" y1="38.7" x2="46.9" y2="38.7"/>
				<line fill="#FFFFFF" stroke="#000000" stroke-width="0.5" stroke-miterlimit="10" x1="46.1" y1="39.7" x2="46.9" y2="39.7"/>
			</g>
			<g>
				<line fill="#FFFFFF" stroke="#000000" stroke-width="0.5" stroke-miterlimit="10" x1="34.2" y1="30.6" x2="35" y2="30.6"/>
				<line fill="#FFFFFF" stroke="#000000" stroke-width="0.5" stroke-miterlimit="10" x1="34.2" y1="31.5" x2="35" y2="31.5"/>
				<line fill="#FFFFFF" stroke="#000000" stroke-width="0.5" stroke-miterlimit="10" x1="34.2" y1="32.4" x2="35" y2="32.4"/>
				<line fill="#FFFFFF" stroke="#000000" stroke-width="0.5" stroke-miterlimit="10" x1="34.2" y1="33.3" x2="35" y2="33.3"/>
				<line fill="#FFFFFF" stroke="#000000" stroke-width="0.5" stroke-miterlimit="10" x1="34.2" y1="34.2" x2="35" y2="34.2"/>
				<line fill="#FFFFFF" stroke="#000000" stroke-width="0.5" stroke-miterlimit="10" x1="34.2" y1="35.1" x2="35" y2="35.1"/>
				<line fill="#FFFFFF" stroke="#000000" stroke-width="0.5" stroke-miterlimit="10" x1="34.2" y1="36" x2="35" y2="36"/>
				<line fill="#FFFFFF" stroke="#000000" stroke-width="0.5" stroke-miterlimit="10" x1="34.2" y1="36.9" x2="35" y2="36.9"/>
				<line fill="#FFFFFF" stroke="#000000" stroke-width="0.5" stroke-miterlimit="10" x1="34.2" y1="37.8" x2="35" y2="37.8"/>
				<line fill="#FFFFFF" stroke="#000000" stroke-width="0.5" stroke-miterlimit="10" x1="34.2" y1="38.7" x2="35" y2="38.7"/>
				<line fill="#FFFFFF" stroke="#000000" stroke-width="0.5" stroke-miterlimit="10" x1="34.2" y1="39.7" x2="35" y2="39.7"/>
			</g>
		</g>
		<rect x="28.6" y="49" fill="#FFFFFF" stroke="#000000" stroke-width="0.5" stroke-miterlimit="10" width="2.5" height="1.7"/>
		
			<line fill="none" stroke="#808080" stroke-width="0.25" stroke-linejoin="bevel" stroke-miterlimit="10" x1="29" y1="28.4" x2="29" y2="39.6"/>
		<line fill="none" stroke="#808080" stroke-width="0.25" stroke-miterlimit="10" x1="29" y1="41.3" x2="29" y2="42.1"/>
		
			<line fill="none" stroke="#808080" stroke-width="0.25" stroke-linejoin="bevel" stroke-miterlimit="10" x1="29.9" y1="42.9" x2="42.1" y2="42.9"/>
		
			<line fill="none" stroke="#808080" stroke-width="0.25" stroke-linejoin="bevel" stroke-miterlimit="10" x1="42.1" y1="42.9" x2="42.1" y2="43.8"/>
		<rect x="51.3" y="24.8" fill="#808080" stroke="#000000" stroke-width="0.25" stroke-miterlimit="10" width="4.4" height="4.4"/>
		
			<line fill="none" stroke="#808080" stroke-width="0.25" stroke-linejoin="bevel" stroke-miterlimit="10" x1="27.1" y1="27.6" x2="51.3" y2="27.6"/>
		
			<line fill="none" stroke="#808080" stroke-width="0.25" stroke-linejoin="bevel" stroke-miterlimit="10" x1="29" y1="28.4" x2="51.3" y2="28.4"/>
		
			<line fill="none" stroke="#808080" stroke-width="0.25" stroke-linejoin="bevel" stroke-miterlimit="10" x1="53.6" y1="24.8" x2="53.6" y2="23.4"/>
		
			<line fill="none" stroke="#808080" stroke-width="0.25" stroke-linejoin="bevel" stroke-miterlimit="10" x1="53.6" y1="23.4" x2="23.7" y2="23.4"/>
		
			<line fill="none" stroke="#000000" stroke-width="0.25" stroke-linejoin="bevel" stroke-miterlimit="10" x1="23.7" y1="23.4" x2="23.7" y2="32.5"/>
		
			<line fill="none" stroke="#808080" stroke-width="0.25" stroke-linejoin="bevel" stroke-miterlimit="10" x1="23.7" y1="32.5" x2="24.6" y2="32.5"/>
		
			<line fill="none" stroke="#808080" stroke-width="0.25" stroke-linejoin="bevel" stroke-miterlimit="10" x1="51.3" y1="26" x2="46.1" y2="26"/>
		
			<line fill="none" stroke="#808080" stroke-width="0.25" stroke-linejoin="bevel" stroke-miterlimit="10" x1="52" y1="24.8" x2="52" y2="24.1"/>
		
			<line fill="none" stroke="#808080" stroke-width="0.25" stroke-linejoin="bevel" stroke-miterlimit="10" x1="52" y1="24.1" x2="33.2" y2="24.1"/>
		
			<line fill="none" stroke="#808080" stroke-width="0.25" stroke-linejoin="bevel" stroke-miterlimit="10" x1="33.2" y1="24.1" x2="33.2" y2="24.8"/>
		
			<line fill="none" stroke="#808080" stroke-width="0.25" stroke-linejoin="bevel" stroke-miterlimit="10" x1="52.8" y1="29.2" x2="52.8" y2="32.4"/>
		
			<line fill="none" stroke="#808080" stroke-width="0.25" stroke-linejoin="bevel" stroke-miterlimit="10" x1="51.7" y1="29.2" x2="51.7" y2="31.1"/>
		
			<line fill="none" stroke="#808080" stroke-width="0.25" stroke-linejoin="bevel" stroke-miterlimit="10" x1="51.7" y1="31.1" x2="50" y2="31.1"/>
		
			<line fill="none" stroke="#808080" stroke-width="0.25" stroke-linejoin="bevel" stroke-miterlimit="10" x1="50" y1="31.1" x2="50" y2="44.3"/>
		
			<line fill="none" stroke="#808080" stroke-width="0.25" stroke-linejoin="bevel" stroke-miterlimit="10" x1="50" y1="44.3" x2="48.9" y2="44.3"/>
		
			<line fill="none" stroke="#808080" stroke-width="0.25" stroke-linejoin="bevel" stroke-miterlimit="10" x1="54.7" y1="29.2" x2="54.7" y2="34.2"/>
		
			<line fill="none" stroke="#808080" stroke-width="0.25" stroke-linejoin="bevel" stroke-miterlimit="10" x1="54.7" y1="34.2" x2="56.5" y2="34.2"/>
		
			<line fill="none" stroke="#808080" stroke-width="0.25" stroke-linejoin="bevel" stroke-miterlimit="10" x1="55.7" y1="27" x2="60.5" y2="27"/>
		
			<line fill="none" stroke="#808080" stroke-width="0.25" stroke-linejoin="bevel" stroke-miterlimit="10" x1="60.5" y1="27" x2="60.5" y2="37.4"/>
		
			<line fill="none" stroke="#808080" stroke-width="0.25" stroke-linejoin="bevel" stroke-miterlimit="10" x1="60.5" y1="37.4" x2="58.8" y2="37.4"/>
	</g>
	
		<use xlink:href="#Music"  width="61.9" height="60.6" x="-31" y="-30.3" transform="matrix(0.4116 0 0 -0.4116 53.4934 22.949)" overflow="visible" opacity="0.58"/>
</g>
</svg>
