<?xml version="1.0" encoding="utf-8"?>
<!-- Generator: Adobe Illustrator 18.1.1, SVG Export Plug-In . SVG Version: 6.00 Build 0)  -->
<svg version="1.1" id="Layer_1" xmlns="http://www.w3.org/2000/svg" xmlns:xlink="http://www.w3.org/1999/xlink" x="0px" y="0px"
	 viewBox="0 0 80 66" enable-background="new 0 0 80 66" xml:space="preserve">
<rect fill="none" width="80" height="66"/>
<g>
	
		<rect x="13.2" y="19.8" fill="none" stroke="#000000" stroke-width="0.5" stroke-linejoin="round" stroke-miterlimit="10" width="57.3" height="20.5"/>
	
		<rect x="11.3" y="33.5" fill="none" stroke="#000000" stroke-width="0.5" stroke-linejoin="round" stroke-miterlimit="10" width="1.9" height="5"/>
	
		<rect x="11.5" y="31.9" fill="none" stroke="#000000" stroke-width="0.5" stroke-linejoin="round" stroke-miterlimit="10" width="1.7" height="1.2"/>
	
		<rect x="11.5" y="39" fill="none" stroke="#000000" stroke-width="0.5" stroke-linejoin="round" stroke-miterlimit="10" width="1.7" height="1.2"/>
	
		<line fill="none" stroke="#000000" stroke-width="0.5" stroke-linejoin="round" stroke-miterlimit="10" x1="10" y1="20.4" x2="12.8" y2="20.4"/>
	
		<line fill="none" stroke="#000000" stroke-width="0.5" stroke-linejoin="round" stroke-miterlimit="10" x1="12.8" y1="20.4" x2="12.8" y2="46.5"/>
	
		<rect x="13.2" y="40.3" fill="none" stroke="#000000" stroke-width="0.5" stroke-linejoin="round" stroke-miterlimit="10" width="3.8" height="1.8"/>
	<path fill="none" stroke="#000000" stroke-linejoin="round" stroke-miterlimit="10" d="M20.8,40.3c0,0,0,1.4,0,1.8
		c0.6,0,0.7,0,1.7,0c0-0.5,0-1,0-1.5l0,0c0,0,0.2-0.2,0.3-0.2c0.1,0,0.3,0.1,0.4,0.2c0,0.8-0.1,2.5-0.1,2.5s1.3,0,2.3,0
		c0-0.6,0-1.1,0-1.7c0-0.1,0.1-0.2,0.3-0.2c0.2,0,0.3,0.1,0.3,0.2c0,0.6,0,1.1,0,1.7c5,0,9.9,0,14.9,0c0-0.6,0-1.2,0-1.7
		c0-0.1,0.2-0.2,0.3-0.2c0.1,0,0.3,0.1,0.3,0.2c0,0.4,0,0.7,0,1.1c0.8,0,1.7,0,2.5,0c0.1-0.2,0.4-0.4,0.4-0.5c0-0.2,0-0.3,0-0.5
		c0,0-0.9,0-1.1,0c-0.1,0-0.2-0.1-0.2-0.1c0,0-0.1,0-0.1-0.1c0-0.2,0-0.4,0-0.6c0.1-0.1,0.3-0.3,0.3-0.3"/>
	
		<circle fill="none" stroke="#000000" stroke-width="0.5" stroke-linejoin="round" stroke-miterlimit="10" cx="54.8" cy="30" r="7"/>
	
		<circle fill="none" stroke="#000000" stroke-width="0.5" stroke-linejoin="round" stroke-miterlimit="10" cx="54.8" cy="30" r="3.8"/>
	
		<line fill="none" stroke="#000000" stroke-width="0.5" stroke-linejoin="round" stroke-miterlimit="10" x1="51.2" y1="24.3" x2="52" y2="25"/>
	
		<line fill="none" stroke="#000000" stroke-width="0.5" stroke-linejoin="round" stroke-miterlimit="10" x1="49.6" y1="25.7" x2="50.5" y2="26.1"/>
	
		<line fill="none" stroke="#000000" stroke-width="0.5" stroke-linejoin="round" stroke-miterlimit="10" x1="48.5" y1="27.5" x2="49.5" y2="27.6"/>
	
		<line fill="none" stroke="#000000" stroke-width="0.5" stroke-linejoin="round" stroke-miterlimit="10" x1="48" y1="29.6" x2="49" y2="29.3"/>
	
		<line fill="none" stroke="#000000" stroke-width="0.5" stroke-linejoin="round" stroke-miterlimit="10" x1="48.2" y1="31.7" x2="49.1" y2="31.1"/>
	
		<line fill="none" stroke="#000000" stroke-width="0.5" stroke-linejoin="round" stroke-miterlimit="10" x1="49" y1="33.6" x2="49.7" y2="32.8"/>
	
		<line fill="none" stroke="#000000" stroke-width="0.5" stroke-linejoin="round" stroke-miterlimit="10" x1="50.4" y1="35.2" x2="50.8" y2="34.3"/>
	
		<line fill="none" stroke="#000000" stroke-width="0.5" stroke-linejoin="round" stroke-miterlimit="10" x1="52.2" y1="36.3" x2="52.3" y2="35.3"/>
	
		<line fill="none" stroke="#000000" stroke-width="0.5" stroke-linejoin="round" stroke-miterlimit="10" x1="54.3" y1="36.8" x2="54" y2="35.8"/>
	
		<line fill="none" stroke="#000000" stroke-width="0.5" stroke-linejoin="round" stroke-miterlimit="10" x1="56.4" y1="36.6" x2="55.8" y2="35.7"/>
	
		<line fill="none" stroke="#000000" stroke-width="0.5" stroke-linejoin="round" stroke-miterlimit="10" x1="58.3" y1="35.8" x2="57.5" y2="35.1"/>
	
		<line fill="none" stroke="#000000" stroke-width="0.5" stroke-linejoin="round" stroke-miterlimit="10" x1="59.9" y1="34.4" x2="59" y2="34"/>
	
		<line fill="none" stroke="#000000" stroke-width="0.5" stroke-linejoin="round" stroke-miterlimit="10" x1="61" y1="32.6" x2="60" y2="32.5"/>
	
		<line fill="none" stroke="#000000" stroke-width="0.5" stroke-linejoin="round" stroke-miterlimit="10" x1="61.5" y1="30.5" x2="60.5" y2="30.8"/>
	
		<line fill="none" stroke="#000000" stroke-width="0.5" stroke-linejoin="round" stroke-miterlimit="10" x1="61.3" y1="28.4" x2="60.5" y2="29"/>
	
		<line fill="none" stroke="#000000" stroke-width="0.5" stroke-linejoin="round" stroke-miterlimit="10" x1="60.5" y1="26.5" x2="59.8" y2="27.3"/>
	
		<line fill="none" stroke="#000000" stroke-width="0.5" stroke-linejoin="round" stroke-miterlimit="10" x1="59.1" y1="24.9" x2="58.7" y2="25.8"/>
	
		<line fill="none" stroke="#000000" stroke-width="0.5" stroke-linejoin="round" stroke-miterlimit="10" x1="57.3" y1="23.8" x2="57.2" y2="24.8"/>
	
		<line fill="none" stroke="#000000" stroke-width="0.5" stroke-linejoin="round" stroke-miterlimit="10" x1="55.2" y1="23.3" x2="55.5" y2="24.3"/>
	
		<line fill="none" stroke="#000000" stroke-width="0.5" stroke-linejoin="round" stroke-miterlimit="10" x1="53.1" y1="23.5" x2="53.7" y2="24.3"/>
	
		<line fill="none" stroke="#000000" stroke-width="0.5" stroke-linejoin="round" stroke-miterlimit="10" x1="20.8" y1="41" x2="22.5" y2="41"/>
	
		<line fill="none" stroke="#000000" stroke-width="0.5" stroke-linejoin="round" stroke-miterlimit="10" x1="41.6" y1="41.4" x2="43.3" y2="41.4"/>
	
		<rect x="23.2" y="41.4" fill="none" stroke="#000000" stroke-width="0.5" stroke-linejoin="round" stroke-miterlimit="10" width="0.4" height="1.7"/>
	
		<rect x="23.6" y="41.4" fill="none" stroke="#000000" stroke-width="0.5" stroke-linejoin="round" stroke-miterlimit="10" width="0.4" height="1.7"/>
	
		<rect x="24" y="41.4" fill="none" stroke="#000000" stroke-width="0.5" stroke-linejoin="round" stroke-miterlimit="10" width="0.4" height="1.7"/>
	
		<rect x="24.4" y="41.4" fill="none" stroke="#000000" stroke-width="0.5" stroke-linejoin="round" stroke-miterlimit="10" width="0.4" height="1.7"/>
	
		<rect x="24.8" y="41.4" fill="none" stroke="#000000" stroke-width="0.5" stroke-linejoin="round" stroke-miterlimit="10" width="0.4" height="1.7"/>
	
		<rect x="25.2" y="41.4" fill="none" stroke="#000000" stroke-width="0.5" stroke-linejoin="round" stroke-miterlimit="10" width="0.4" height="1.7"/>
	
		<rect x="26.1" y="41.4" fill="none" stroke="#000000" stroke-width="0.5" stroke-linejoin="round" stroke-miterlimit="10" width="0.4" height="1.7"/>
	
		<rect x="26.5" y="41.4" fill="none" stroke="#000000" stroke-width="0.5" stroke-linejoin="round" stroke-miterlimit="10" width="0.4" height="1.7"/>
	
		<rect x="26.9" y="41.4" fill="none" stroke="#000000" stroke-width="0.5" stroke-linejoin="round" stroke-miterlimit="10" width="0.4" height="1.7"/>
	
		<rect x="27.3" y="41.4" fill="none" stroke="#000000" stroke-width="0.5" stroke-linejoin="round" stroke-miterlimit="10" width="0.4" height="1.7"/>
	
		<rect x="27.7" y="41.4" fill="none" stroke="#000000" stroke-width="0.5" stroke-linejoin="round" stroke-miterlimit="10" width="0.4" height="1.7"/>
	
		<rect x="28.1" y="41.4" fill="none" stroke="#000000" stroke-width="0.5" stroke-linejoin="round" stroke-miterlimit="10" width="0.4" height="1.7"/>
	
		<rect x="28.5" y="41.4" fill="none" stroke="#000000" stroke-width="0.5" stroke-linejoin="round" stroke-miterlimit="10" width="0.4" height="1.7"/>
	
		<rect x="28.8" y="41.4" fill="none" stroke="#000000" stroke-width="0.5" stroke-linejoin="round" stroke-miterlimit="10" width="0.4" height="1.7"/>
	
		<rect x="29.2" y="41.4" fill="none" stroke="#000000" stroke-width="0.5" stroke-linejoin="round" stroke-miterlimit="10" width="0.4" height="1.7"/>
	
		<rect x="29.6" y="41.4" fill="none" stroke="#000000" stroke-width="0.5" stroke-linejoin="round" stroke-miterlimit="10" width="0.4" height="1.7"/>
	
		<rect x="30" y="41.4" fill="none" stroke="#000000" stroke-width="0.5" stroke-linejoin="round" stroke-miterlimit="10" width="0.4" height="1.7"/>
	
		<rect x="30.4" y="41.4" fill="none" stroke="#000000" stroke-width="0.5" stroke-linejoin="round" stroke-miterlimit="10" width="0.4" height="1.7"/>
	
		<rect x="30.8" y="41.4" fill="none" stroke="#000000" stroke-width="0.5" stroke-linejoin="round" stroke-miterlimit="10" width="0.4" height="1.7"/>
	
		<rect x="31.2" y="41.4" fill="none" stroke="#000000" stroke-width="0.5" stroke-linejoin="round" stroke-miterlimit="10" width="0.4" height="1.7"/>
	
		<rect x="31.6" y="41.4" fill="none" stroke="#000000" stroke-width="0.5" stroke-linejoin="round" stroke-miterlimit="10" width="0.4" height="1.7"/>
	
		<rect x="32" y="41.4" fill="none" stroke="#000000" stroke-width="0.5" stroke-linejoin="round" stroke-miterlimit="10" width="0.4" height="1.7"/>
	
		<rect x="32.4" y="41.4" fill="none" stroke="#000000" stroke-width="0.5" stroke-linejoin="round" stroke-miterlimit="10" width="0.4" height="1.7"/>
	
		<rect x="32.8" y="41.4" fill="none" stroke="#000000" stroke-width="0.5" stroke-linejoin="round" stroke-miterlimit="10" width="0.4" height="1.7"/>
	
		<rect x="33.2" y="41.4" fill="none" stroke="#000000" stroke-width="0.5" stroke-linejoin="round" stroke-miterlimit="10" width="0.4" height="1.7"/>
	
		<rect x="33.6" y="41.4" fill="none" stroke="#000000" stroke-width="0.5" stroke-linejoin="round" stroke-miterlimit="10" width="0.4" height="1.7"/>
	
		<rect x="34" y="41.4" fill="none" stroke="#000000" stroke-width="0.5" stroke-linejoin="round" stroke-miterlimit="10" width="0.4" height="1.7"/>
	
		<rect x="34.4" y="41.4" fill="none" stroke="#000000" stroke-width="0.5" stroke-linejoin="round" stroke-miterlimit="10" width="0.4" height="1.7"/>
	
		<rect x="34.8" y="41.4" fill="none" stroke="#000000" stroke-width="0.5" stroke-linejoin="round" stroke-miterlimit="10" width="0.4" height="1.7"/>
	
		<rect x="35.2" y="41.4" fill="none" stroke="#000000" stroke-width="0.5" stroke-linejoin="round" stroke-miterlimit="10" width="0.4" height="1.7"/>
	
		<rect x="35.5" y="41.4" fill="none" stroke="#000000" stroke-width="0.5" stroke-linejoin="round" stroke-miterlimit="10" width="0.4" height="1.7"/>
	
		<rect x="35.9" y="41.4" fill="none" stroke="#000000" stroke-width="0.5" stroke-linejoin="round" stroke-miterlimit="10" width="0.4" height="1.7"/>
	
		<rect x="36.3" y="41.4" fill="none" stroke="#000000" stroke-width="0.5" stroke-linejoin="round" stroke-miterlimit="10" width="0.4" height="1.7"/>
	
		<rect x="36.7" y="41.4" fill="none" stroke="#000000" stroke-width="0.5" stroke-linejoin="round" stroke-miterlimit="10" width="0.4" height="1.7"/>
	
		<rect x="37.1" y="41.4" fill="none" stroke="#000000" stroke-width="0.5" stroke-linejoin="round" stroke-miterlimit="10" width="0.4" height="1.7"/>
	
		<rect x="37.5" y="41.4" fill="none" stroke="#000000" stroke-width="0.5" stroke-linejoin="round" stroke-miterlimit="10" width="0.4" height="1.7"/>
	
		<rect x="37.9" y="41.4" fill="none" stroke="#000000" stroke-width="0.5" stroke-linejoin="round" stroke-miterlimit="10" width="0.4" height="1.7"/>
	
		<rect x="38.3" y="41.4" fill="none" stroke="#000000" stroke-width="0.5" stroke-linejoin="round" stroke-miterlimit="10" width="0.4" height="1.7"/>
	
		<rect x="38.7" y="41.4" fill="none" stroke="#000000" stroke-width="0.5" stroke-linejoin="round" stroke-miterlimit="10" width="0.4" height="1.7"/>
	
		<rect x="39.1" y="41.4" fill="none" stroke="#000000" stroke-width="0.5" stroke-linejoin="round" stroke-miterlimit="10" width="0.4" height="1.7"/>
	
		<rect x="39.5" y="41.4" fill="none" stroke="#000000" stroke-width="0.5" stroke-linejoin="round" stroke-miterlimit="10" width="0.4" height="1.7"/>
	
		<rect x="39.9" y="41.4" fill="none" stroke="#000000" stroke-width="0.5" stroke-linejoin="round" stroke-miterlimit="10" width="0.4" height="1.7"/>
	
		<rect x="40.3" y="41.4" fill="none" stroke="#000000" stroke-width="0.5" stroke-linejoin="round" stroke-miterlimit="10" width="0.4" height="1.7"/>
	
		<rect x="40.7" y="41.4" fill="none" stroke="#000000" stroke-width="0.5" stroke-linejoin="round" stroke-miterlimit="10" width="0.3" height="1.7"/>
</g>
</svg>
