<?xml version="1.0" encoding="utf-8"?>
<!-- Generator: Adobe Illustrator 18.1.1, SVG Export Plug-In . SVG Version: 6.00 Build 0)  -->
<svg version="1.1" id="Layer_1" xmlns="http://www.w3.org/2000/svg" xmlns:xlink="http://www.w3.org/1999/xlink" x="0px" y="0px"
	 viewBox="0 0 80 66" enable-background="new 0 0 80 66" xml:space="preserve">
<rect x="0.6" y="1" fill="none" width="78.8" height="65"/>
<line fill="none" stroke="#000000" stroke-width="0.5" stroke-linecap="round" stroke-linejoin="bevel" stroke-miterlimit="10" x1="69.9" y1="30.5" x2="69.9" y2="41.6"/>
<line fill="none" stroke="#000000" stroke-width="0.5" stroke-linecap="round" stroke-linejoin="bevel" stroke-miterlimit="10" x1="11.1" y1="36.9" x2="11.1" y2="48.8"/>
<ellipse fill="none" stroke="#000000" stroke-width="0.5" stroke-linecap="round" stroke-linejoin="bevel" stroke-miterlimit="10" cx="17" cy="44.2" rx="1.8" ry="2.7"/>
<ellipse fill="#FFFFFF" stroke="#000000" stroke-width="0.5" stroke-linecap="round" stroke-linejoin="bevel" stroke-miterlimit="10" cx="16.3" cy="44.5" rx="1.8" ry="2.7"/>
<g>
	
		<polygon fill="none" stroke="#000000" stroke-width="0.5" stroke-linecap="round" stroke-linejoin="bevel" stroke-miterlimit="10" points="
		11.1,36.9 36.9,25.8 69.9,30.5 44.1,41.8 	"/>
	
		<line fill="none" stroke="#000000" stroke-width="0.5" stroke-linecap="round" stroke-linejoin="bevel" stroke-miterlimit="10" x1="44.1" y1="41.8" x2="44.1" y2="53.2"/>
	
		<line fill="none" stroke="#000000" stroke-width="0.5" stroke-linecap="round" stroke-linejoin="bevel" stroke-miterlimit="10" x1="11.1" y1="48.8" x2="44.1" y2="53.3"/>
	
		<line fill="none" stroke="#000000" stroke-width="0.5" stroke-linecap="round" stroke-linejoin="bevel" stroke-miterlimit="10" x1="44.1" y1="53.2" x2="69.9" y2="41.6"/>
	
		<ellipse fill="none" stroke="#000000" stroke-width="0.5" stroke-linecap="round" stroke-linejoin="bevel" stroke-miterlimit="10" cx="38.1" cy="46.9" rx="1.8" ry="2.7"/>
	
		<ellipse fill="none" stroke="#000000" stroke-width="0.5" stroke-linecap="round" stroke-linejoin="bevel" stroke-miterlimit="10" cx="32.8" cy="46.2" rx="1.8" ry="2.7"/>
	
		<ellipse fill="none" stroke="#000000" stroke-width="0.5" stroke-linecap="round" stroke-linejoin="bevel" stroke-miterlimit="10" cx="27.6" cy="45.5" rx="1.8" ry="2.7"/>
	
		<ellipse fill="none" stroke="#000000" stroke-width="0.5" stroke-linecap="round" stroke-linejoin="bevel" stroke-miterlimit="10" cx="22.3" cy="44.9" rx="1.8" ry="2.7"/>
	
		<ellipse fill="#FFFFFF" stroke="#000000" stroke-width="0.5" stroke-linecap="round" stroke-linejoin="bevel" stroke-miterlimit="10" cx="37.3" cy="47.2" rx="1.8" ry="2.7"/>
	
		<ellipse fill="#FFFFFF" stroke="#000000" stroke-width="0.5" stroke-linecap="round" stroke-linejoin="bevel" stroke-miterlimit="10" cx="32.1" cy="46.5" rx="1.8" ry="2.7"/>
	
		<ellipse fill="#FFFFFF" stroke="#000000" stroke-width="0.5" stroke-linecap="round" stroke-linejoin="bevel" stroke-miterlimit="10" cx="26.8" cy="45.8" rx="1.8" ry="2.7"/>
	
		<ellipse fill="#FFFFFF" stroke="#000000" stroke-width="0.5" stroke-linecap="round" stroke-linejoin="bevel" stroke-miterlimit="10" cx="21.6" cy="45.2" rx="1.8" ry="2.7"/>
	<g opacity="0.74">
		<path fill="#666666" stroke="#000000" stroke-width="0.5" stroke-miterlimit="10" d="M51.7,19.2c-0.4-0.8-1-1.8-1.9-2.8
			c-0.9-1-1.9-1.8-2.6-2.3c0-0.1-0.1-0.3,0-0.5c0.1-0.2,0.3-0.2,0.8-0.3c1.1-0.2,1.3-0.2,1.5-0.2c0.3,0.1,0.5,0.3,0.6,0.4
			c1.5,1.6,2.2,3,2.2,3c0.4,0.8,1,2,1.3,3.3c-0.2-0.1-0.6-0.4-1-0.5C52.3,19.3,52,19.3,51.7,19.2z"/>
		<ellipse fill="#666666" stroke="#000000" stroke-width="0.5" stroke-miterlimit="10" cx="51.4" cy="22.9" rx="3.6" ry="3.5"/>
		<path fill="#666666" stroke="#000000" stroke-width="0.5" stroke-miterlimit="10" d="M49.3,19.9c-0.8-0.3-1.9-0.7-3.2-0.9
			c-1.4-0.2-2.6-0.2-3.4-0.1c-0.1-0.1-0.3-0.2-0.3-0.3c-0.1-0.2,0.1-0.4,0.4-0.8c0.7-0.9,0.9-1,1-1c0.3-0.1,0.6-0.1,0.8-0.1
			c2.2,0.2,3.6,0.9,3.6,0.9c0.8,0.3,2.1,0.9,3.2,1.8c-0.2,0-0.7,0.1-1.1,0.2C49.8,19.6,49.5,19.8,49.3,19.9z"/>
		<path fill="#666666" stroke="#000000" stroke-width="0.5" stroke-miterlimit="10" d="M47.9,22c-0.9,0.2-2,0.7-3.2,1.3
			c-1.2,0.7-2.1,1.5-2.8,2.1c-0.1,0-0.3,0-0.5-0.1c-0.2-0.1-0.2-0.3-0.2-0.8c0-1.1,0-1.3,0.1-1.4c0.2-0.3,0.4-0.4,0.5-0.5
			c1.8-1.2,3.3-1.6,3.3-1.6c0.8-0.2,2.2-0.6,3.6-0.6c-0.2,0.2-0.5,0.5-0.7,0.8C48.1,21.4,47.9,21.7,47.9,22z"/>
		<path fill="#666666" stroke="#000000" stroke-width="0.5" stroke-miterlimit="10" d="M48.1,24.4c-0.5,0.7-1.1,1.7-1.5,3
			c-0.5,1.3-0.6,2.5-0.7,3.2c-0.1,0.1-0.2,0.2-0.4,0.2c-0.2,0-0.4-0.1-0.7-0.5c-0.8-0.8-0.9-1-0.9-1.1c-0.1-0.3,0-0.6,0.1-0.7
			c0.6-2.1,1.6-3.3,1.6-3.3c0.5-0.7,1.3-1.8,2.4-2.8c0,0.2-0.1,0.7,0,1.1C47.9,23.8,48,24.1,48.1,24.4z"/>
		<path fill="#666666" stroke="#000000" stroke-width="0.5" stroke-miterlimit="10" d="M49.8,26.1c0.1,0.9,0.3,2,0.8,3.2
			s1.1,2.3,1.7,3c0,0.1,0,0.3-0.2,0.4c-0.2,0.1-0.4,0.1-0.9,0.1c-1.2-0.2-1.3-0.2-1.4-0.3c-0.3-0.2-0.4-0.4-0.4-0.6
			c-0.9-2-1-3.5-1-3.5c-0.1-0.8-0.2-2.2,0-3.5c0.1,0.2,0.4,0.6,0.7,0.8C49.4,25.8,49.7,26,49.8,26.1z"/>
		<path fill="#666666" stroke="#000000" stroke-width="0.5" stroke-miterlimit="10" d="M52.4,26.3c0.6,0.6,1.6,1.3,2.8,2
			s2.4,1,3.2,1.3c0.1,0.1,0.2,0.3,0.2,0.4c0,0.2-0.2,0.3-0.6,0.6c-1,0.6-1.2,0.6-1.3,0.6c-0.3,0-0.6-0.1-0.7-0.2
			c-2-1-3.2-2.1-3.2-2.1c-0.6-0.6-1.6-1.5-2.4-2.8c0.2,0.1,0.7,0.2,1.1,0.2C51.8,26.4,52.2,26.4,52.4,26.3z"/>
		<path fill="#666666" stroke="#000000" stroke-width="0.5" stroke-miterlimit="10" d="M54.5,24.9c0.9,0.1,2.1,0,3.4-0.2
			c1.4-0.3,2.5-0.7,3.2-1.1c0.1,0,0.3,0.1,0.4,0.2c0.1,0.2,0.1,0.4-0.1,0.9c-0.4,1.1-0.5,1.2-0.6,1.3c-0.2,0.2-0.5,0.3-0.7,0.3
			c-2.1,0.5-3.7,0.4-3.7,0.4c-0.9-0.1-2.2-0.1-3.6-0.6c0.2-0.1,0.7-0.3,1-0.5C54.2,25.3,54.4,25.1,54.5,24.9z"/>
		<path fill="#666666" stroke="#000000" stroke-width="0.5" stroke-miterlimit="10" d="M55.2,22.5c0.7-0.5,1.6-1.3,2.5-2.3
			c0.9-1.1,1.5-2.1,1.8-2.9c0.1-0.1,0.3-0.1,0.5-0.1c0.2,0.1,0.3,0.2,0.5,0.7c0.4,1.1,0.5,1.2,0.4,1.4c0,0.3-0.2,0.5-0.3,0.7
			c-1.3,1.7-2.7,2.7-2.7,2.7c-0.7,0.5-1.8,1.3-3.2,1.8c0.1-0.2,0.3-0.7,0.4-1C55.2,23.1,55.2,22.8,55.2,22.5z"/>
		<path fill="#666666" stroke="#000000" stroke-width="0.5" stroke-miterlimit="10" d="M54.1,20.3c0.2-0.8,0.4-2,0.4-3.2
			c0-1.4-0.3-2.5-0.5-3.3c0-0.1,0.1-0.3,0.3-0.3c0.2-0.1,0.4,0,0.9,0.2c1,0.5,1.1,0.6,1.2,0.8c0.2,0.3,0.2,0.5,0.2,0.7
			c0.1,2.1-0.3,3.6-0.3,3.6c-0.2,0.8-0.5,2.1-1.3,3.3c0-0.2-0.2-0.7-0.4-1C54.5,20.7,54.2,20.5,54.1,20.3z"/>
	</g>
</g>
</svg>
