<?xml version="1.0" encoding="utf-8"?>
<!-- Generator: Adobe Illustrator 18.1.1, SVG Export Plug-In . SVG Version: 6.00 Build 0)  -->
<svg version="1.1" id="Layer_1" xmlns="http://www.w3.org/2000/svg" xmlns:xlink="http://www.w3.org/1999/xlink" x="0px" y="0px"
	 viewBox="0 0 80 66" enable-background="new 0 0 80 66" xml:space="preserve">
<rect fill="none" width="80" height="66"/>
<g>
	<rect x="33.9" y="50.8" stroke="#000000" stroke-width="0.5" stroke-miterlimit="10" width="13.4" height="2.4"/>
	<line stroke="#000000" stroke-width="0.5" stroke-miterlimit="10" x1="23.2" y1="17" x2="57.9" y2="17"/>
	<line stroke="#000000" stroke-width="0.5" stroke-miterlimit="10" x1="23.2" y1="19.1" x2="57.9" y2="19.1"/>
	<line stroke="#000000" stroke-width="0.5" stroke-miterlimit="10" x1="23.2" y1="21.1" x2="57.9" y2="21.1"/>
	<line stroke="#000000" stroke-width="0.5" stroke-miterlimit="10" x1="23.2" y1="23.2" x2="57.9" y2="23.2"/>
	<line stroke="#000000" stroke-width="0.5" stroke-miterlimit="10" x1="23.2" y1="25.3" x2="57.9" y2="25.3"/>
	<line stroke="#000000" stroke-width="0.5" stroke-miterlimit="10" x1="23.2" y1="27.3" x2="57.9" y2="27.3"/>
	<line stroke="#000000" stroke-width="0.5" stroke-miterlimit="10" x1="23.2" y1="29.4" x2="57.9" y2="29.4"/>
	<line stroke="#000000" stroke-width="0.5" stroke-miterlimit="10" x1="23.2" y1="31.5" x2="57.9" y2="31.5"/>
	<line stroke="#000000" stroke-width="0.5" stroke-miterlimit="10" x1="23.2" y1="33.5" x2="57.9" y2="33.5"/>
	<line stroke="#000000" stroke-width="0.5" stroke-miterlimit="10" x1="23.2" y1="35.6" x2="57.9" y2="35.6"/>
	<line stroke="#000000" stroke-width="0.5" stroke-miterlimit="10" x1="23.2" y1="37.7" x2="57.9" y2="37.7"/>
	<g>
		
			<line stroke="#000000" stroke-width="0.5" stroke-linecap="round" stroke-miterlimit="10" x1="30.6" y1="14.1" x2="30.6" y2="49"/>
		<path stroke="#000000" stroke-width="0.5" stroke-miterlimit="10" d="M30.6,49c0,1.7,1.5,3,3.3,3"/>
	</g>
	<g>
		
			<line stroke="#000000" stroke-width="0.5" stroke-linecap="round" stroke-miterlimit="10" x1="50.6" y1="14.1" x2="50.6" y2="49"/>
		<path stroke="#000000" stroke-width="0.5" stroke-miterlimit="10" d="M50.6,49c0,1.7-1.5,3-3.3,3"/>
	</g>
	<line stroke="#000000" stroke-width="0.5" stroke-miterlimit="10" x1="23.2" y1="39.7" x2="57.9" y2="39.7"/>
	<line stroke="#000000" stroke-width="0.5" stroke-miterlimit="10" x1="23.2" y1="41.8" x2="57.9" y2="41.8"/>
	<line stroke="#000000" stroke-width="0.5" stroke-miterlimit="10" x1="23.2" y1="43.9" x2="57.9" y2="43.9"/>
	<g opacity="0.74">
		<path stroke="#000000" stroke-width="0.5" stroke-miterlimit="10" d="M41,25.9c-0.5-0.9-1.2-2.2-2.3-3.4c-1.1-1.3-2.3-2.2-3.2-2.8
			c0-0.1-0.1-0.4,0-0.5c0.1-0.2,0.4-0.3,1-0.4c1.4-0.3,1.6-0.3,1.8-0.2c0.4,0.1,0.6,0.3,0.8,0.5c1.9,1.9,2.7,3.7,2.7,3.7
			c0.5,0.9,1.2,2.4,1.6,4.1c-0.2-0.2-0.7-0.5-1.2-0.7C41.7,26,41.3,25.9,41,25.9z"/>
		<ellipse stroke="#000000" stroke-width="0.5" stroke-miterlimit="10" cx="40.6" cy="30.3" rx="4.5" ry="4.4"/>
		<path stroke="#000000" stroke-width="0.5" stroke-miterlimit="10" d="M37.9,26.7c-1-0.4-2.4-0.9-4-1.2c-1.7-0.3-3.2-0.2-4.3-0.1
			c-0.1-0.1-0.3-0.2-0.4-0.4c-0.1-0.2,0.1-0.4,0.5-0.9c0.9-1.1,1-1.2,1.2-1.3c0.4-0.1,0.7-0.1,0.9-0.1c2.7,0.3,4.5,1.1,4.5,1.1
			c1,0.4,2.5,1.1,3.9,2.2c-0.3,0-0.9,0.1-1.3,0.2C38.5,26.3,38.2,26.5,37.9,26.7z"/>
		<path stroke="#000000" stroke-width="0.5" stroke-miterlimit="10" d="M36.2,29.2c-1,0.3-2.4,0.8-3.9,1.6c-1.5,0.9-2.6,1.8-3.4,2.6
			c-0.2,0-0.4,0-0.6-0.1c-0.2-0.1-0.2-0.4-0.3-1c-0.1-1.4,0-1.6,0.1-1.7c0.2-0.3,0.5-0.5,0.7-0.6c2.2-1.4,4.2-2,4.2-2
			c1-0.3,2.6-0.7,4.5-0.8c-0.2,0.2-0.6,0.6-0.9,1C36.4,28.5,36.2,28.9,36.2,29.2z"/>
		<path stroke="#000000" stroke-width="0.5" stroke-miterlimit="10" d="M36.5,32.2c-0.6,0.9-1.3,2.1-1.9,3.7c-0.6,1.6-0.8,3-0.9,4.1
			c-0.1,0.1-0.3,0.3-0.5,0.3c-0.3,0-0.4-0.2-0.9-0.6c-1-1-1-1.2-1.1-1.4c-0.1-0.4,0-0.7,0.1-0.9c0.8-2.5,1.9-4.1,1.9-4.1
			c0.6-0.8,1.5-2.2,2.9-3.4c0,0.3-0.1,0.9,0,1.3C36.2,31.6,36.3,31.9,36.5,32.2z"/>
		<path stroke="#000000" stroke-width="0.5" stroke-miterlimit="10" d="M38.7,34.3c0.1,1.1,0.4,2.4,1,4c0.6,1.6,1.4,2.8,2,3.7
			c0,0.2,0,0.4-0.2,0.5c-0.2,0.2-0.4,0.2-1.1,0.1c-1.4-0.2-1.6-0.3-1.7-0.4c-0.3-0.2-0.4-0.5-0.5-0.7c-1.1-2.4-1.3-4.3-1.3-4.3
			c-0.1-1-0.3-2.6,0-4.4c0.2,0.2,0.5,0.7,0.9,1C38,34,38.4,34.2,38.7,34.3z"/>
		<path stroke="#000000" stroke-width="0.5" stroke-miterlimit="10" d="M41.8,34.6c0.8,0.7,1.9,1.6,3.4,2.4c1.5,0.8,2.9,1.3,4,1.5
			c0.1,0.1,0.2,0.3,0.2,0.5c0,0.2-0.2,0.4-0.8,0.7c-1.2,0.7-1.4,0.8-1.6,0.8c-0.4,0-0.7-0.1-0.9-0.2c-2.4-1.2-3.8-2.5-3.8-2.5
			c-0.8-0.7-2-1.8-2.9-3.4c0.3,0.1,0.9,0.2,1.3,0.2C41.1,34.7,41.5,34.7,41.8,34.6z"/>
		<path stroke="#000000" stroke-width="0.5" stroke-miterlimit="10" d="M44.4,32.8c1.1,0.1,2.5,0.1,4.2-0.3c1.7-0.3,3.1-0.8,4.1-1.3
			c0.2,0,0.4,0.1,0.5,0.3c0.1,0.2,0.1,0.4-0.1,1c-0.4,1.3-0.6,1.5-0.7,1.6c-0.3,0.3-0.6,0.3-0.8,0.4c-2.6,0.6-4.6,0.5-4.6,0.5
			c-1.1-0.1-2.7-0.2-4.5-0.7c0.3-0.1,0.8-0.4,1.2-0.7C43.9,33.4,44.2,33.1,44.4,32.8z"/>
		<path stroke="#000000" stroke-width="0.5" stroke-miterlimit="10" d="M45.2,29.9c0.9-0.6,2-1.5,3.1-2.8c1.1-1.3,1.8-2.6,2.2-3.5
			c0.1-0.1,0.3-0.1,0.6-0.1c0.2,0.1,0.4,0.3,0.6,0.9c0.5,1.3,0.6,1.5,0.5,1.7c-0.1,0.4-0.2,0.6-0.4,0.8c-1.6,2.1-3.2,3.2-3.2,3.2
			c-0.9,0.6-2.2,1.6-3.9,2.2c0.1-0.2,0.4-0.8,0.5-1.2C45.2,30.6,45.2,30.2,45.2,29.9z"/>
		<path stroke="#000000" stroke-width="0.5" stroke-miterlimit="10" d="M43.8,27.2c0.3-1,0.5-2.4,0.5-4.1c0-1.7-0.3-3.1-0.6-4.1
			c0.1-0.1,0.2-0.3,0.4-0.4c0.2-0.1,0.5,0,1,0.3c1.3,0.6,1.4,0.8,1.5,1c0.2,0.3,0.2,0.6,0.2,0.9c0.2,2.6-0.3,4.5-0.3,4.5
			c-0.3,1-0.7,2.6-1.5,4.1c-0.1-0.3-0.2-0.8-0.5-1.2C44.3,27.7,44,27.4,43.8,27.2z"/>
	</g>
</g>
</svg>
