<?xml version="1.0" encoding="utf-8"?>
<!-- Generator: Adobe Illustrator 18.1.1, SVG Export Plug-In . SVG Version: 6.00 Build 0)  -->
<svg version="1.1" id="Layer_1" xmlns="http://www.w3.org/2000/svg" xmlns:xlink="http://www.w3.org/1999/xlink" x="0px" y="0px"
	 viewBox="0 0 160 33" enable-background="new 0 0 160 33" xml:space="preserve">
<rect fill="#FFFFFF" width="160" height="33"/>
<g id="logo">
	<g id="g5">
		<path id="path7" d="M52.5,27.1h-5.6L45.2,23h-9.3l-1.6,4.1h-5.5l8.4-20.8h6L52.5,27.1z M40.3,11.2l-3.1,8.1h6.4L40.3,11.2z"/>
		<path id="path9" d="M72.7,6.3h4.5v20.8h-5.2v-13l-5.6,6.5h-0.8L60,14.1v13h-5.2V6.3h4.5l6.7,7.7L72.7,6.3z"/>
		<path id="path11" d="M90.4,6.3c7.6,0,11.5,4.7,11.5,10.4c0,6-3.8,10.4-12.1,10.4h-8.6V6.3H90.4z M86.4,23.3h3.4
			c5.2,0,6.8-3.5,6.8-6.6c0-3.6-1.9-6.6-6.8-6.6h-3.3L86.4,23.3L86.4,23.3z"/>
	</g>
	<g id="g13">
		<polygon id="polygon15" fill="#009A66" points="122.9,11.2 112.2,11.2 105.7,4.7 129.5,4.7 129.5,28.5 122.9,21.9 		"/>
		<polygon id="polygon17" fill="#009A66" points="112.2,21.9 112.2,12.5 105.5,19.2 105.5,28.7 114.9,28.7 121.6,21.9 		"/>
	</g>
</g>
</svg>
