<?xml version="1.0" encoding="utf-8"?>
<!-- Generator: Adobe Illustrator 18.1.1, SVG Export Plug-In . SVG Version: 6.00 Build 0)  -->
<svg version="1.1" id="Layer_1" xmlns="http://www.w3.org/2000/svg" xmlns:xlink="http://www.w3.org/1999/xlink" x="0px" y="0px"
	 viewBox="0 0 80 66" enable-background="new 0 0 80 66" xml:space="preserve">
<rect fill="none" width="80" height="66"/>
<g>
	
		<polygon fill="none" stroke="#000000" stroke-width="0.5" stroke-linecap="round" stroke-linejoin="bevel" stroke-miterlimit="10" points="
		10.8,26.2 37,14.8 70.5,19.7 44.3,31 	"/>
	<g>
		
			<path fill="#FFFFFF" stroke="#000000" stroke-width="0.5" stroke-linecap="round" stroke-linejoin="bevel" stroke-miterlimit="10" d="
			M55.4,24.1c-3.1,2-12,2.9-19.8,2.1s-11.7-3-8.6-5s12-2.9,19.8-2.1S58.5,22.1,55.4,24.1z"/>
		
			<path fill="#FFFFFF" stroke="#000000" stroke-width="0.5" stroke-linecap="round" stroke-linejoin="bevel" stroke-miterlimit="10" d="
			M53.6,23.9c-2.7,1.7-10.4,2.5-17.3,1.9s-10.2-2.6-7.5-4.3s10.4-2.5,17.3-1.9C52.9,20.2,56.3,22.2,53.6,23.9z"/>
		
			<path fill="#FFFFFF" stroke="#000000" stroke-width="0.5" stroke-linecap="round" stroke-linejoin="bevel" stroke-miterlimit="10" d="
			M52.3,23.8c-2.4,1.5-9.1,2.2-15.1,1.6c-6-0.6-8.9-2.3-6.5-3.8s9.1-2.2,15.1-1.6S54.6,22.3,52.3,23.8z"/>
		
			<path fill="#FFFFFF" stroke="#000000" stroke-width="0.5" stroke-linecap="round" stroke-linejoin="bevel" stroke-miterlimit="10" d="
			M50.7,23.6c-2,1.3-7.7,1.9-12.8,1.4c-5.1-0.5-7.5-1.9-5.5-3.2s7.7-1.9,12.8-1.4C50.2,20.9,52.7,22.3,50.7,23.6z"/>
		
			<path fill="#FFFFFF" stroke="#000000" stroke-width="0.5" stroke-linecap="round" stroke-linejoin="bevel" stroke-miterlimit="10" d="
			M49.1,23.4c-1.7,1.1-6.4,1.6-10.6,1.2c-4.2-0.4-6.3-1.6-4.6-2.7c1.7-1.1,6.4-1.6,10.6-1.2C48.7,21.2,50.8,22.4,49.1,23.4z"/>
		
			<path fill="#FFFFFF" stroke="#000000" stroke-width="0.5" stroke-linecap="round" stroke-linejoin="bevel" stroke-miterlimit="10" d="
			M47.3,23.3c-1.3,0.8-4.9,1.2-8.1,0.9c-3.2-0.3-4.8-1.2-3.5-2s4.9-1.2,8.1-0.9C47,21.6,48.6,22.5,47.3,23.3z"/>
		
			<path fill="#FFFFFF" stroke="#000000" stroke-width="0.5" stroke-linecap="round" stroke-linejoin="bevel" stroke-miterlimit="10" d="
			M45.7,23.1c-0.9,0.6-3.6,0.9-5.9,0.6c-2.3-0.2-3.5-0.9-2.6-1.5c0.9-0.6,3.6-0.9,5.9-0.6C45.5,21.9,46.6,22.5,45.7,23.1z"/>
		
			<path fill="#FFFFFF" stroke="#000000" stroke-width="0.5" stroke-linecap="round" stroke-linejoin="bevel" stroke-miterlimit="10" d="
			M44,22.9c-0.5,0.3-2.1,0.5-3.5,0.4c-1.4-0.1-2-0.5-1.5-0.9s2.1-0.5,3.5-0.4C43.9,22.2,44.5,22.6,44,22.9z"/>
		<g>
			
				<line fill="none" stroke="#000000" stroke-width="0.5" stroke-linecap="round" stroke-linejoin="bevel" stroke-miterlimit="10" x1="21.4" y1="24.9" x2="61.1" y2="20.6"/>
			
				<line fill="none" stroke="#000000" stroke-width="0.5" stroke-linecap="round" stroke-linejoin="bevel" stroke-miterlimit="10" x1="32.7" y1="17.7" x2="50" y2="27.7"/>
		</g>
		
			<path fill="#FFFFFF" stroke="#000000" stroke-width="0.5" stroke-linecap="round" stroke-linejoin="bevel" stroke-miterlimit="10" d="
			M61.4,20.7c-0.2,0.1-0.7,0.2-1.1,0.1s-0.6-0.2-0.5-0.3s0.7-0.2,1.1-0.1C61.3,20.4,61.5,20.5,61.4,20.7z"/>
		
			<path fill="#FFFFFF" stroke="#000000" stroke-width="0.5" stroke-linecap="round" stroke-linejoin="bevel" stroke-miterlimit="10" d="
			M50.5,27.5c-0.2,0.1-0.7,0.2-1.1,0.1c-0.4,0-0.6-0.2-0.5-0.3c0.2-0.1,0.7-0.2,1.1-0.1S50.7,27.4,50.5,27.5z"/>
		
			<path fill="#FFFFFF" stroke="#000000" stroke-width="0.5" stroke-linecap="round" stroke-linejoin="bevel" stroke-miterlimit="10" d="
			M22.7,24.9C22.5,25,22,25.1,21.6,25s-0.6-0.2-0.5-0.3c0.2-0.1,0.7-0.2,1.1-0.1C22.6,24.7,22.9,24.8,22.7,24.9z"/>
		
			<path fill="#FFFFFF" stroke="#000000" stroke-width="0.5" stroke-linecap="round" stroke-linejoin="bevel" stroke-miterlimit="10" d="
			M33.7,17.9C33.5,18,33,18.1,32.6,18c-0.4,0-0.6-0.2-0.5-0.3c0.2-0.1,0.7-0.2,1.1-0.1C33.7,17.7,33.9,17.8,33.7,17.9z"/>
	</g>
	
		<polyline fill="none" stroke="#000000" stroke-width="0.5" stroke-linecap="round" stroke-linejoin="bevel" stroke-miterlimit="10" points="
		10.8,26.2 10.8,46.9 44.3,51.5 44.3,31 44.3,51.5 70.5,39.7 70.5,19.7 	"/>
	<g>
		<polygon stroke="#000000" stroke-linecap="round" stroke-linejoin="bevel" stroke-miterlimit="10" points="40.5,33.6 40.5,39.7 
			31.5,38.4 31.5,32.3 		"/>
		<polyline stroke="#000000" stroke-width="0.5" stroke-linecap="round" stroke-linejoin="bevel" stroke-miterlimit="10" points="
			31.5,32.7 29.6,34.3 29.6,36 31.5,38.1 		"/>
		<g>
			
				<polygon fill="#4D4D4D" stroke="#000000" stroke-width="0.5" stroke-linecap="round" stroke-linejoin="bevel" stroke-miterlimit="10" points="
				32.2,37 32.2,33.1 39.8,34.2 39.8,37.9 39,38.8 33.2,38 			"/>
		</g>
		
			<polygon fill="none" stroke="#000000" stroke-width="0.5" stroke-linecap="round" stroke-linejoin="bevel" stroke-miterlimit="10" points="
			36.1,37.5 35.4,37.4 35.4,36 36.1,36.1 		"/>
		
			<polygon fill="none" stroke="#000000" stroke-width="0.5" stroke-linecap="round" stroke-linejoin="bevel" stroke-miterlimit="10" points="
			38.1,36.5 37.4,36.4 37.4,35 38.1,35.1 		"/>
		
			<polygon fill="none" stroke="#000000" stroke-width="0.5" stroke-linecap="round" stroke-linejoin="bevel" stroke-miterlimit="10" points="
			34.2,36 33.5,35.9 33.5,34.5 34.2,34.6 		"/>
		<polyline stroke="#000000" stroke-width="0.5" stroke-linecap="round" stroke-linejoin="bevel" stroke-miterlimit="10" points="
			40.5,39.4 42.4,37.8 42.4,36.1 40.5,34 		"/>
	</g>
	<g>
		
			<polygon fill="none" stroke="#000000" stroke-width="0.5" stroke-linecap="round" stroke-linejoin="bevel" stroke-miterlimit="10" points="
			39,45.8 31.8,44.8 31.8,40.5 39,41.5 		"/>
		
			<polygon fill="#666666" stroke="#000000" stroke-width="0.5" stroke-linecap="round" stroke-linejoin="bevel" stroke-miterlimit="10" points="
			37.7,44.6 33.1,44 33.1,41.7 37.7,42.3 		"/>
		
			<line fill="none" stroke="#000000" stroke-width="0.5" stroke-linecap="round" stroke-linejoin="bevel" stroke-miterlimit="10" x1="35.4" y1="42" x2="35.4" y2="44.3"/>
		
			<line fill="none" stroke="#000000" stroke-width="0.5" stroke-linecap="round" stroke-linejoin="bevel" stroke-miterlimit="10" x1="33.9" y1="42.9" x2="34.8" y2="43"/>
		
			<path fill="none" stroke="#000000" stroke-width="0.5" stroke-linecap="round" stroke-linejoin="bevel" stroke-miterlimit="10" d="
			M37.2,43.4c0,0.3-0.2,0.5-0.5,0.4s-0.5-0.3-0.5-0.6s0.2-0.5,0.5-0.4S37.2,43.1,37.2,43.4z"/>
	</g>
	
		<path fill="#333333" stroke="#000000" stroke-width="0.5" stroke-linecap="round" stroke-linejoin="bevel" stroke-miterlimit="10" d="
		M14.8,44.7L14.8,44.7c-0.2,0-0.4-0.3-0.4-0.5V30.1c0-0.2,0.2-0.4,0.4-0.4h0c0.2,0,0.4,0.3,0.4,0.5v14.2
		C15.2,44.6,15,44.8,14.8,44.7z"/>
	
		<path fill="#333333" stroke="#000000" stroke-width="0.5" stroke-linecap="round" stroke-linejoin="bevel" stroke-miterlimit="10" d="
		M17.2,45.1L17.2,45.1c-0.2,0-0.4-0.3-0.4-0.5V30.4c0-0.2,0.2-0.4,0.4-0.4h0c0.2,0,0.4,0.3,0.4,0.5v14.2
		C17.6,44.9,17.4,45.1,17.2,45.1z"/>
	
		<path fill="#333333" stroke="#000000" stroke-width="0.5" stroke-linecap="round" stroke-linejoin="bevel" stroke-miterlimit="10" d="
		M19.6,45.4L19.6,45.4c-0.2,0-0.4-0.3-0.4-0.5V30.7c0-0.2,0.2-0.4,0.4-0.4l0,0c0.2,0,0.4,0.3,0.4,0.5V45
		C20,45.3,19.8,45.5,19.6,45.4z"/>
	
		<path fill="#333333" stroke="#000000" stroke-width="0.5" stroke-linecap="round" stroke-linejoin="bevel" stroke-miterlimit="10" d="
		M22,45.8L22,45.8c-0.2,0-0.4-0.3-0.4-0.5V31.1c0-0.2,0.2-0.4,0.4-0.4l0,0c0.2,0,0.4,0.3,0.4,0.5v14.2C22.4,45.6,22.2,45.8,22,45.8z
		"/>
	
		<path fill="#333333" stroke="#000000" stroke-width="0.5" stroke-linecap="round" stroke-linejoin="bevel" stroke-miterlimit="10" d="
		M24.4,46.1L24.4,46.1c-0.2,0-0.4-0.3-0.4-0.5V31.4c0-0.2,0.2-0.4,0.4-0.4h0c0.2,0,0.4,0.3,0.4,0.5v14.2
		C24.8,46,24.6,46.1,24.4,46.1z"/>
	
		<path fill="#333333" stroke="#000000" stroke-width="0.5" stroke-linecap="round" stroke-linejoin="bevel" stroke-miterlimit="10" d="
		M26.8,46.4L26.8,46.4c-0.2,0-0.4-0.3-0.4-0.5V31.7c0-0.2,0.2-0.4,0.4-0.4l0,0c0.2,0,0.4,0.3,0.4,0.5v14.2
		C27.2,46.3,27,46.5,26.8,46.4z"/>
</g>
</svg>
