<?xml version="1.0" encoding="utf-8"?>
<!-- Generator: Adobe Illustrator 18.1.1, SVG Export Plug-In . SVG Version: 6.00 Build 0)  -->
<svg version="1.1" id="Layer_1" xmlns="http://www.w3.org/2000/svg" xmlns:xlink="http://www.w3.org/1999/xlink" x="0px" y="0px"
	 viewBox="0 0 80 66" enable-background="new 0 0 80 66" xml:space="preserve">
<rect fill="none" width="80" height="66"/>
<g>
	<path fill="#FFFFFF" stroke="#000000" stroke-width="0.5" stroke-miterlimit="10" d="M71.1,29.1C71.2,29.1,71.2,29.1,71.1,29.1
		l0.1-8.5H7v8.4c1.7,0,1.7,2.7,0,2.7V34c1.6,0.1,1.6,2.6,0,2.7v2.5h24.1v-2.4c0-1.7,2.7-1.7,2.7,0v2.4h37.4v-2.5c0,0,0,0-0.1,0
		c-1.7,0-1.7-2.7,0-2.7c0,0,0,0,0.1,0v-2.1c0,0,0,0-0.1,0C69.4,31.8,69.4,29.1,71.1,29.1z"/>
	<rect x="10.5" y="35.8" fill="#FFFFFF" stroke="#000000" stroke-width="0.5" stroke-miterlimit="10" width="1.3" height="3.4"/>
	<rect x="11.8" y="35.8" fill="#FFFFFF" stroke="#000000" stroke-width="0.5" stroke-miterlimit="10" width="1.3" height="3.4"/>
	<rect x="13" y="35.8" fill="#FFFFFF" stroke="#000000" stroke-width="0.5" stroke-miterlimit="10" width="1.3" height="3.4"/>
	<rect x="14.3" y="35.8" fill="#FFFFFF" stroke="#000000" stroke-width="0.5" stroke-miterlimit="10" width="1.3" height="3.4"/>
	<rect x="15.6" y="35.8" fill="#FFFFFF" stroke="#000000" stroke-width="0.5" stroke-miterlimit="10" width="1.3" height="3.4"/>
	<rect x="16.9" y="35.8" fill="#FFFFFF" stroke="#000000" stroke-width="0.5" stroke-miterlimit="10" width="1.3" height="3.4"/>
	<rect x="18.2" y="35.8" fill="#FFFFFF" stroke="#000000" stroke-width="0.5" stroke-miterlimit="10" width="1.3" height="3.4"/>
	<rect x="19.4" y="35.8" fill="#FFFFFF" stroke="#000000" stroke-width="0.5" stroke-miterlimit="10" width="1.3" height="3.4"/>
	<rect x="20.7" y="35.8" fill="#FFFFFF" stroke="#000000" stroke-width="0.5" stroke-miterlimit="10" width="1.3" height="3.4"/>
	<rect x="22" y="35.8" fill="#FFFFFF" stroke="#000000" stroke-width="0.5" stroke-miterlimit="10" width="1.3" height="3.4"/>
	<rect x="23.3" y="35.8" fill="#FFFFFF" stroke="#000000" stroke-width="0.5" stroke-miterlimit="10" width="1.3" height="3.4"/>
	<rect x="24.5" y="35.8" fill="#FFFFFF" stroke="#000000" stroke-width="0.5" stroke-miterlimit="10" width="1.3" height="3.4"/>
	<rect x="25.8" y="35.8" fill="#FFFFFF" stroke="#000000" stroke-width="0.5" stroke-miterlimit="10" width="1.3" height="3.4"/>
	<rect x="27.1" y="35.8" fill="#FFFFFF" stroke="#000000" stroke-width="0.5" stroke-miterlimit="10" width="1.3" height="3.4"/>
	<rect x="28.4" y="35.8" fill="#FFFFFF" stroke="#000000" stroke-width="0.5" stroke-miterlimit="10" width="1.3" height="3.4"/>
	<g>
		<rect x="35.3" y="35.8" fill="#FFFFFF" stroke="#000000" stroke-width="0.5" stroke-miterlimit="10" width="1.3" height="3.3"/>
		<rect x="36.6" y="35.8" fill="#FFFFFF" stroke="#000000" stroke-width="0.5" stroke-miterlimit="10" width="1.3" height="3.3"/>
		<rect x="37.9" y="35.8" fill="#FFFFFF" stroke="#000000" stroke-width="0.5" stroke-miterlimit="10" width="1.3" height="3.3"/>
		<rect x="39.1" y="35.8" fill="#FFFFFF" stroke="#000000" stroke-width="0.5" stroke-miterlimit="10" width="1.3" height="3.3"/>
		<rect x="40.4" y="35.8" fill="#FFFFFF" stroke="#000000" stroke-width="0.5" stroke-miterlimit="10" width="1.3" height="3.3"/>
		<rect x="41.7" y="35.8" fill="#FFFFFF" stroke="#000000" stroke-width="0.5" stroke-miterlimit="10" width="1.3" height="3.3"/>
		<rect x="43" y="35.8" fill="#FFFFFF" stroke="#000000" stroke-width="0.5" stroke-miterlimit="10" width="1.3" height="3.3"/>
		<rect x="44.3" y="35.8" fill="#FFFFFF" stroke="#000000" stroke-width="0.5" stroke-miterlimit="10" width="1.3" height="3.3"/>
		<rect x="45.5" y="35.8" fill="#FFFFFF" stroke="#000000" stroke-width="0.5" stroke-miterlimit="10" width="1.3" height="3.3"/>
		<rect x="46.8" y="35.8" fill="#FFFFFF" stroke="#000000" stroke-width="0.5" stroke-miterlimit="10" width="1.3" height="3.3"/>
		<rect x="48.1" y="35.8" fill="#FFFFFF" stroke="#000000" stroke-width="0.5" stroke-miterlimit="10" width="1.3" height="3.3"/>
		<rect x="49.4" y="35.8" fill="#FFFFFF" stroke="#000000" stroke-width="0.5" stroke-miterlimit="10" width="1.3" height="3.3"/>
		<rect x="50.6" y="35.8" fill="#FFFFFF" stroke="#000000" stroke-width="0.5" stroke-miterlimit="10" width="1.3" height="3.3"/>
		<rect x="51.9" y="35.8" fill="#FFFFFF" stroke="#000000" stroke-width="0.5" stroke-miterlimit="10" width="1.3" height="3.3"/>
	</g>
	<rect x="53.2" y="35.8" fill="#FFFFFF" stroke="#000000" stroke-width="0.5" stroke-miterlimit="10" width="1.3" height="3.3"/>
	<rect x="54.5" y="35.8" fill="#FFFFFF" stroke="#000000" stroke-width="0.5" stroke-miterlimit="10" width="1.3" height="3.3"/>
	<rect x="55.8" y="35.8" fill="#FFFFFF" stroke="#000000" stroke-width="0.5" stroke-miterlimit="10" width="1.3" height="3.3"/>
	<rect x="57" y="35.8" fill="#FFFFFF" stroke="#000000" stroke-width="0.5" stroke-miterlimit="10" width="1.3" height="3.3"/>
	<rect x="58.3" y="35.8" fill="#FFFFFF" stroke="#000000" stroke-width="0.5" stroke-miterlimit="10" width="1.3" height="3.3"/>
	<rect x="59.6" y="35.8" fill="#FFFFFF" stroke="#000000" stroke-width="0.5" stroke-miterlimit="10" width="1.3" height="3.3"/>
	<rect x="60.9" y="35.8" fill="#FFFFFF" stroke="#000000" stroke-width="0.5" stroke-miterlimit="10" width="1.3" height="3.3"/>
	<rect x="62.2" y="35.8" fill="#FFFFFF" stroke="#000000" stroke-width="0.5" stroke-miterlimit="10" width="1.3" height="3.3"/>
	<rect x="63.4" y="35.8" fill="#FFFFFF" stroke="#000000" stroke-width="0.5" stroke-miterlimit="10" width="1.3" height="3.3"/>
	<rect x="64.7" y="35.8" fill="#FFFFFF" stroke="#000000" stroke-width="0.5" stroke-miterlimit="10" width="1.3" height="3.3"/>
	<rect x="66" y="35.8" fill="#FFFFFF" stroke="#000000" stroke-width="0.5" stroke-miterlimit="10" width="1.3" height="3.3"/>
	<rect x="10.9" y="23.1" fill="#FFFFFF" stroke="#000000" stroke-width="0.5" stroke-miterlimit="10" width="7.7" height="10.1"/>
	<rect x="20.7" y="23.1" fill="#FFFFFF" stroke="#000000" stroke-width="0.5" stroke-miterlimit="10" width="7.7" height="10.1"/>
	<rect x="30.5" y="23.1" fill="#FFFFFF" stroke="#000000" stroke-width="0.5" stroke-miterlimit="10" width="7.7" height="10.1"/>
	<rect x="40.3" y="23.1" fill="#FFFFFF" stroke="#000000" stroke-width="0.5" stroke-miterlimit="10" width="7.7" height="10.1"/>
	<rect x="50.2" y="23.1" fill="#FFFFFF" stroke="#000000" stroke-width="0.5" stroke-miterlimit="10" width="7.7" height="10.1"/>
	<rect x="60" y="23.1" fill="#FFFFFF" stroke="#000000" stroke-width="0.5" stroke-miterlimit="10" width="7.7" height="10.1"/>
	<path fill="#FFFFFF" stroke="#000000" stroke-width="0.5" stroke-miterlimit="10" d="M74.4,35.1C74.4,35.1,74.4,35.1,74.4,35.1
		l0.1-8.5H10.2V35c1.7,0,1.7,2.7,0,2.7v2.2c1.6,0.1,1.6,2.6,0,2.7v2.5h24.1v-2.4c0-1.7,2.7-1.7,2.7,0v2.4h37.4v-2.5c0,0,0,0-0.1,0
		c-1.7,0-1.7-2.7,0-2.7c0,0,0,0,0.1,0v-2.1c0,0,0,0-0.1,0C72.6,37.8,72.6,35.1,74.4,35.1z"/>
	<rect x="13.7" y="41.7" fill="#FFFFFF" stroke="#000000" stroke-width="0.5" stroke-miterlimit="10" width="1.3" height="3.4"/>
	<rect x="15" y="41.7" fill="#FFFFFF" stroke="#000000" stroke-width="0.5" stroke-miterlimit="10" width="1.3" height="3.4"/>
	<rect x="16.3" y="41.7" fill="#FFFFFF" stroke="#000000" stroke-width="0.5" stroke-miterlimit="10" width="1.3" height="3.4"/>
	<rect x="17.6" y="41.7" fill="#FFFFFF" stroke="#000000" stroke-width="0.5" stroke-miterlimit="10" width="1.3" height="3.4"/>
	<rect x="18.8" y="41.7" fill="#FFFFFF" stroke="#000000" stroke-width="0.5" stroke-miterlimit="10" width="1.3" height="3.4"/>
	<rect x="20.1" y="41.7" fill="#FFFFFF" stroke="#000000" stroke-width="0.5" stroke-miterlimit="10" width="1.3" height="3.4"/>
	<rect x="21.4" y="41.7" fill="#FFFFFF" stroke="#000000" stroke-width="0.5" stroke-miterlimit="10" width="1.3" height="3.4"/>
	<rect x="22.7" y="41.7" fill="#FFFFFF" stroke="#000000" stroke-width="0.5" stroke-miterlimit="10" width="1.3" height="3.4"/>
	<rect x="23.9" y="41.7" fill="#FFFFFF" stroke="#000000" stroke-width="0.5" stroke-miterlimit="10" width="1.3" height="3.4"/>
	<rect x="25.2" y="41.7" fill="#FFFFFF" stroke="#000000" stroke-width="0.5" stroke-miterlimit="10" width="1.3" height="3.4"/>
	<rect x="26.5" y="41.7" fill="#FFFFFF" stroke="#000000" stroke-width="0.5" stroke-miterlimit="10" width="1.3" height="3.4"/>
	<rect x="27.8" y="41.7" fill="#FFFFFF" stroke="#000000" stroke-width="0.5" stroke-miterlimit="10" width="1.3" height="3.4"/>
	<rect x="29.1" y="41.7" fill="#FFFFFF" stroke="#000000" stroke-width="0.5" stroke-miterlimit="10" width="1.3" height="3.4"/>
	<rect x="30.3" y="41.7" fill="#FFFFFF" stroke="#000000" stroke-width="0.5" stroke-miterlimit="10" width="1.3" height="3.4"/>
	<rect x="31.6" y="41.7" fill="#FFFFFF" stroke="#000000" stroke-width="0.5" stroke-miterlimit="10" width="1.3" height="3.4"/>
	<g>
		<rect x="38.5" y="41.7" fill="#FFFFFF" stroke="#000000" stroke-width="0.5" stroke-miterlimit="10" width="1.3" height="3.3"/>
		<rect x="39.8" y="41.7" fill="#FFFFFF" stroke="#000000" stroke-width="0.5" stroke-miterlimit="10" width="1.3" height="3.3"/>
		<rect x="41.1" y="41.7" fill="#FFFFFF" stroke="#000000" stroke-width="0.5" stroke-miterlimit="10" width="1.3" height="3.3"/>
		<rect x="42.4" y="41.7" fill="#FFFFFF" stroke="#000000" stroke-width="0.5" stroke-miterlimit="10" width="1.3" height="3.3"/>
		<rect x="43.7" y="41.7" fill="#FFFFFF" stroke="#000000" stroke-width="0.5" stroke-miterlimit="10" width="1.3" height="3.3"/>
		<rect x="44.9" y="41.7" fill="#FFFFFF" stroke="#000000" stroke-width="0.5" stroke-miterlimit="10" width="1.3" height="3.3"/>
		<rect x="46.2" y="41.7" fill="#FFFFFF" stroke="#000000" stroke-width="0.5" stroke-miterlimit="10" width="1.3" height="3.3"/>
		<rect x="47.5" y="41.7" fill="#FFFFFF" stroke="#000000" stroke-width="0.5" stroke-miterlimit="10" width="1.3" height="3.3"/>
		<rect x="48.8" y="41.7" fill="#FFFFFF" stroke="#000000" stroke-width="0.5" stroke-miterlimit="10" width="1.3" height="3.3"/>
		<rect x="50" y="41.7" fill="#FFFFFF" stroke="#000000" stroke-width="0.5" stroke-miterlimit="10" width="1.3" height="3.3"/>
		<rect x="51.3" y="41.7" fill="#FFFFFF" stroke="#000000" stroke-width="0.5" stroke-miterlimit="10" width="1.3" height="3.3"/>
		<rect x="52.6" y="41.7" fill="#FFFFFF" stroke="#000000" stroke-width="0.5" stroke-miterlimit="10" width="1.3" height="3.3"/>
		<rect x="53.9" y="41.7" fill="#FFFFFF" stroke="#000000" stroke-width="0.5" stroke-miterlimit="10" width="1.3" height="3.3"/>
		<rect x="55.2" y="41.7" fill="#FFFFFF" stroke="#000000" stroke-width="0.5" stroke-miterlimit="10" width="1.3" height="3.3"/>
	</g>
	<rect x="56.4" y="41.7" fill="#FFFFFF" stroke="#000000" stroke-width="0.5" stroke-miterlimit="10" width="1.3" height="3.3"/>
	<rect x="57.7" y="41.7" fill="#FFFFFF" stroke="#000000" stroke-width="0.5" stroke-miterlimit="10" width="1.3" height="3.3"/>
	<rect x="59" y="41.7" fill="#FFFFFF" stroke="#000000" stroke-width="0.5" stroke-miterlimit="10" width="1.3" height="3.3"/>
	<rect x="60.3" y="41.7" fill="#FFFFFF" stroke="#000000" stroke-width="0.5" stroke-miterlimit="10" width="1.3" height="3.3"/>
	<rect x="61.6" y="41.7" fill="#FFFFFF" stroke="#000000" stroke-width="0.5" stroke-miterlimit="10" width="1.3" height="3.3"/>
	<rect x="62.8" y="41.7" fill="#FFFFFF" stroke="#000000" stroke-width="0.5" stroke-miterlimit="10" width="1.3" height="3.3"/>
	<rect x="64.1" y="41.7" fill="#FFFFFF" stroke="#000000" stroke-width="0.5" stroke-miterlimit="10" width="1.3" height="3.3"/>
	<rect x="65.4" y="41.7" fill="#FFFFFF" stroke="#000000" stroke-width="0.5" stroke-miterlimit="10" width="1.3" height="3.3"/>
	<rect x="66.7" y="41.7" fill="#FFFFFF" stroke="#000000" stroke-width="0.5" stroke-miterlimit="10" width="1.3" height="3.3"/>
	<rect x="67.9" y="41.7" fill="#FFFFFF" stroke="#000000" stroke-width="0.5" stroke-miterlimit="10" width="1.3" height="3.3"/>
	<rect x="69.2" y="41.7" fill="#FFFFFF" stroke="#000000" stroke-width="0.5" stroke-miterlimit="10" width="1.3" height="3.3"/>
	<rect x="14.1" y="29" fill="#FFFFFF" stroke="#000000" stroke-width="0.5" stroke-miterlimit="10" width="7.7" height="10.1"/>
	<rect x="23.9" y="29" fill="#FFFFFF" stroke="#000000" stroke-width="0.5" stroke-miterlimit="10" width="7.7" height="10.1"/>
	<rect x="33.7" y="29" fill="#FFFFFF" stroke="#000000" stroke-width="0.5" stroke-miterlimit="10" width="7.7" height="10.1"/>
	<rect x="43.6" y="29" fill="#FFFFFF" stroke="#000000" stroke-width="0.5" stroke-miterlimit="10" width="7.7" height="10.1"/>
	<rect x="53.4" y="29" fill="#FFFFFF" stroke="#000000" stroke-width="0.5" stroke-miterlimit="10" width="7.7" height="10.1"/>
	<rect x="63.2" y="29" fill="#FFFFFF" stroke="#000000" stroke-width="0.5" stroke-miterlimit="10" width="7.7" height="10.1"/>
</g>
</svg>
