<?xml version="1.0" encoding="utf-8"?>
<!-- Generator: Adobe Illustrator 18.1.1, SVG Export Plug-In . SVG Version: 6.00 Build 0)  -->
<svg version="1.1" id="Layer_1" xmlns="http://www.w3.org/2000/svg" xmlns:xlink="http://www.w3.org/1999/xlink" x="0px" y="0px"
	 viewBox="0 0 80 66" enable-background="new 0 0 80 66" xml:space="preserve">
<rect fill="none" width="80" height="66"/>
<g>
	<path fill="#FFFFFF" stroke="#000000" stroke-width="0.5" stroke-miterlimit="10" d="M56.8,8.3c0,1.1-0.7,2.1-2,2.1
		c-1.4,0-2-1.1-2-2.1H14.7v50.6h37.9c-0.1-1.1,0.6-2.3,2-2.3c1.5,0,2.1,1.2,2,2.3h8.6V8.3H56.8z"/>
	<path fill="#FFFFFF" stroke="#000000" stroke-width="0.5" stroke-miterlimit="10" d="M56.2,54H24.4c-2.8,0-5-2.2-5-5V17.3
		c0-2.8,2.2-5,5-5h31.8c2.8,0,5,2.2,5,5V49C61.2,51.8,59,54,56.2,54z"/>
	<path fill="#FFFFFF" stroke="#000000" stroke-width="0.5" stroke-miterlimit="10" d="M56.1,50.5H24.5c-0.9,0-1.5-0.7-1.5-1.5V17.4
		c0-0.9,0.7-1.5,1.5-1.5h31.5c0.9,0,1.5,0.7,1.5,1.5v31.5C57.6,49.8,56.9,50.5,56.1,50.5z"/>
	<g>
		<polygon fill="#FFFFFF" stroke="#000000" stroke-width="0.5" stroke-miterlimit="10" points="19.9,58 15.8,53.9 15.8,58 		"/>
	</g>
</g>
</svg>
