<?xml version="1.0" encoding="utf-8"?>
<!-- Generator: Adobe Illustrator 18.1.1, SVG Export Plug-In . SVG Version: 6.00 Build 0)  -->
<svg version="1.1" id="Layer_1" xmlns="http://www.w3.org/2000/svg" xmlns:xlink="http://www.w3.org/1999/xlink" x="0px" y="0px"
	 viewBox="0 0 80 66" enable-background="new 0 0 80 66" xml:space="preserve">
<rect fill="none" width="80" height="66"/>
<g>
	<path fill="none" stroke="#000000" stroke-width="0.5" stroke-linecap="round" stroke-linejoin="round" stroke-miterlimit="10" d="
		M31.9,44.3c1.2,0.3,2.5,0.7,3.7,1c1.5,0.4,2.9,0.7,4.3,1.1c-0.3-1.9-1.4-3.5-3.1-4c-0.2-0.1-2.2-0.8-3.8,0.4
		C32.4,43.3,32,43.9,31.9,44.3z"/>
	<path fill="none" stroke="#000000" stroke-width="0.5" stroke-linecap="round" stroke-linejoin="round" stroke-miterlimit="10" d="
		M39.9,46.4l9.3-6.2c-0.4-0.6-1.3-1.7-2.9-2.3c-0.5-0.2-1.3-0.5-2.4-0.5c-0.4,0-1,0.2-1.3,0.3"/>
	
		<line fill="none" stroke="#000000" stroke-width="0.5" stroke-linecap="round" stroke-linejoin="round" stroke-miterlimit="10" x1="33.8" y1="42.3" x2="39.2" y2="39.2"/>
	
		<line stroke="#000000" stroke-width="0.5" stroke-linecap="round" stroke-linejoin="round" stroke-miterlimit="10" x1="19.6" y1="45.3" x2="44.8" y2="51.6"/>
	
		<line stroke="#000000" stroke-width="0.5" stroke-linecap="round" stroke-linejoin="round" stroke-miterlimit="10" x1="60.5" y1="41.5" x2="44.8" y2="51.6"/>
	
		<line fill="none" stroke="#000000" stroke-width="0.5" stroke-linecap="round" stroke-linejoin="round" stroke-miterlimit="10" x1="44.8" y1="51.6" x2="45.7" y2="57.3"/>
	
		<line fill="none" stroke="#000000" stroke-width="0.5" stroke-linecap="round" stroke-linejoin="round" stroke-miterlimit="10" x1="45.2" y1="61" x2="45.7" y2="57.3"/>
	<path fill="none" stroke="#000000" stroke-width="0.5" stroke-linecap="round" stroke-linejoin="round" stroke-miterlimit="10" d="
		M39.2,39.5l-2.4,1.6c0.4,0,1.1-0.1,1.8,0.1c0.6,0.2,1.1,0.4,1.4,0.6c1.5-1,3-1.9,4.5-2.9c-0.1-0.2-0.5-0.5-1-0.7
		c-0.5-0.2-1-0.1-1.2-0.1"/>
	
		<line fill="none" stroke="#000000" stroke-width="0.5" stroke-linecap="round" stroke-linejoin="round" stroke-miterlimit="10" x1="18.5" y1="50" x2="44.4" y2="57.5"/>
	
		<line fill="none" stroke="#000000" stroke-width="0.5" stroke-linecap="round" stroke-linejoin="round" stroke-miterlimit="10" x1="45.7" y1="57.3" x2="44.4" y2="57.5"/>
	
		<line fill="none" stroke="#000000" stroke-width="0.5" stroke-linecap="round" stroke-linejoin="round" stroke-miterlimit="10" x1="47.1" y1="56.8" x2="45.7" y2="57.3"/>
	
		<line fill="none" stroke="#000000" stroke-width="0.5" stroke-linecap="round" stroke-linejoin="round" stroke-miterlimit="10" x1="62" y1="46" x2="47.1" y2="56.8"/>
	
		<line fill="none" stroke="#000000" stroke-width="0.5" stroke-linecap="round" stroke-linejoin="round" stroke-miterlimit="10" x1="60.5" y1="41.5" x2="62" y2="46"/>
	
		<line fill="none" stroke="#000000" stroke-width="0.5" stroke-linecap="round" stroke-linejoin="round" stroke-miterlimit="10" x1="18.5" y1="50" x2="19.6" y2="45.3"/>
	
		<line fill="none" stroke="#000000" stroke-width="0.5" stroke-linecap="round" stroke-linejoin="round" stroke-miterlimit="10" x1="20.2" y1="53.7" x2="18.5" y2="50"/>
	
		<line fill="none" stroke="#000000" stroke-width="0.5" stroke-linecap="round" stroke-linejoin="round" stroke-miterlimit="10" x1="45.2" y1="61" x2="20.2" y2="53.7"/>
	
		<line fill="none" stroke="#000000" stroke-width="0.5" stroke-linecap="round" stroke-linejoin="round" stroke-miterlimit="10" x1="62" y1="46" x2="61" y2="49.4"/>
	
		<line fill="none" stroke="#000000" stroke-width="0.5" stroke-linecap="round" stroke-linejoin="round" stroke-miterlimit="10" x1="45.2" y1="61" x2="61" y2="49.4"/>
	
		<line fill="none" stroke="#000000" stroke-width="0.5" stroke-linecap="round" stroke-linejoin="round" stroke-miterlimit="10" x1="19.6" y1="45.3" x2="36.7" y2="35.9"/>
	
		<line fill="none" stroke="#000000" stroke-width="0.5" stroke-linecap="round" stroke-linejoin="round" stroke-miterlimit="10" x1="60.5" y1="41.5" x2="47.3" y2="38.4"/>
	
		<line fill="none" stroke="#000000" stroke-width="0.5" stroke-linecap="round" stroke-linejoin="round" stroke-miterlimit="10" x1="43.7" y1="36.3" x2="42" y2="38.4"/>
	
		<line fill="none" stroke="#000000" stroke-width="0.5" stroke-linecap="round" stroke-linejoin="round" stroke-miterlimit="10" x1="42" y1="40.6" x2="42" y2="38.4"/>
	
		<line fill="none" stroke="#000000" stroke-width="0.5" stroke-linecap="round" stroke-linejoin="round" stroke-miterlimit="10" x1="39.2" y1="41.4" x2="39.2" y2="38.2"/>
	
		<line fill="none" stroke="#000000" stroke-width="0.5" stroke-linecap="round" stroke-linejoin="round" stroke-miterlimit="10" x1="37.4" y1="36.1" x2="39.2" y2="38.2"/>
	<path fill="none" stroke="#000000" stroke-width="0.5" stroke-linecap="round" stroke-linejoin="round" stroke-miterlimit="10" d="
		M44.6,32.1c0.2,0.1,2,0.6,2.2,1.7c0,0.2,0,0.4,0,0.5c-0.4,1.5-3.2,2.1-3.7,2.2c-0.8,0.2-1.4,0.1-2.4,0.1c-1.2,0-2,0-3-0.3
		c-0.4-0.1-2.8-0.8-2.8-1.9c0-0.8,1.5-1.4,1.8-1.5c-0.1-1.7-0.1-3.4-0.2-5.2c-0.6-1.3-1.1-2.5-1.7-3.8c-0.1-0.2-0.3-0.5-0.3-0.9
		c0-0.7,0.3-1.2,0.4-1.3c-0.3-0.1-0.7-0.2-1-0.3c-0.2,0-0.4-0.1-0.6-0.1c0-0.2-0.1-0.4,0-0.8c0-0.1,0-0.2,0-0.3
		c0-0.7-0.1-1.3-0.1-1.5c-0.3-1.6-1.4-2.5-1.4-2.5c-0.3-0.2-1.1-0.8-2.1-0.8c-0.8,0.1-0.9,0.4-1.6,0.4c-0.7-0.1-1.1-0.6-1.5-1
		c-0.3-0.4-1-1.1-0.9-1.9c0.1-0.6,0.4-1,0.7-1.3c1.7-1.7,7.5-5.8,7.9-6.1c0.3-0.1,0.9-0.2,1.5-0.1c0.7,0.1,1.2,0.4,1.3,0.4
		c0.3,0.2,0.6,0.4,1,0.9c0.7,0.9,1,1.7,1.1,2.1c0.3,0.9,0.8,2.1,1.4,3.7c0.1,0.3,0.4,0.8,0.7,1.5c0.4,0.8,0.7,1.3,0.7,1.4
		c0.4,0.7,1.5,3.4,2.2,8.6C44.4,26.2,44.7,28.9,44.6,32.1z"/>
	<path fill="none" stroke="#000000" stroke-width="0.5" stroke-linecap="round" stroke-linejoin="round" stroke-miterlimit="10" d="
		M36.7,33c0,0-0.2,0.6,0.2,0.9c0.5,0.3,1,0.5,1.9,0.7c1.4,0.3,2.1,0.4,2.8,0.3c0.4,0,2-0.2,2.7-1c0.4-0.5,0.4-0.9,0.4-0.9
		c0-0.2,0-0.7,0-0.9"/>
	<path fill="none" stroke="#000000" stroke-width="0.5" stroke-linecap="round" stroke-linejoin="round" stroke-miterlimit="10" d="
		M41.3,14.4c-0.8,0.4-2,0.9-2.8,1.2c-0.9-0.4-1.8-0.8-2.6-1.1c-2-3.1-3.4-5.4-3.6-5.9c0-0.1-0.1-0.4,0-0.6c0.1-0.3,0.3-0.4,0.4-0.5
		c0.5-0.3,1.2-0.8,2.1-1.5c0.3-0.1,0.7-0.1,1-0.2c0.2-0.1,0.4-0.1,0.6-0.2"/>
	<path fill="none" stroke="#000000" stroke-width="0.5" stroke-linecap="round" stroke-linejoin="round" stroke-miterlimit="10" d="
		M33.2,19.9c-0.2,0-0.9,0.2-1.2,0.1c-0.4,0-0.7-0.1-0.9-0.2c0.2-0.3,0.3-0.7,0.4-1.1c0.3-1.1,0-2.3-0.1-2.8"/>
	<path fill="none" stroke="#000000" stroke-width="0.5" stroke-linecap="round" stroke-linejoin="round" stroke-miterlimit="10" d="
		M39.8,21.3c-0.2,0.5-0.5,1.2-1.2,1.9c-0.4,0.3-1,0.9-1.9,1c-0.8,0.1-1.6-0.2-1.9-0.3"/>
	
		<line fill="none" stroke="#000000" stroke-width="0.5" stroke-linecap="round" stroke-linejoin="round" stroke-miterlimit="10" x1="38.1" y1="21.1" x2="39.8" y2="21.3"/>
	<path fill="none" stroke="#000000" stroke-width="0.5" stroke-linecap="round" stroke-linejoin="round" stroke-miterlimit="10" d="
		M34.4,9.3l1.1-0.6c-0.1,0-0.6,0-0.9-0.5c-0.2-0.3-0.2-0.7-0.2-0.8c-0.3,0.2-0.6,0.4-0.9,0.7c-0.2,0.3-0.2,0.6,0,0.9
		C33.6,9.3,34,9.4,34.4,9.3"/>
	<path fill="none" stroke="#000000" stroke-width="0.5" stroke-linecap="round" stroke-linejoin="round" stroke-miterlimit="10" d="
		M34.4,7.3c0.1,0,0.6-0.5,1.1,0.3c0.5,0.7,0,1,0,1.1"/>
	<path fill="none" stroke="#000000" stroke-width="0.5" stroke-linecap="round" stroke-linejoin="round" stroke-miterlimit="10" d="
		M35.1,10.5c-0.4,0.3-0.3,1.2,0.1,1.9c0.4,0.7,1.4,1.2,1.8,0.9c0.4-0.3,0.3-1.1,0-1.7C36.5,10.8,35.5,10.2,35.1,10.5z"/>
	<path fill="none" stroke="#000000" stroke-width="0.5" stroke-linecap="round" stroke-linejoin="round" stroke-miterlimit="10" d="
		M38.3,22.1c0.1,0.4-0.6,1.1-1.4,1.3c-0.7,0.2-1.7,0-1.8-0.4c-0.1-0.4,0.7-1,1.4-1.2C37.2,21.6,38.2,21.7,38.3,22.1z"/>
	<path fill="none" stroke="#000000" stroke-width="0.5" stroke-linecap="round" stroke-linejoin="round" stroke-miterlimit="10" d="
		M38.3,11.3c-0.4,0.3-0.3,1.2,0.1,1.9c0.4,0.7,1.4,1.2,1.8,0.9c0.4-0.3,0.3-1.1,0-1.7C39.7,11.6,38.7,11.1,38.3,11.3z"/>
	<path fill="none" stroke="#000000" stroke-width="0.5" stroke-linecap="round" stroke-linejoin="round" stroke-miterlimit="10" d="
		M36.2,6.6c-0.4,0.3-0.3,1.2,0.1,1.9c0.4,0.7,1.4,1.2,1.8,0.9c0.4-0.3,0.3-1.1,0-1.7C37.7,6.8,36.6,6.3,36.2,6.6z"/>
</g>
</svg>
