<?xml version="1.0" encoding="utf-8"?>
<!-- Generator: Adobe Illustrator 18.1.1, SVG Export Plug-In . SVG Version: 6.00 Build 0)  -->
<svg version="1.1" id="Layer_1" xmlns="http://www.w3.org/2000/svg" xmlns:xlink="http://www.w3.org/1999/xlink" x="0px" y="0px"
	 viewBox="0 0 80 66" enable-background="new 0 0 80 66" xml:space="preserve">
<rect fill="none" width="80" height="66"/>
<g>
	
		<circle fill="#4D4D4D" stroke="#000000" stroke-width="0.5" stroke-linejoin="round" stroke-miterlimit="10" cx="45.1" cy="24" r="19.4"/>
</g>
<path fill="#FFFFFF" stroke="#000000" stroke-width="0.5" stroke-linejoin="round" stroke-miterlimit="10" d="M55.5,13.6
	c0,2.9,1,5.2-10.6,5.2s-10.6-2.3-10.6-5.2s4.7-5.2,10.6-5.2S55.5,10.8,55.5,13.6z"/>
<ellipse transform="matrix(-0.7482 0.6634 -0.6634 -0.7482 83.8709 29.9273)" fill="#FFFFFF" stroke="#000000" stroke-width="0.5" stroke-linejoin="round" stroke-miterlimit="10" cx="36.3" cy="30.9" rx="4.3" ry="9"/>
<ellipse transform="matrix(0.7482 0.6634 -0.6634 0.7482 34.1598 -28.2624)" fill="#FFFFFF" stroke="#000000" stroke-width="0.5" stroke-linejoin="round" stroke-miterlimit="10" cx="54.3" cy="30.9" rx="4.3" ry="9"/>
<circle fill="#4D4D4D" stroke="#000000" stroke-width="0.5" stroke-linejoin="round" stroke-miterlimit="10" cx="45.1" cy="24" r="3.8"/>
<g>
	<path fill="none" stroke="#000000" stroke-width="0.5" stroke-linejoin="round" stroke-miterlimit="10" d="M36.3,56.8L36.3,56.8
		c0-2.9,2.3-5.2,5.2-5.2h6c2.9,0,5.2,2.3,5.2,5.2v0c0,2.9-2.3,5.2-5.2,5.2h-6C38.6,61.9,36.3,59.6,36.3,56.8z"/>
	<g>
		
			<circle fill="#FFFFFF" stroke="#000000" stroke-width="0.5" stroke-linejoin="round" stroke-miterlimit="10" cx="48" cy="54.9" r="0.9"/>
		
			<circle fill="#FFFFFF" stroke="#000000" stroke-width="0.5" stroke-linejoin="round" stroke-miterlimit="10" cx="41" cy="54.9" r="0.9"/>
		
			<circle fill="#FFFFFF" stroke="#000000" stroke-width="0.5" stroke-linejoin="round" stroke-miterlimit="10" cx="43.3" cy="54.9" r="0.9"/>
		
			<circle fill="#FFFFFF" stroke="#000000" stroke-width="0.5" stroke-linejoin="round" stroke-miterlimit="10" cx="45.7" cy="54.9" r="0.9"/>
	</g>
	<g>
		
			<circle fill="#FFFFFF" stroke="#000000" stroke-width="0.5" stroke-linejoin="round" stroke-miterlimit="10" cx="48" cy="58.7" r="0.9"/>
		
			<circle fill="#FFFFFF" stroke="#000000" stroke-width="0.5" stroke-linejoin="round" stroke-miterlimit="10" cx="41" cy="58.7" r="0.9"/>
		
			<circle fill="#FFFFFF" stroke="#000000" stroke-width="0.5" stroke-linejoin="round" stroke-miterlimit="10" cx="43.3" cy="58.7" r="0.9"/>
		
			<circle fill="#FFFFFF" stroke="#000000" stroke-width="0.5" stroke-linejoin="round" stroke-miterlimit="10" cx="45.7" cy="58.7" r="0.9"/>
	</g>
</g>
<g>
	<path fill="#FFFFFF" stroke="#000000" stroke-width="0.5" stroke-linejoin="round" stroke-miterlimit="10" d="M62,61.9L62,61.9
		c-2.9,0-5.2-2.3-5.2-5.2v-7.6c0-2.9,2.3-5.2,5.2-5.2h0c2.9,0,5.2,2.3,5.2,5.2v7.6C67.2,59.6,64.9,61.9,62,61.9z"/>
	<g>
		
			<circle fill="#FFFFFF" stroke="#000000" stroke-width="0.5" stroke-linejoin="round" stroke-miterlimit="10" cx="63.9" cy="57.7" r="0.9"/>
		
			<circle fill="#FFFFFF" stroke="#000000" stroke-width="0.5" stroke-linejoin="round" stroke-miterlimit="10" cx="63.9" cy="50.6" r="0.9"/>
		
			<circle fill="#FFFFFF" stroke="#000000" stroke-width="0.5" stroke-linejoin="round" stroke-miterlimit="10" cx="63.9" cy="53" r="0.9"/>
		
			<circle fill="#FFFFFF" stroke="#000000" stroke-width="0.5" stroke-linejoin="round" stroke-miterlimit="10" cx="63.9" cy="55.3" r="0.9"/>
		
			<circle fill="#FFFFFF" stroke="#000000" stroke-width="0.5" stroke-linejoin="round" stroke-miterlimit="10" cx="60.1" cy="57.7" r="0.9"/>
		
			<circle fill="#FFFFFF" stroke="#000000" stroke-width="0.5" stroke-linejoin="round" stroke-miterlimit="10" cx="60.1" cy="50.6" r="0.9"/>
		
			<circle fill="#FFFFFF" stroke="#000000" stroke-width="0.5" stroke-linejoin="round" stroke-miterlimit="10" cx="60.1" cy="53" r="0.9"/>
		
			<circle fill="#FFFFFF" stroke="#000000" stroke-width="0.5" stroke-linejoin="round" stroke-miterlimit="10" cx="60.1" cy="55.3" r="0.9"/>
		
			<circle fill="#FFFFFF" stroke="#000000" stroke-width="0.5" stroke-linejoin="round" stroke-miterlimit="10" cx="60.1" cy="48.3" r="0.9"/>
		
			<circle fill="#FFFFFF" stroke="#000000" stroke-width="0.5" stroke-linejoin="round" stroke-miterlimit="10" cx="63.9" cy="48.3" r="0.9"/>
	</g>
</g>
<path fill="#4D4D4D" stroke="#000000" stroke-width="0.5" stroke-linejoin="round" stroke-miterlimit="10" d="M31.7,61.9H14
	c-0.7,0-1.3-0.6-1.3-1.3v0c0-0.7,0.6-1.3,1.3-1.3h17.8c0.7,0,1.3,0.6,1.3,1.3v0C33.1,61.3,32.5,61.9,31.7,61.9z"/>
<path fill="#4D4D4D" stroke="#000000" stroke-width="0.5" stroke-linejoin="round" stroke-miterlimit="10" d="M30.9,59.2H14.8
	c-0.7,0-1.3-0.6-1.3-1.3v0c0-0.7,0.6-1.3,1.3-1.3h16.2c0.7,0,1.3,0.6,1.3,1.3v0C32.3,58.6,31.7,59.2,30.9,59.2z"/>
<path fill="#4D4D4D" stroke="#000000" stroke-width="0.5" stroke-linejoin="round" stroke-miterlimit="10" d="M29.8,56.5H15.9
	c-0.7,0-1.3-0.6-1.3-1.3l0,0c0-0.7,0.6-1.3,1.3-1.3h13.9c0.7,0,1.3,0.6,1.3,1.3l0,0C31.1,55.9,30.5,56.5,29.8,56.5z"/>
<path fill="#4D4D4D" stroke="#000000" stroke-width="0.5" stroke-linejoin="round" stroke-miterlimit="10" d="M28.3,53.8H17.4
	c-0.7,0-1.3-0.6-1.3-1.3v0c0-0.7,0.6-1.3,1.3-1.3h10.9c0.7,0,1.3,0.6,1.3,1.3v0C29.6,53.2,29,53.8,28.3,53.8z"/>
<path fill="#4D4D4D" stroke="#000000" stroke-width="0.5" stroke-linejoin="round" stroke-miterlimit="10" d="M26.7,51.1H19
	c-0.7,0-1.3-0.6-1.3-1.3v0c0-0.7,0.6-1.3,1.3-1.3h7.7c0.7,0,1.3,0.6,1.3,1.3v0C28,50.5,27.4,51.1,26.7,51.1z"/>
<rect x="21.6" y="43.8" fill="#FFFFFF" stroke="#000000" stroke-width="0.5" stroke-linejoin="round" stroke-miterlimit="10" width="2.4" height="4.7"/>
<path fill="#4D4D4D" stroke="#000000" stroke-width="0.5" stroke-linejoin="round" stroke-miterlimit="10" d="M26.6,39.4
	c0,2.1-1.3,5.4-3.8,5.4c-2.5,0-3.8-3.3-3.8-5.4s1.7-3.8,3.8-3.8S26.6,37.3,26.6,39.4z"/>
</svg>
