<?xml version="1.0" encoding="utf-8"?>
<!-- Generator: Adobe Illustrator 18.1.1, SVG Export Plug-In . SVG Version: 6.00 Build 0)  -->
<svg version="1.1" id="Layer_1" xmlns="http://www.w3.org/2000/svg" xmlns:xlink="http://www.w3.org/1999/xlink" x="0px" y="0px"
	 viewBox="0 0 80 66" enable-background="new 0 0 80 66" xml:space="preserve">
<rect fill="none" width="80" height="66"/>
<g>
	<g>
		<path fill="#4D4D4D" d="M70.7,25.9c-0.5-1.1-1-2.1-1.8-3c-0.4-0.4-0.8-0.9-1.2-1.3c-0.5-0.4-1-0.7-1.5-1c-0.5-0.3-0.9-0.7-1.5-0.9
			c-0.5-0.2-1.1-0.4-1.6-0.7c-1.1-0.5-2.2-0.8-3.4-1.2c-1.1-0.3-2.3-0.5-3.5-0.7c-0.3,0-0.6-0.1-0.9-0.1c-0.3,0-0.5,0-0.8,0
			c-0.6,0-1.3-0.2-1.9-0.2c-1.3,0-2.6,0-3.9,0.1c-1.1,0.1-2.3,0.3-3.4,0.5c-0.6,0.1-1.1,0.2-1.7,0.4c-0.1,0-0.5,0.1-0.5,0.1
			c0,0,0,0.4,0,0.4c0,0.4,0,0.7,0,1.1c0,1.3,0,2.5,0,3.8c0,0.3,0,0.6,0,0.9c0,0.2-0.1,0.7,0,0.8c0.1,0.1,0.5,0.4,0.7,0.4
			c0.3,0.1,0.7,0,1,0c1.2-0.1,2.5-0.1,3.7-0.2c0.6,0,1.1,0.1,1.7,0.1c0.2,0,0.5,0.1,0.7,0.1c0.3,0,0.4-0.1,0.7,0
			c0.3,0.1,0.5,0.1,0.8,0.2c0.2,0,0.3,0.1,0.5,0.2c0.2,0.1,0.6,0,0.8,0.1c0.3,0.1,0.6,0.2,1,0.3c0.5,0.1,1.1,0.2,1.6,0.3
			c0.6,0.2,1.1,0.4,1.7,0.6c1,0.4,2.1,0.7,3,1.1c0.5,0.3,1,0.7,1.6,0.9c0.4,0.2,0.9,0.4,1.3,0.7c0.3,0.2,0.6,0.3,0.9,0.5
			c0.3,0.1,0.6,0.2,0.8,0.4c0.1,0.1,0.1,0.1,0.1,0.2c0.1,0.1,0.3,0.2,0.4,0.3c0.1,0,0.2,0,0.3,0.1c0.1,0.1,0.2,0.2,0.4,0.3
			c0.1,0,0.4,0.2,0.5,0.2c0.1,0,0.2-0.2,0.3-0.3c0.2-0.3,0.4-0.6,0.6-0.9c0.4-0.6,0.8-1.1,1.2-1.7c0.3-0.5,0.8-0.9,1-1.4
			c0.1-0.2,0.3-0.5,0.4-0.8c0.1-0.2,0.1,0,0-0.3C70.9,26.2,70.8,26,70.7,25.9C70.5,25.4,70.8,26.1,70.7,25.9z"/>
	</g>
	<g id="XMLID_2_">
		<g>
			<path fill="#4D4D4D" d="M41.3,46.9c1.9,2.7,1.8,5.9,1.7,9c0,1.6,0.2,3.4-1,4.6c0,0-0.1,0.1-0.1,0.1l-0.9,0.6
				c-1.4,0.6-3.1,0-4.6-0.6c-1.8-0.7-3.2-1.9-5-2.6c-4.4-1.9-8.7-3.7-12.7-6.4c-3.6-2.4-7.2-3.8-8.5-8.3c-1.1-3.7-1.8-8.3-1-12.1
				c-0.1,0.4,0.4-0.2,0,0c0.4-0.2,0.8-0.4,1.2-0.7c0.8,0.5,1.6,0.9,2.4,1.4c6.2,3.6,12.9,7.7,19.8,9.8
				C35.8,42.8,39.3,44.1,41.3,46.9z"/>
			<path fill="#4D4D4D" d="M40.9,61.2l0.9-0.6C41.6,60.9,41.3,61.1,40.9,61.2z"/>
			<path fill="#4D4D4D" d="M9.2,31.3C9.6,31.1,9.2,31.6,9.2,31.3L9.2,31.3z"/>
		</g>
		<g>
			
				<path fill="none" stroke="#000000" stroke-width="0.5" stroke-linecap="round" stroke-linejoin="round" stroke-miterlimit="10" d="
				M9.2,31.3C9.6,31.1,9.2,31.6,9.2,31.3L9.2,31.3z"/>
			
				<path fill="none" stroke="#000000" stroke-width="0.5" stroke-linecap="round" stroke-linejoin="round" stroke-miterlimit="10" d="
				M9.2,31.3c0.4-0.2,0.8-0.4,1.2-0.7c0.8,0.5,1.6,0.9,2.4,1.4c6.2,3.6,12.9,7.7,19.8,9.8c3.1,1,6.6,2.3,8.6,5
				c1.9,2.7,1.8,5.9,1.7,9c0,1.6,0.2,3.4-1,4.6c0,0-0.1,0.1-0.1,0.1c-0.3,0.3-0.6,0.5-0.9,0.6c-1.4,0.6-3.1,0-4.6-0.6
				c-1.8-0.7-3.2-1.9-5-2.6c-4.4-1.9-8.7-3.7-12.7-6.4c-3.6-2.4-7.2-3.8-8.5-8.3C9.1,39.6,8.4,35.1,9.2,31.3"/>
			
				<path fill="none" stroke="#000000" stroke-width="0.5" stroke-linecap="round" stroke-linejoin="round" stroke-miterlimit="10" d="
				M55.3,48.7c0.4-1.7-0.1-3.4-0.2-5.3c-0.1-1,0.5-2.1,0.1-3C55.1,40.3,55,40.1,55,40c-0.6-1-2.1-1.7-3-2.1c-2.7-1-5.9-1.1-8.8-1.5
				c-3-0.4-6-1-8.8-2c-0.4-0.2-0.8-0.3-1.2-0.5c-1.5-0.7-2.9-1.5-4.3-2.4c-0.3-0.2-0.6-0.4-1-0.6c-0.3-0.2-0.7-0.5-1.1-0.7
				c-1.2-0.8-2.5-1.8-2.9-3c-0.4-1-0.2-1.7-0.8-2.1c-0.2-0.1-0.5-0.2-1-0.2c-2.9-0.1-6.1,2.1-8.7,3.2C21.3,34,30,38.2,39.6,41
				c3.5,1,7.1,2.4,8.2,6.3c0.6,2,0.7,4.4,0.5,6.4c0,0.3-0.7,2.4-1.3,3.6c2.1-1.9,7.4-6.7,7.6-6.9C55,49.9,55.2,49.3,55.3,48.7z"/>
			
				<path fill="none" stroke="#000000" stroke-width="0.5" stroke-linecap="round" stroke-linejoin="round" stroke-miterlimit="10" d="
				M31.6,21.9c-1.9,0.7-5.3,2.1-8.4,3.2"/>
			
				<path fill="none" stroke="#000000" stroke-width="0.5" stroke-linecap="round" stroke-linejoin="round" stroke-miterlimit="10" d="
				M55.2,48.7c0,0,0.1,0,0.1,0c0.7,0,2.7-1.7,3-1.9c1.3-0.8,2.6-1.6,3.7-2.5c1.9-1.5,4-3.2,5.6-5.1c2.6-3.1,4.4-8.4,3.4-12.6
				c-0.3-1.1-0.8-2.1-1.5-3c-1.3-1.7-3.1-3-5-4c-1.3-0.7-2.7-1.2-4.2-1.6c-2.2-0.6-4.4-0.9-6.5-1c-3.5-0.1-7,0.2-10.5,1
				c-2.3,0.5-4.5,1.2-6.7,2"/>
			
				<path fill="none" stroke="#000000" stroke-width="0.5" stroke-linecap="round" stroke-linejoin="round" stroke-miterlimit="10" d="
				M29.7,28.1C29.7,28.1,29.7,28.1,29.7,28.1c-1.1,0.7-2.5,1.8-3,2.1"/>
			
				<path fill="none" stroke="#000000" stroke-width="0.5" stroke-linecap="round" stroke-linejoin="round" stroke-miterlimit="10" d="
				M55,40C55,40,55,40,55,40c4.2-2.8,9.3-4.1,12.3-8.4c-6.7-4.6-15-7.4-23.2-6.3c-0.3-0.2-0.5-0.3-0.8-0.5c-2.9-0.3-5.9,0.5-8.8,1.3
				"/>
			
				<polyline fill="none" stroke="#000000" stroke-width="0.5" stroke-linecap="round" stroke-linejoin="round" stroke-miterlimit="10" points="
				43.4,17.8 43.4,17.9 43.3,24.8 			"/>
			
				<line fill="none" stroke="#000000" stroke-width="0.5" stroke-linecap="round" stroke-linejoin="round" stroke-miterlimit="10" x1="13.2" y1="28.1" x2="9.2" y2="31.3"/>
			
				<polyline fill="none" stroke="#000000" stroke-width="0.5" stroke-linecap="round" stroke-linejoin="round" stroke-miterlimit="10" points="
				47,57.3 41.9,60.6 40.9,61.2 40.9,61.3 			"/>
			
				<polyline fill="none" stroke="#000000" stroke-width="0.5" stroke-linecap="round" stroke-linejoin="round" stroke-miterlimit="10" points="
				71,26.5 71,26.6 67.3,31.7 			"/>
			
				<path fill="none" stroke="#000000" stroke-width="0.5" stroke-linecap="round" stroke-linejoin="round" stroke-miterlimit="10" d="
				M64.5,19.7c0-0.1,0-0.1,0-0.2c0-4.4-1.6-9.1-5.1-11.9c-1.5-1.2-2.9-1.8-4.3-1.9c-0.4,0-0.8,0-1.2,0c-3,0.2-5.9,2.1-8.6,4.2
				c-3.3,2.6-6.1,5.7-8.2,9.3c-0.1,0.2-0.3,0.5-0.4,0.7c-1,1.9-1.7,4-2.2,6.2c-0.6,2.6-0.9,5.3-1.4,7.8c0,0,0,0,0,0"/>
			
				<path fill="none" stroke="#000000" stroke-width="0.5" stroke-linecap="round" stroke-linejoin="round" stroke-miterlimit="10" d="
				M28.8,31.6c0.3-1.2,0.6-2.3,0.9-3.5c0.6-2.1,1.2-4.2,1.8-6.3c0.2-0.6,0.4-1.1,0.5-1.7c1-3.2,2.1-6.2,4.3-8.7c2-2.2,4.4-3.9,7-5.3
				c3.7-1.9,7.7-1.6,11.6-0.4c0,0,0,0,0,0"/>
			
				<path fill="none" stroke="#000000" stroke-width="0.5" stroke-linecap="round" stroke-linejoin="round" stroke-miterlimit="10" d="
				M53.8,5.7C53.8,5.7,53.8,5.7,53.8,5.7c1.9,1.4,3.6,2.4,4.7,4.6c1.2,2.3,1.7,5.1,1.7,7.6"/>
		</g>
	</g>
</g>
</svg>
