<?xml version="1.0" encoding="utf-8"?>
<!-- Generator: Adobe Illustrator 18.1.1, SVG Export Plug-In . SVG Version: 6.00 Build 0)  -->
<svg version="1.1" id="Layer_1" xmlns="http://www.w3.org/2000/svg" xmlns:xlink="http://www.w3.org/1999/xlink" x="0px" y="0px"
	 viewBox="0 0 80 66" enable-background="new 0 0 80 66" xml:space="preserve">
<rect fill="none" width="80" height="66"/>
<g>
	<path fill="#FFFFFF" stroke="#000000" stroke-width="0.5" stroke-linejoin="round" stroke-miterlimit="10" d="M42.3,40.3
		c0,13.3-6.5,24.1-14.5,24.1S13.2,53.6,13.2,40.3c0-13.3,1.1-24.1,14.5-24.1S42.3,27,42.3,40.3z"/>
	
		<line fill="none" stroke="#000000" stroke-width="0.5" stroke-linejoin="round" stroke-miterlimit="10" x1="13.2" y1="34.4" x2="42.2" y2="34.4"/>
	
		<line fill="none" stroke="#000000" stroke-width="0.5" stroke-linejoin="round" stroke-miterlimit="10" x1="27.7" y1="16.2" x2="27.7" y2="34.4"/>
	<path fill="#B3B3B3" stroke="#000000" stroke-width="0.5" stroke-linejoin="round" stroke-miterlimit="10" d="M27.8,30.4L27.8,30.4
		c-1,0-1.9-0.8-1.9-1.9v-7c0-1,0.8-1.9,1.9-1.9h0c1,0,1.9,0.8,1.9,1.9v7C29.7,29.5,28.8,30.4,27.8,30.4z"/>
</g>
<path fill="none" stroke="#000000" stroke-width="0.5" stroke-linejoin="round" stroke-miterlimit="10" d="M27.7,16.2
	c0,0,2.4-11.9,11.8-4.4s4.4-7.7,14.3-5.3s13.1-4.8,13.1-4.8"/>
</svg>
