<?xml version="1.0" encoding="utf-8"?>
<!-- Generator: Adobe Illustrator 18.1.1, SVG Export Plug-In . SVG Version: 6.00 Build 0)  -->
<svg version="1.1" id="Layer_1" xmlns="http://www.w3.org/2000/svg" xmlns:xlink="http://www.w3.org/1999/xlink" x="0px" y="0px"
	 viewBox="0 0 80 66" enable-background="new 0 0 80 66" xml:space="preserve">
<rect fill="none" width="80" height="66"/>
<g>
	<path fill="none" stroke="#000000" stroke-width="0.5" stroke-linecap="round" stroke-linejoin="bevel" stroke-miterlimit="10" d="
		M52.3,17.1c5.1,4.1,8.4,10.8,8.4,18.3c0,2.2-0.3,4.7-0.8,6.7"/>
	<path fill="none" stroke="#000000" stroke-width="0.5" stroke-linecap="round" stroke-linejoin="bevel" stroke-miterlimit="10" d="
		M28.1,17.1c3.4-2.8,7.6-4.4,12.1-4.4c4.5,0,8.7,1.6,12.1,4.4"/>
	<path fill="none" stroke="#000000" stroke-width="0.5" stroke-linecap="round" stroke-linejoin="bevel" stroke-miterlimit="10" d="
		M20.7,42.1c-0.6-2.2-0.9-4.3-0.9-6.7c0-7.5,3.3-14.1,8.4-18.3"/>
	<path fill="none" stroke="#000000" stroke-width="0.5" stroke-linecap="round" stroke-linejoin="bevel" stroke-miterlimit="10" d="
		M55.1,38.2c2.5,0.9,4.4,4,4.4,7.8c0,4.5-2.6,8.1-5.9,8.1c-0.6,0-1.2-0.1-1.7-0.4"/>
	<path fill="none" stroke="#000000" stroke-width="0.5" stroke-linecap="round" stroke-linejoin="bevel" stroke-miterlimit="10" d="
		M51.8,38.3c0.6-0.3,1.2-0.4,1.8-0.4c0.5,0,1,0.1,1.5,0.2"/>
	
		<line fill="none" stroke="#000000" stroke-width="0.5" stroke-linecap="round" stroke-linejoin="bevel" stroke-miterlimit="10" x1="51.9" y1="53.7" x2="51.9" y2="38.3"/>
	<path fill="none" stroke="#000000" stroke-width="0.5" stroke-linecap="round" stroke-linejoin="bevel" stroke-miterlimit="10" d="
		M50.7,54.1L50.7,54.1c-0.7,0-1.2-0.6-1.2-1.2V38.9c0-0.7,0.6-1.2,1.2-1.2l0,0c0.7,0,1.2,0.6,1.2,1.2v13.9
		C51.9,53.5,51.3,54.1,50.7,54.1z"/>
	<path fill="none" stroke="#000000" stroke-width="0.5" stroke-linecap="round" stroke-linejoin="bevel" stroke-miterlimit="10" d="
		M28.1,20.6c3.4-2.8,7.6-4.4,12.1-4.4c4.5,0,8.7,1.6,12.1,4.4"/>
	
		<line fill="none" stroke="#000000" stroke-width="0.5" stroke-linecap="round" stroke-linejoin="bevel" stroke-miterlimit="10" x1="28.1" y1="20.6" x2="26.4" y2="18.6"/>
	
		<line fill="none" stroke="#000000" stroke-width="0.5" stroke-linecap="round" stroke-linejoin="bevel" stroke-miterlimit="10" x1="52.3" y1="20.6" x2="54.1" y2="18.8"/>
	
		<rect x="57.4" y="42.1" stroke="#000000" stroke-width="0.5" stroke-linecap="round" stroke-linejoin="bevel" stroke-miterlimit="10" width="4.1" height="7.5"/>
	
		<rect x="18.8" y="42.1" stroke="#000000" stroke-width="0.5" stroke-linecap="round" stroke-linejoin="bevel" stroke-miterlimit="10" width="4.1" height="7.5"/>
	<path fill="none" stroke="#000000" stroke-width="0.5" stroke-linecap="round" stroke-linejoin="bevel" stroke-miterlimit="10" d="
		M25.6,38.2c-2.5,0.9-4.4,4-4.4,7.8c0,4.5,2.6,8.1,5.9,8.1c0.6,0,1.2-0.1,1.7-0.4"/>
	<path fill="none" stroke="#000000" stroke-width="0.5" stroke-linecap="round" stroke-linejoin="bevel" stroke-miterlimit="10" d="
		M28.9,38.3c-0.6-0.3-1.2-0.4-1.8-0.4c-0.5,0-1,0.1-1.5,0.2"/>
	
		<line fill="none" stroke="#000000" stroke-width="0.5" stroke-linecap="round" stroke-linejoin="bevel" stroke-miterlimit="10" x1="28.8" y1="53.7" x2="28.8" y2="38.3"/>
	<path fill="none" stroke="#000000" stroke-width="0.5" stroke-linecap="round" stroke-linejoin="bevel" stroke-miterlimit="10" d="
		M30,54.1L30,54.1c0.7,0,1.2-0.6,1.2-1.2V38.9c0-0.7-0.6-1.2-1.2-1.2h0c-0.7,0-1.2,0.6-1.2,1.2v13.9C28.8,53.5,29.4,54.1,30,54.1z"
		/>
</g>
</svg>
